<?xml version="1.0" encoding="UTF-8"?><svg id="b" xmlns="http://www.w3.org/2000/svg" viewBox="0 0 158.62 33.89"><g id="c"><g id="d"><g id="e"><rect id="f" x="82.83" width="2" height="33" fill="#fff" stroke-width="0"/><path id="g" d="m96.89,1.64l1.36,3.62h-2.84l1.48-3.62Zm-.49-1.64l-3.57,9h1.11l1.11-2.81h3.56l1.11,2.81h1.11L97.26.12h-.86v-.12Z" fill="#fff" stroke-width="0"/><path d="m108.39,5.48v4.26h1v-4.37c0-1.1-.89-2-2-2-.03,0-.07,0-.1,0-.77,0-1.5.35-2,.94-.39-.63-1.1-.99-1.84-.94-.68,0-1.34.25-1.85.71l-.13-.6h-.86l.13,1.42v4.84h1v-4.26c.29-.65.9-1.1,1.6-1.18.86,0,1.23.36,1.23,1.18v4.26h1v-4.26c.29-.65.9-1.1,1.6-1.18.59-.09,1.14.32,1.22.91.01.09.01.18,0,.27" fill="#fff" stroke-width="0"/><path d="m113.2,4.3c1.11,0,1.6.59,1.6,1.77h-3.45c.25-1.06.86-1.77,1.85-1.77m0,5.55c1.47,0,2.46-.59,2.58-1.65v-.2l-1.11-.11v.23c-.12.59-.61.95-1.6.95-1.03-.02-1.85-.86-1.84-1.89h4.6v-.63c0-2.13-.86-3.19-2.71-3.19-1.66.02-2.98,1.39-2.96,3.04,0,.05,0,.1,0,.15.12,2,1.35,3.3,3.08,3.3" fill="#fff" stroke-width="0"/><path d="m117.02,9.74h1v-3.9c.11-.91.9-1.58,1.81-1.54h.37l.37.12.12-.95h-.86c-.76-.04-1.49.26-2,.83l-.13-.71h-.86l.18,1.41v4.74Z" fill="#fff" stroke-width="0"/><rect x="121.45" y="3.47" width="1" height="6.26" fill="#fff" stroke-width="0"/><rect x="121.33" y="1.11" width="1.23" height="1.18" fill="#fff" stroke-width="0"/><path d="m126.62,9.85c1.48,0,2.47-.59,2.59-1.65v-.2l-1-.23v.23c-.12.6-.61,1-1.6,1s-1.78-1-1.78-2.34.73-2.24,1.84-2.24c.87,0,1.48.35,1.6,1v.18l1.11-.12v-.35c-.34-1.11-1.43-1.81-2.58-1.66-1.66,0-3,1.34-3.01,2.99,0,.07,0,.13,0,.2-.26,1.49.74,2.9,2.23,3.15.2.03.4.05.6.04" fill="#fff" stroke-width="0"/><path d="m132.17,8.91c-.74,0-1.11-.35-1.11-1s.37-.94,1.35-1.06l1.85-.24v1.12c-.41.76-1.22,1.22-2.09,1.18Zm.12-2.91c-1,.11-2.34.47-2.34,2,0,1.19.86,1.89,2.22,1.89.79.02,1.57-.22,2.21-.7l.13.59h.86l-.12-1.42v-2.76c0-1.42-.87-2.13-2.59-2.13s-2.34.83-2.47,1.66l-.12.35,1.11.12v-.23c.12-.48.37-.83,1.36-.83h.12c1.11,0,1.48.35,1.48,1.18v.28h-1.85Z" fill="#fff" stroke-width="0"/><path d="m141.65,9.74v-4.37c-.05-1.16-1.04-2.06-2.2-2.01-.05,0-.09,0-.14.01-.73-.03-1.45.22-2,.71l-.12-.6h-.87l.13,1.42v4.84h1v-4.26c.31-.69.98-1.14,1.73-1.18.86,0,1.47.47,1.47,1.18v4.26h1Z" fill="#fff" stroke-width="0"/><path d="m96.94,20.61h-3v-3.19h3c1.11,0,1.48.47,1.48,1.53,0,1.42-.74,1.66-1.48,1.66m-.25-4.14h-2.86v-2.95h3c.74,0,1.24.23,1.24,1.53.12.95-.37,1.42-1.36,1.42m-.12-3.9h-3.76v9h3.82c1.36,0,2.83-.35,2.83-2.6.1-.87-.33-1.7-1.1-2.12.51-.5.77-1.19.73-1.9,0-2-1.23-2.36-2.58-2.36" fill="#fff" stroke-width="0"/><path d="m102.48,20.72c-.74,0-1.11-.35-1.11-.94s.37-1,1.36-1.06l1.84-.24v1.06c-.39.79-1.22,1.25-2.09,1.18Zm.12-2.95c-1,.12-2.34.47-2.34,2,0,1.18.87,1.89,2.22,1.89.8.02,1.58-.23,2.22-.71l.12.59h.86l-.12-1.42v-2.82c0-1.42-.86-2.13-2.59-2.13s-2.34.83-2.46,1.66l-.12.35,1.1.12v-.24c.13-.47.37-.83,1.36-.83h.12c1.11,0,1.48.36,1.48,1.19v.23l-1.85.12Z" fill="#fff" stroke-width="0"/><path d="m109.62,15.17c-.73-.02-1.45.23-2,.71l-.12-.59h-.86l.12,1.42v4.84h1v-4.25c.31-.68.97-1.14,1.72-1.18.86,0,1.48.47,1.48,1.18v4.25h1v-4.37c0-1.18-.86-2-2.34-2" fill="#fff" stroke-width="0"/><polygon points="118.49 15.29 117.02 15.29 114.18 18.01 114.18 12.34 113.07 12.34 113.07 21.55 114.18 21.55 114.06 19.43 114.92 18.6 117.51 21.55 118.86 21.55 115.66 18.01 118.49 15.29" fill="#fff" stroke-width="0"/><path d="m121.57,16.12c1.11,0,1.6.59,1.6,1.77h-3.45c.05-.99.86-1.76,1.85-1.77m-2.95,2.24c-.11,1.65,1.15,3.08,2.8,3.18.05,0,.1,0,.15,0,1.48,0,2.47-.59,2.59-1.65l.12-.36-1.11-.12v.24c-.12.59-.61.95-1.6.95-1.03-.02-1.85-.86-1.85-1.89h4.56v-.36c0-2.13-.86-3.19-2.71-3.19-1.66.02-2.98,1.39-2.96,3.04,0,.05,0,.1,0,.15" fill="#fff" stroke-width="0"/><path d="m128.59,16.23l.37.12.13-.94h-.87c-.76-.04-1.49.26-2,.82l-.12-.7h-.86l.12,1.41v4.85h1v-3.9c.15-.9.93-1.55,1.84-1.54.13-.23.25-.12.37-.12" fill="#fff" stroke-width="0"/><path d="m131.55,18.72c1.35.11,1.85.23,1.85.94s-1,1.06-1.73,1.06-1.48-.35-1.6-.94v-.24l-1.11.12.13.36c.34,1.11,1.43,1.81,2.58,1.65,1.73,0,2.84-.71,2.84-2,0-1.54-1.61-1.65-2.59-1.77-1.48-.12-1.6-.24-1.6-.71,0-.95,1.35-.95,1.48-.95.86,0,1.47.36,1.6.95v.24l1-.24v-.35c-.33-1.11-1.42-1.82-2.57-1.67-1.61,0-2.47.71-2.47,1.89-.12,1.42,1.23,1.66,2.22,1.66" fill="#fff" stroke-width="0"/><path d="m97.43,29.59h-2.83l1.48-3.67,1.35,3.67Zm-.86-5.32h-.86l-3.58,9.1h1.11l1.11-2.84h3.57l1.11,2.84h1.11l-3.57-9.1Z" fill="#fff" stroke-width="0"/><path d="m103.1,29.59c-1.48-.12-1.61-.24-1.61-.71,0-.95,1.24-.95,1.48-.95.87,0,1.48.36,1.6.95v.23l1.11-.12v-.35c-.34-1.11-1.43-1.8-2.58-1.64-1.61,0-2.47.7-2.47,1.89,0,1.41,1.48,1.53,2.34,1.65,1.36.12,1.85.24,1.85.95s-1,1.06-1.72,1.06-1.48-.36-1.61-.95v-.23l-1.1.12.12.35c.35,1.11,1.44,1.81,2.59,1.65,1.72,0,2.83-.7,2.83-2-.25-1.54-1.85-1.78-2.83-1.89" fill="#fff" stroke-width="0"/><path d="m109.01,29.59c-1.48-.12-1.6-.24-1.6-.71,0-.95,1.23-.95,1.48-.95.86,0,1.47.36,1.6.95v.23l1.11-.12v-.35c-.35-1.1-1.44-1.8-2.59-1.64-1.6,0-2.46.7-2.46,1.89,0,1.41,1.47,1.53,2.34,1.65,1.35.12,1.84.24,1.84.95s-1,1.06-1.72,1.06-1.48-.36-1.6-.95v-.23l-1.11.12v.35c.35,1.11,1.44,1.81,2.59,1.65,1.72,0,2.83-.7,2.83-2,0-1.54-1.6-1.78-2.71-1.89" fill="#fff" stroke-width="0"/><path d="m115.29,32.54c-1.23,0-1.85-.83-1.85-2.25s.62-2.24,1.85-2.24,1.85.83,1.85,2.24-.74,2.25-1.85,2.25m0-5.55c-1.85,0-3,1.18-3,3.19s1.11,3.19,3,3.19,3-1.19,3-3.19-1.11-3.19-3-3.19" fill="#fff" stroke-width="0"/><path d="m121.83,27.93c.86,0,1.48.36,1.6.95v.23l1.1-.11v-.35c-.35-1.11-1.44-1.81-2.59-1.65-1.66,0-3.01,1.33-3.02,2.98,0,.11,0,.21.02.32-.1,1.65,1.15,3.08,2.8,3.18.07,0,.13,0,.2,0,1.48,0,2.47-.59,2.59-1.65v-.35l-1.11-.12v.23c-.12.59-.62.95-1.6.95s-1.85-.95-1.85-2.25.74-2.36,1.85-2.36" fill="#fff" stroke-width="0"/><rect x="125.64" y="27.1" width="1" height="6.26" fill="#fff" stroke-width="0"/><rect x="125.51" y="24.74" width="1.23" height="1.18" fill="#fff" stroke-width="0"/><path d="m130.07,32.54c-.74,0-1.11-.36-1.11-.95s.37-.94,1.36-1.06l1.85-.24v1.07c-.39.79-1.22,1.26-2.1,1.18Zm3.08-3.43c0-1.42-.86-2.12-2.59-2.12s-2.34.82-2.46,1.65l-.12.35,1.11.12v-.23c.12-.48.37-.83,1.35-.83h.12c1.11,0,1.48.35,1.48,1.18v.24l-1.85.23c-1,.12-2.34.48-2.34,2,0,1.18.87,1.89,2.22,1.89.8.02,1.58-.23,2.22-.71l.12.59h.86l-.12-1.41v-2.95Z" fill="#fff" stroke-width="0"/><path d="m137.59,32.42c-.16.07-.33.11-.5.12-.74,0-1.11-.24-1.11-1.3v-3.19h2v-.95h-2v-1.77l-1,.36v1.41h-1.23v.95h1.23v2.95c0,.95,0,2.48,2.22,2.48.25.03.51-.01.74-.11l.24-.12-.24-1-.35.17Z" fill="#fff" stroke-width="0"/><rect x="138.94" y="24.74" width="1.23" height="1.18" fill="#fff" stroke-width="0"/><rect x="139.06" y="27.1" width="1" height="6.26" fill="#fff" stroke-width="0"/><path d="m144.24,32.54c-1.23,0-1.85-.83-1.85-2.25s.62-2.24,1.85-2.24,1.84.83,1.84,2.24-.61,2.25-1.84,2.25m0-5.55c-1.85,0-3,1.18-3,3.19s1.11,3.19,3,3.19,3-1.19,3-3.19-1.11-3.19-3-3.19" fill="#fff" stroke-width="0"/><path d="m151.13,27c-.73-.03-1.45.22-2,.7l-.12-.59h-.86l.12,1.42v4.85h1v-4.27c.31-.68.97-1.14,1.72-1.18.86,0,1.48.47,1.48,1.18v4.26h1v-4.37c-.05-1.16-1.04-2.06-2.2-2.01-.05,0-.1,0-.15.01" fill="#fff" stroke-width="0"/><path d="m63.56,31.83c-4.07,0-7.39-3.9-7.39-8.62s3.32-8.51,7.39-8.51,7.39,3.78,7.39,8.51-3.45,8.62-7.39,8.62m-14.73-.47c-7.76-1.07-16.14-21-24.15-26.23,5.55-3.78,9.86-.12,12.44,3,4.88,5.51,9.19,14.87,14.61,20.87.37,1.3-2,2.6-2.95,2.37m-30.06.35c-4.06,0-7.39-3.9-7.39-8.62s3.33-8.63,7.39-8.63,7.39,3.9,7.39,8.63-3.28,8.61-7.39,8.61m56.66-9c-.61-8.27-8.87-9.69-12.69-9.45-3.1.21-6.07,1.36-8.49,3.31-4.19-5.3-7.37-13.33-16.14-15.22-5.54-1.07-9.85.59-14.41,3.19C19.58,2.54,15.27.28,8.25,1.7,6.16,2.06,1.11,4.54,0,7c.24.12.86.35,1,.12,1.71-3.12,6.63-4.24,9.96-3.12,3.57,1.13,8.87,7.63,9.87,9.28-4.31-.12-14,.12-14.41,10.16.62,6.15,5.18,9.57,12.69,9.81,6.65-.24,9.36-3.43,11.33-6.85,2.84,3.19,6.78,7,11.09,7.32,6.16.83,8.62-1.54,11.08-3.66,3.82,2.48,5.79,3.54,10.6,3.42,9.62-.59,12.42-6.38,12.17-10.75" fill="#155897" stroke-width="0"/><path d="m157.05,30.18c.91.04,1.61.82,1.57,1.73-.04.91-.82,1.61-1.73,1.57-.88-.04-1.57-.77-1.57-1.65-.04-.87.63-1.61,1.5-1.66.08,0,.15,0,.23,0Zm0,.23c-.78-.04-1.45.56-1.49,1.35s.56,1.45,1.35,1.49,1.45-.56,1.49-1.35c0-.02,0-.05,0-.07.03-.76-.56-1.39-1.32-1.42-.01,0-.02,0-.03,0Zm-.37,2.37h-.25v-1.9h.74c.49,0,.74.12.74.6.02.24-.16.45-.41.47-.03,0-.06,0-.08,0l.61.83h-.37l-.49-.83h-.34v.83h-.15Zm0-1.07h.37c.37,0,.49-.12.49-.35s-.12-.24-.49-.24h-.37v.59Z" fill="#fff" stroke-width="0"/></g></g></g></svg>