<?xml version="1.0" encoding="UTF-8"?><svg id="b" xmlns="http://www.w3.org/2000/svg" viewBox="0 0 252.54 116.43"><g id="c"><g id="d"><g id="e"><path id="f" d="m239.16,40.52c0-3.69,3-6.69,6.69-6.69s6.69,3,6.69,6.69-3,6.69-6.69,6.69-6.69-3-6.69-6.69" fill="#76c92d" stroke-width="0"/><path id="g" d="m25.69,22.8c0-4.24-.82-7.38-2.46-9.43-1.64-2.05-4.13-3.07-7.47-3.07h-3.55v25.93h2.72c3.71,0,6.43-1.1,8.16-3.31,1.73-2.2,2.6-5.58,2.6-10.11m12.67-.44c0,7.72-2.08,13.68-6.23,17.85-4.15,4.18-9.99,6.27-17.51,6.27H0V.19h15.64c7.25,0,12.86,1.9,16.8,5.7,3.95,3.8,5.92,9.28,5.92,16.46" fill="#fff" stroke-width="0"/><path id="h" d="m78.87,46.48h11.63V0h-11.63v46.48" fill="#fff" stroke-width="0"/><path id="i" d="m106.84,29.14c0,2.96.39,5.22,1.16,6.78.77,1.55,2.07,2.33,3.9,2.33s3.08-.78,3.83-2.33c.74-1.55,1.11-3.81,1.11-6.78s-.38-5.17-1.13-6.67c-.75-1.5-2.04-2.26-3.87-2.26s-3.06.75-3.84,2.24c-.77,1.49-1.16,3.72-1.16,6.69m21.84,0c0,5.64-1.48,10.05-4.45,13.21-2.96,3.16-7.12,4.74-12.45,4.74s-9.19-1.62-12.21-4.85c-3.03-3.23-4.54-7.6-4.54-13.1s1.48-10,4.45-13.12c2.97-3.12,7.13-4.68,12.48-4.68,3.31,0,6.24.72,8.78,2.16,2.54,1.44,4.5,3.51,5.88,6.2,1.38,2.69,2.07,5.83,2.07,9.43" fill="#fff" stroke-width="0"/><path id="j" d="m133.3,46.48h11.63V11.95h-11.63v34.52" fill="#fff" stroke-width="0"/><path id="k" d="m133.3,7.78h11.63V0h-11.63v7.78" fill="#fff" stroke-width="0"/><path id="l" d="m168.51,37.67c1.57,0,3.44-.4,5.63-1.19v8.69c-1.57.69-3.06,1.18-4.48,1.48-1.42.3-3.08.44-4.99.44-3.91,0-6.72-.98-8.45-2.94-1.72-1.96-2.59-4.97-2.59-9.03v-14.23h-4.07v-8.93h4.07V3.14l11.72-2.04v10.85h7.42v8.93h-7.42v13.44c0,2.23,1.05,3.35,3.15,3.35" fill="#fff" stroke-width="0"/><path id="m" d="m195.44,37.67c1.57,0,3.44-.4,5.62-1.19v8.69c-1.57.69-3.06,1.18-4.48,1.48-1.42.3-3.08.44-4.99.44-3.91,0-6.72-.98-8.45-2.94-1.73-1.96-2.59-4.97-2.59-9.03v-14.23h-4.08v-8.93h4.08V3.01l11.72-1.91v10.85h7.43v8.93h-7.43v13.44c0,2.23,1.05,3.35,3.15,3.35" fill="#fff" stroke-width="0"/><path id="n" d="m215.75,24.94c.16-1.89.7-3.28,1.62-4.16.93-.88,2.07-1.33,3.44-1.33,1.49,0,2.67.5,3.55,1.49.89.99,1.35,2.33,1.38,3.99h-9.99Zm16.41-9.52c-2.77-2.71-6.69-4.07-11.77-4.07-5.34,0-9.44,1.56-12.32,4.68-2.87,3.12-4.31,7.59-4.31,13.42s1.55,10,4.66,13.06c3.11,3.06,7.47,4.59,13.08,4.59,2.7,0,5.02-.18,6.96-.55,1.93-.36,3.8-1.02,5.62-1.96l-1.79-7.78c-1.32.54-2.57.95-3.76,1.23-1.71.4-3.59.6-5.64.6-2.24,0-4.01-.55-5.31-1.65-1.3-1.1-1.99-2.61-2.07-4.54h20.8v-5.3c0-5.1-1.39-9.01-4.15-11.72" fill="#fff" stroke-width="0"/><path id="o" d="m53.81,24.94c.16-1.89.7-3.28,1.62-4.16.92-.88,2.07-1.33,3.44-1.33,1.49,0,2.67.5,3.55,1.49.88.99,1.34,2.33,1.38,3.99h-10Zm16.41-9.52c-2.77-2.71-6.69-4.07-11.77-4.07-5.34,0-9.44,1.56-12.32,4.68-2.88,3.12-4.32,7.59-4.32,13.42s1.55,10,4.66,13.06c3.1,3.06,7.46,4.59,13.08,4.59,2.7,0,5.02-.18,6.96-.55,1.93-.36,3.8-1.02,5.62-1.96l-1.79-7.78c-1.32.54-2.57.95-3.76,1.23-1.72.4-3.59.6-5.64.6-2.24,0-4.01-.55-5.31-1.65-1.3-1.1-1.99-2.61-2.07-4.54h20.8v-5.3c0-5.1-1.38-9.01-4.15-11.72" fill="#fff" stroke-width="0"/><path id="p" d="m29.87,79.56c0-6.26-1.59-10.97-4.77-14.13-3.18-3.16-7.85-4.74-14.01-4.74H3.05v38.33h7.24c13.06,0,19.58-6.49,19.58-19.46Zm3.32-.12c0,7.34-1.92,12.88-5.77,16.64-3.85,3.76-9.5,5.64-16.95,5.64H0v-43.71h11.81c6.98,0,12.28,1.82,15.92,5.47,3.64,3.65,5.46,8.97,5.46,15.97" fill="#fff" stroke-width="0"/><path id="q" d="m41.97,101.72h-2.96v-32.5h2.96v32.5" fill="#fff" stroke-width="0"/><path id="r" d="m41.97,65.43h-2.96v-4.08h2.96v4.08" fill="#fff" stroke-width="0"/><path id="s" d="m82.83,101.72h-2.96v-32.5h2.96v32.5" fill="#fff" stroke-width="0"/><path id="t" d="m82.83,65.43h-2.96v-4.08h2.96v4.08" fill="#fff" stroke-width="0"/><path id="u" d="m50.84,79.35c0,2.51.76,4.46,2.29,5.85,1.52,1.39,3.56,2.08,6.11,2.08,2.71,0,4.79-.69,6.23-2.06,1.44-1.38,2.17-3.37,2.17-5.98,0-2.77-.74-4.85-2.23-6.23-1.48-1.39-3.56-2.08-6.23-2.08s-4.63.74-6.11,2.23c-1.49,1.48-2.23,3.55-2.23,6.2Zm-2.48,27.87c0,4.46,3.32,6.7,9.96,6.7,8.53,0,12.8-2.72,12.8-8.16,0-1.95-.67-3.37-2-4.25-1.34-.88-3.5-1.32-6.49-1.32h-5.32c-5.96,0-8.94,2.34-8.94,7.03Zm26.31-38v2.06l-6.73.42c1.79,2.23,2.69,4.68,2.69,7.36,0,3.13-1.04,5.67-3.12,7.61-2.08,1.94-4.88,2.92-8.39,2.92-1.48,0-2.51-.06-3.11-.18-1.18.62-2.07,1.35-2.69,2.18-.62.84-.93,1.72-.93,2.66,0,1.04.39,1.79,1.18,2.27.79.48,2.11.72,3.96.72h5.68c3.53,0,6.23.71,8.1,2.14,1.87,1.42,2.81,3.53,2.81,6.32,0,3.43-1.39,6.07-4.17,7.94-2.78,1.86-6.74,2.8-11.88,2.8-4.09,0-7.25-.79-9.49-2.36-2.24-1.58-3.36-3.77-3.36-6.58,0-2.23.69-4.09,2.08-5.56,1.38-1.48,3.26-2.48,5.64-3.02-.98-.42-1.76-1.01-2.35-1.78-.59-.77-.88-1.65-.88-2.65,0-2.17,1.39-4.09,4.16-5.74-1.89-.78-3.37-2-4.43-3.66-1.06-1.66-1.58-3.57-1.58-5.73,0-3.25,1.03-5.86,3.09-7.82,2.06-1.96,4.85-2.95,8.36-2.95,2.13,0,3.79.21,4.96.63h10.41" fill="#fff" stroke-width="0"/><path id="v" d="m118.57,99.62c3.47,0,6.2-.99,8.21-2.98,2-1.98,3.01-4.74,3.01-8.27v-3.2l-5.68.24c-4.57.22-7.82.93-9.76,2.14-1.94,1.21-2.92,3.08-2.92,5.64,0,2.03.62,3.61,1.87,4.74,1.25,1.13,3.01,1.69,5.28,1.69Zm11.96,2.09l-.75-5.14h-.24c-1.63,2.09-3.31,3.57-5.04,4.44-1.72.87-3.76,1.3-6.11,1.3-3.19,0-5.67-.82-7.44-2.45-1.78-1.63-2.66-3.9-2.66-6.79,0-3.17,1.32-5.63,3.96-7.39,2.64-1.75,6.46-2.68,11.47-2.78l6.19-.18v-2.15c0-3.09-.63-5.42-1.88-7-1.26-1.57-3.28-2.36-6.07-2.36-3.01,0-6.13.84-9.36,2.51l-1.11-2.57c3.57-1.67,7.1-2.51,10.58-2.51s6.23.93,8,2.78c1.76,1.85,2.65,4.74,2.65,8.67v21.62h-2.18" fill="#fff" stroke-width="0"/><path id="w" d="m143.99,101.72h-2.96v-46.52h2.96v46.52" fill="#fff" stroke-width="0"/><path id="x" d="m100.46,99.68c1.87,0,3.51-.16,4.9-.48v2.39c-1.44.48-3.09.72-4.96.72-2.87,0-4.99-.77-6.35-2.3-1.37-1.53-2.05-3.95-2.05-7.24v-20.99h-4.81v-2.57h4.81v-7.29l3.02-.57v7.86h9.54v2.57h-9.54v20.57c0,2.49.44,4.34,1.32,5.53.88,1.2,2.25,1.79,4.13,1.79" fill="#fff" stroke-width="0"/></g></g></g></svg>