<?xml version="1.0" encoding="UTF-8"?><svg id="b" xmlns="http://www.w3.org/2000/svg" viewBox="0 0 251.81 137.85"><g id="c"><path d="m128.95,92.39v-.07c0-6.7,5.13-12.38,12.35-12.38,4.17,0,6.74,1.16,9.2,3.25l-2.67,3.18c-1.85-1.57-3.66-2.56-6.71-2.56-4.41,0-7.76,3.87-7.76,8.45v.07c0,4.93,3.25,8.55,8.14,8.55,2.26,0,4.31-.72,5.78-1.81v-4.48h-6.12v-3.66h10.19v10.06c-2.36,2.02-5.75,3.73-9.99,3.73-7.48,0-12.41-5.35-12.41-12.33h0Z" fill="#fff" stroke-width="0"/><path d="m155.52,86.24h4.14v4.07c1.13-2.7,3.21-4.55,6.4-4.41v4.38h-.24c-3.63,0-6.16,2.36-6.16,7.15v6.87h-4.14v-18.06h0Z" fill="#fff" stroke-width="0"/><path d="m180.59,94c-.27-2.67-1.85-4.75-4.58-4.75-2.53,0-4.31,1.95-4.69,4.75h9.27Zm-13.38,1.34v-.07c0-5.17,3.66-9.41,8.82-9.41,5.75,0,8.65,4.52,8.65,9.71,0,.38-.03.75-.07,1.16h-13.27c.45,2.94,2.53,4.58,5.2,4.58,2.02,0,3.45-.75,4.89-2.15l2.43,2.15c-1.71,2.05-4.07,3.39-7.39,3.39-5.22.01-9.26-3.79-9.26-9.36h0Z" fill="#fff" stroke-width="0"/><path d="m199.19,96.74c-1.06-.41-2.53-.72-4.14-.72-2.6,0-4.14,1.06-4.14,2.81v.07c0,1.71,1.54,2.67,3.49,2.67,2.73,0,4.79-1.54,4.79-3.8v-1.03h0Zm-.11,7.56v-2.22c-1.23,1.47-3.11,2.6-5.85,2.6-3.42,0-6.43-1.95-6.43-5.57v-.07c0-4,3.11-5.92,7.32-5.92,2.19,0,3.59.31,4.99.75v-.34c0-2.5-1.57-3.87-4.44-3.87-2.02,0-3.52.45-5.17,1.13l-1.13-3.32c1.98-.89,3.93-1.5,6.87-1.5,5.34,0,7.94,2.81,7.94,7.63v10.7h-4.1Z" fill="#fff" stroke-width="0"/><path d="m207.97,99.3v-9.51h-2.29v-3.56h2.29v-4.96h4.14v4.96h4.86v3.56h-4.86v8.86c0,1.61.82,2.26,2.22,2.26.92,0,1.74-.21,2.57-.62v3.39c-1.03.58-2.19.92-3.73.92-3.05,0-5.2-1.33-5.2-5.3h0Z" fill="#fff" stroke-width="0"/><path d="m232.18,94c-.27-2.67-1.85-4.75-4.58-4.75-2.53,0-4.31,1.95-4.69,4.75h9.27Zm-13.37,1.34v-.07c0-5.17,3.66-9.41,8.82-9.41,5.75,0,8.66,4.52,8.66,9.71,0,.38-.04.75-.07,1.16h-13.27c.45,2.94,2.53,4.58,5.2,4.58,2.02,0,3.45-.75,4.89-2.15l2.43,2.15c-1.71,2.05-4.07,3.39-7.39,3.39-5.24.01-9.27-3.79-9.27-9.36h0Z" fill="#fff" stroke-width="0"/><path d="m239.63,86.24h4.14v4.07c1.13-2.7,3.21-4.55,6.4-4.41v4.38h-.24c-3.63,0-6.16,2.36-6.16,7.15v6.87h-4.14v-18.06h0Z" fill="#fff" stroke-width="0"/><polygon points="135.9 116.3 128.3 116.3 128.3 112.41 147.73 112.41 147.73 116.3 140.14 116.3 140.14 136.35 135.9 136.35 135.9 116.3" fill="#fff" stroke-width="0"/><path d="m160.69,127.42v-.07c0-3.18-2.29-5.81-5.54-5.81s-5.44,2.6-5.44,5.74v.07c0,3.15,2.29,5.82,5.51,5.82,3.35,0,5.47-2.63,5.47-5.75h0Zm-15.12,0v-.07c0-5.16,4.1-9.44,9.65-9.44s9.61,4.21,9.61,9.37v.07c0,5.13-4.1,9.41-9.68,9.41-5.51,0-9.58-4.21-9.58-9.34h0Z" fill="#fff" stroke-width="0"/><path d="m167.79,118.29h4.14v4.07c1.13-2.7,3.22-4.55,6.4-4.41v4.38h-.24c-3.63,0-6.16,2.36-6.16,7.15v6.87h-4.14v-18.06h0Z" fill="#fff" stroke-width="0"/><path d="m194.19,127.42v-.07c0-3.18-2.29-5.81-5.54-5.81s-5.44,2.6-5.44,5.74v.07c0,3.15,2.29,5.82,5.51,5.82,3.36,0,5.47-2.63,5.47-5.75h0Zm-15.11,0v-.07c0-5.16,4.1-9.44,9.65-9.44s9.61,4.21,9.61,9.37v.07c0,5.13-4.1,9.41-9.68,9.41-5.51,0-9.58-4.21-9.58-9.34h0Z" fill="#fff" stroke-width="0"/><path d="m201.3,118.29h4.14v2.81c1.16-1.71,2.84-3.18,5.64-3.18,4.07,0,6.43,2.74,6.43,6.94v11.49h-4.14v-10.26c0-2.81-1.4-4.41-3.87-4.41s-4.07,1.68-4.07,4.48v10.19h-4.14v-18.06h.01Z" fill="#fff" stroke-width="0"/><path d="m222.12,131.35v-9.51h-2.29v-3.56h2.29v-4.96h4.14v4.96h4.86v3.56h-4.86v8.86c0,1.61.82,2.26,2.22,2.26.92,0,1.74-.2,2.57-.62v3.39c-1.03.58-2.19.92-3.73.92-3.04,0-5.2-1.33-5.2-5.3h0Z" fill="#fff" stroke-width="0"/><path d="m247.67,127.42v-.07c0-3.18-2.29-5.81-5.54-5.81s-5.44,2.6-5.44,5.74v.07c0,3.15,2.29,5.82,5.51,5.82,3.35,0,5.47-2.63,5.47-5.75h0Zm-15.12,0v-.07c0-5.16,4.11-9.44,9.65-9.44s9.61,4.21,9.61,9.37v.07c0,5.13-4.1,9.41-9.68,9.41-5.51,0-9.58-4.21-9.58-9.34h0Z" fill="#fff" stroke-width="0"/><path d="m92.37,133.47h1c.65,0,1.07-.12,1.07-.74,0-.54-.43-.69-1.07-.69h-1v1.43h0Zm-.84-2.03h1.99c1.17,0,1.76.43,1.76,1.32,0,.76-.53,1.3-1.33,1.3l1.48,2.1h-.9l-1.42-2.1h-.73v2.1h-.84v-4.72h-.01Zm1.69,5.69c2.01,0,3.57-1.42,3.57-3.32s-1.56-3.31-3.57-3.31-3.59,1.41-3.59,3.31c0,1.89,1.57,3.32,3.59,3.32m0-7.36c2.44,0,4.41,1.81,4.41,4.04s-1.97,4.04-4.41,4.04-4.42-1.81-4.42-4.04c0-2.23,1.97-4.04,4.42-4.04" fill="#8b0e04" stroke-width="0"/><path d="m81.91,74.53L40.89,3.81c-1.42-2.62-3.93-3.71-6.12-3.71H1.89C.85.1,0,.95,0,2c0,.37.13.69.31.98l42.09,71.9c1.13,1.81,1.78,3.95,1.78,6.24,0,0,.02,53.38.02,53.41,0,1.7,1.38,3.05,3.08,3.05h33.55c1.7,0,3.07-1.41,3.07-3.11l.02-53.64c.01-2.36-.85-4.46-2.01-6.3h0Z" fill="#8b0e04" stroke-width="0"/><path d="m128.22,2.5c0-1.38-1.12-2.5-2.5-2.5H52.46c-1.38,0-2.5,1.12-2.5,2.5,0,.45.13.86.33,1.22l36.62,63.4c.42.78,1.24,1.32,2.19,1.32s1.72-.51,2.16-1.25L127.87,3.79c.21-.39.35-.82.35-1.29h0Zm-25.49,14.05h0l-12.97,22.47h0c-.13.23-.38.38-.66.38s-.53-.16-.67-.39h0l-12.98-22.48h0c-.06-.11-.1-.24-.1-.37,0-.43.35-.77.77-.77h25.95c.43,0,.77.35.77.77,0,.14-.04.27-.11.39h0Z" fill="#ef3e42" stroke-width="0"/></g></svg>