<svg id="Layer_1" data-name="Layer 1" xmlns="http://www.w3.org/2000/svg" viewBox="0 0 159 34"><defs><style>.cls-1{fill:#505050;}.cls-2{fill:#155897;}</style></defs><title>ABA Logo</title><g id="Symbols"><g id="logo"><rect id="Rectangle-path" class="cls-1" x="83" width="2" height="33"/><path id="Shape" class="cls-1" d="M97.06,1.64l1.36,3.62H95.58ZM96.57,0,93,9h1.11l1.11-2.81h3.56L99.89,9H101L97.43.12h-.86Z"/><path class="cls-1" d="M108.56,5.48V9.74h1V5.37a2,2,0,0,0-2.1-2,2.63,2.63,0,0,0-2,.94,2,2,0,0,0-1.84-.94,2.74,2.74,0,0,0-1.85.71l-.13-.6h-.86l.13,1.42V9.74h1V5.48a2,2,0,0,1,1.6-1.18c.86,0,1.23.36,1.23,1.18V9.74h1V5.48a2,2,0,0,1,1.6-1.18,1.08,1.08,0,0,1,1.23,1.18"/><path class="cls-1" d="M113.37,4.3c1.11,0,1.6.59,1.6,1.77h-3.45c.25-1.06.86-1.77,1.85-1.77m0,5.55c1.47,0,2.46-.59,2.58-1.65V8l-1.11-.11v.23c-.12.59-.61.95-1.6.95a1.88,1.88,0,0,1-1.84-1.89H116V6.55c0-2.13-.86-3.19-2.71-3.19a3,3,0,0,0-2.95,3.19c.12,2,1.35,3.3,3.08,3.3"/><path class="cls-1" d="M117.19,9.74h1V5.84A1.75,1.75,0,0,1,120,4.3h.37l.37.12.12-.95H120a2.5,2.5,0,0,0-2,.83l-.13-.71h-.86L117.19,5Z"/><rect class="cls-1" x="121.62" y="3.47" width="1" height="6.26"/><rect class="cls-1" x="121.5" y="1.11" width="1.23" height="1.18"/><path class="cls-1" d="M126.79,9.85c1.48,0,2.47-.59,2.59-1.65V8l-1-.23V8c-.12.6-.61,1-1.6,1S125,8,125,6.66s.73-2.24,1.84-2.24c.87,0,1.48.35,1.6,1V5.6l1.11-.12V5.13a2.37,2.37,0,0,0-2.58-1.66,3,3,0,0,0-3,3.19,2.73,2.73,0,0,0,2.83,3.19"/><path class="cls-1" d="M132.34,8.91c-.74,0-1.11-.35-1.11-1s.37-.94,1.35-1.06l1.85-.24V7.73A2.26,2.26,0,0,1,132.34,8.91ZM132.46,6c-1,.11-2.34.47-2.34,2,0,1.19.86,1.89,2.22,1.89a3.52,3.52,0,0,0,2.21-.7l.13.59h.86l-.12-1.42V5.6c0-1.42-.87-2.13-2.59-2.13s-2.34.83-2.47,1.66l-.12.35,1.11.12V5.37c.12-.48.37-.83,1.36-.83h.12c1.11,0,1.48.35,1.48,1.18V6Z"/><path class="cls-1" d="M141.82,9.74V5.37a2.11,2.11,0,0,0-2.34-2,2.82,2.82,0,0,0-2,.71l-.12-.6h-.87l.13,1.42V9.74h1V5.48a2,2,0,0,1,1.73-1.18c.86,0,1.47.47,1.47,1.18V9.74Z"/><path class="cls-1" d="M97.11,20.61h-3V17.42h3c1.11,0,1.48.47,1.48,1.53,0,1.42-.74,1.66-1.48,1.66m-.25-4.14H94V13.52h3c.74,0,1.24.23,1.24,1.53.12.95-.37,1.42-1.36,1.42m-.12-3.9H93v9h3.82c1.36,0,2.83-.35,2.83-2.6a2.13,2.13,0,0,0-1.1-2.12,2.47,2.47,0,0,0,.73-1.9c0-2-1.23-2.36-2.58-2.36"/><path class="cls-1" d="M102.65,20.72c-.74,0-1.11-.35-1.11-.94s.37-1,1.36-1.06l1.84-.24v1.06A2.13,2.13,0,0,1,102.65,20.72Zm.12-2.95c-1,.12-2.34.47-2.34,2,0,1.18.87,1.89,2.22,1.89a3.57,3.57,0,0,0,2.22-.71l.12.59h.86l-.12-1.42V17.3c0-1.42-.86-2.13-2.59-2.13s-2.34.83-2.46,1.66l-.12.35,1.1.12v-.24c.13-.47.37-.83,1.36-.83h.12c1.11,0,1.48.36,1.48,1.19v.23Z"/><path class="cls-1" d="M109.79,15.17a2.91,2.91,0,0,0-2,.71l-.12-.59h-.86l.12,1.42v4.84h1V17.3a2,2,0,0,1,1.72-1.18c.86,0,1.48.47,1.48,1.18v4.25h1V17.18c0-1.18-.86-2-2.34-2"/><polygon class="cls-1" points="118.66 15.29 117.19 15.29 114.35 18.01 114.35 12.34 113.24 12.34 113.24 21.55 114.35 21.55 114.23 19.43 115.09 18.6 117.68 21.55 119.03 21.55 115.83 18.01 118.66 15.29"/><path class="cls-1" d="M121.74,16.12c1.11,0,1.6.59,1.6,1.77h-3.45a1.87,1.87,0,0,1,1.85-1.77m-2.95,2.24a3,3,0,0,0,2.95,3.19c1.48,0,2.47-.59,2.59-1.65l.12-.36-1.11-.12v.24c-.12.59-.61.95-1.6.95a1.89,1.89,0,0,1-1.85-1.89h4.56v-.36c0-2.13-.86-3.19-2.71-3.19a3,3,0,0,0-2.95,3.19"/><path class="cls-1" d="M128.76,16.23l.37.12.13-.94h-.87a2.52,2.52,0,0,0-2,.82l-.12-.7h-.86l.12,1.41v4.85h1v-3.9a1.85,1.85,0,0,1,1.84-1.54c.13-.23.25-.12.37-.12"/><path class="cls-1" d="M131.72,18.72c1.35.11,1.85.23,1.85.94s-1,1.06-1.73,1.06-1.48-.35-1.6-.94v-.24l-1.11.12.13.36a2.36,2.36,0,0,0,2.58,1.65c1.73,0,2.84-.71,2.84-2,0-1.54-1.61-1.65-2.59-1.77-1.48-.12-1.6-.24-1.6-.71,0-.95,1.35-.95,1.48-.95.86,0,1.47.36,1.6.95v.24l1-.24v-.35A2.36,2.36,0,0,0,132,15.17c-1.61,0-2.47.71-2.47,1.89-.12,1.42,1.23,1.66,2.22,1.66"/><path class="cls-1" d="M97.6,29.59H94.77l1.48-3.67Zm-.86-5.32h-.86l-3.58,9.1h1.11l1.11-2.84h3.57l1.11,2.84h1.11Z"/><path class="cls-1" d="M103.27,29.59c-1.48-.12-1.61-.24-1.61-.71,0-.95,1.24-.95,1.48-.95.87,0,1.48.36,1.6.95v.23l1.11-.12v-.35A2.36,2.36,0,0,0,103.27,27c-1.61,0-2.47.7-2.47,1.89,0,1.41,1.48,1.53,2.34,1.65,1.36.12,1.85.24,1.85.95s-1,1.06-1.72,1.06-1.48-.36-1.61-.95v-.23l-1.1.12.12.35a2.38,2.38,0,0,0,2.59,1.65c1.72,0,2.83-.7,2.83-2-.25-1.54-1.85-1.78-2.83-1.89"/><path class="cls-1" d="M109.18,29.59c-1.48-.12-1.6-.24-1.6-.71,0-.95,1.23-.95,1.48-.95.86,0,1.47.36,1.6.95v.23l1.11-.12v-.35A2.38,2.38,0,0,0,109.18,27c-1.6,0-2.46.7-2.46,1.89,0,1.41,1.47,1.53,2.34,1.65,1.35.12,1.84.24,1.84.95s-1,1.06-1.72,1.06-1.48-.36-1.6-.95v-.23l-1.11.12v.35a2.38,2.38,0,0,0,2.59,1.65c1.72,0,2.83-.7,2.83-2,0-1.54-1.6-1.78-2.71-1.89"/><path class="cls-1" d="M115.46,32.54c-1.23,0-1.85-.83-1.85-2.25s.62-2.24,1.85-2.24,1.85.83,1.85,2.24-.74,2.25-1.85,2.25m0-5.55c-1.85,0-3,1.18-3,3.19s1.11,3.19,3,3.19,3-1.19,3-3.19-1.11-3.19-3-3.19"/><path class="cls-1" d="M122,27.93c.86,0,1.48.36,1.6.95v.23L124.7,29v-.35A2.38,2.38,0,0,0,122.11,27a3,3,0,0,0-3,3.3,3,3,0,0,0,3,3.19c1.48,0,2.47-.59,2.59-1.65v-.35l-1.11-.12v.23c-.12.59-.62.95-1.6.95s-1.85-.95-1.85-2.25.74-2.36,1.85-2.36"/><rect class="cls-1" x="125.81" y="27.1" width="1" height="6.26"/><rect class="cls-1" x="125.68" y="24.74" width="1.23" height="1.18"/><path class="cls-1" d="M130.24,32.54c-.74,0-1.11-.36-1.11-.95s.37-.94,1.36-1.06l1.85-.24v1.07A2.14,2.14,0,0,1,130.24,32.54Zm3.08-3.43c0-1.42-.86-2.12-2.59-2.12s-2.34.82-2.46,1.65l-.12.35,1.11.12v-.23c.12-.48.37-.83,1.35-.83h.12c1.11,0,1.48.35,1.48,1.18v.24l-1.85.23c-1,.12-2.34.48-2.34,2,0,1.18.87,1.89,2.22,1.89a3.51,3.51,0,0,0,2.22-.71l.12.59h.86l-.12-1.41Z"/><path class="cls-1" d="M137.76,32.42a1.33,1.33,0,0,1-.5.12c-.74,0-1.11-.24-1.11-1.3V28.05h2V27.1h-2V25.33l-1,.36V27.1h-1.23v.95h1.23V31c0,.95,0,2.48,2.22,2.48a1.5,1.5,0,0,0,.74-.11l.24-.12-.24-1Z"/><rect class="cls-1" x="139.11" y="24.74" width="1.23" height="1.18"/><rect class="cls-1" x="139.23" y="27.1" width="1" height="6.26"/><path class="cls-1" d="M144.41,32.54c-1.23,0-1.85-.83-1.85-2.25s.62-2.24,1.85-2.24,1.84.83,1.84,2.24-.61,2.25-1.84,2.25m0-5.55c-1.85,0-3,1.18-3,3.19s1.11,3.19,3,3.19,3-1.19,3-3.19-1.11-3.19-3-3.19"/><path class="cls-1" d="M151.3,27a2.9,2.9,0,0,0-2,.7l-.12-.59h-.86l.12,1.42v4.85h1V29.11a2,2,0,0,1,1.72-1.18c.86,0,1.48.47,1.48,1.18v4.26h1V29a2.11,2.11,0,0,0-2.35-2"/><path class="cls-2" d="M63.73,31.83c-4.07,0-7.39-3.9-7.39-8.62s3.32-8.51,7.39-8.51,7.39,3.78,7.39,8.51-3.45,8.62-7.39,8.62M49,31.36c-7.76-1.07-16.14-21-24.15-26.23,5.55-3.78,9.86-.12,12.44,3C42.17,13.64,46.48,23,51.9,29c.37,1.3-2,2.6-2.95,2.37m-30.06.35c-4.06,0-7.39-3.9-7.39-8.62s3.33-8.63,7.39-8.63,7.39,3.9,7.39,8.63S23,31.71,18.89,31.71m56.66-9c-.61-8.27-8.87-9.69-12.69-9.45a15.15,15.15,0,0,0-8.49,3.31C50.18,11.27,47,3.24,38.23,1.35c-5.54-1.07-9.85.59-14.41,3.19-4.07-2-8.38-4.26-15.4-2.84C6.33,2.06,1.28,4.54.17,7c.24.12.86.35,1,.12C2.88,4,7.8,2.88,11.13,4,14.7,5.13,20,11.63,21,13.28c-4.31-.12-14,.12-14.41,10.16.62,6.15,5.18,9.57,12.69,9.81,6.65-.24,9.36-3.43,11.33-6.85,2.84,3.19,6.78,7,11.09,7.32,6.16.83,8.62-1.54,11.08-3.66,3.82,2.48,5.79,3.54,10.6,3.42C73,32.89,75.8,27.1,75.55,22.73"/><path class="cls-1" d="M157.22,30.18a1.65,1.65,0,1,1-1.73,1.65A1.58,1.58,0,0,1,157.22,30.18Zm0,.23a1.42,1.42,0,1,0,1.35,1.42A1.37,1.37,0,0,0,157.22,30.41Zm-.37,2.37h-.25v-1.9h.74c.49,0,.74.12.74.6a.44.44,0,0,1-.49.47l.61.83h-.37l-.49-.83H157v.83Zm0-1.07h.37c.37,0,.49-.12.49-.35s-.12-.24-.49-.24h-.37Z"/></g></g></svg>