<?xml version="1.0" encoding="UTF-8"?><svg id="Layer_2" xmlns="http://www.w3.org/2000/svg" viewBox="0 0 430.98 151.41"><defs><style>.cls-1{fill:#747577;}</style></defs><g id="Layer_1-2"><g vector-effect="non-scaling-stroke"><path class="cls-1" d="M11.98,144.06c-.14-.27-.27-.54-.54-.82s-.54-.54-.68-.68c-.27-.14-.54-.41-.82-.68-.41-.14-.68-.41-.82-.54l-.95-.41c-.27-.27-.54-.41-.68-.54s-.41-.27-.68-.41c-.27-.14-.54-.27-.68-.41-.14-.14-.41-.27-.68-.41-.27-.27-.54-.41-.68-.54s-.27-.27-.54-.54c-.14-.14-.27-.41-.27-.54-.14-.14-.27-.41-.27-.68s-.14-.54-.14-.82c0-.41,0-.68,.14-1.09,.14-.27,.27-.54,.54-.82,.14-.41,.54-.54,.95-.82,.41-.14,.82-.27,1.36-.27,.41,0,.82,.14,1.22,.27,.41,.14,.82,.41,1.09,.68s.54,.68,.82,.95c.27,.41,.41,.68,.54,1.09,.14,.41,.14,.68,.27,.95h0c.14,.14,.54,.14,.82,0,.27-.14,.27-.27,.27-.41-.14-1.9-.27-3.26-.41-4.08v-.14h-.14c-.27,.14-.68,.14-1.09,0-.54-.14-.82-.27-1.09-.27-.27-.14-.54-.14-.95-.14s-.82-.14-1.22-.14c-.95,0-1.9,.27-2.72,.68s-1.63,.95-2.18,1.77c-.54,.82-.82,1.77-.82,2.72,0,.27,0,.68,.14,.95s.14,.54,.27,.82c.14,.27,.27,.54,.54,.82,.14,.27,.27,.41,.41,.68,.14,.14,.41,.41,.68,.54l.68,.54c.27,.14,.41,.27,.82,.54,.41,.27,.68,.41,.82,.54s.41,.27,.68,.41c.27,.14,.41,.27,.82,.41,.27,.14,.54,.27,.68,.41,.14,0,.41,.14,.54,.27,.27,.27,.54,.41,.68,.41,.14,.14,.27,.27,.41,.41,.14,.27,.27,.41,.41,.68,.14,.14,.14,.41,.27,.68,0,.27,.14,.54,.14,.82,0,1.09-.27,1.9-.95,2.45-.82,.54-1.63,.82-2.45,.82-.68,0-1.22-.14-1.77-.41-.54-.14-.95-.41-1.22-.82-.27-.27-.54-.68-.82-1.09s-.54-.82-.68-1.09c-.14-.27-.14-.54-.27-.82,0-.27-.14-.41-.41-.41s-.54,.14-.82,.41H.56c0,.27,0,.82,.14,1.9,.14,.95,.27,1.9,.41,2.58v.14h.14c.14,0,.54,.14,1.09,.27,.54,.14,.95,.27,1.36,.27,.41,.14,.82,.14,1.36,.14s.95,.14,1.5,.14c.82,0,1.5-.14,2.31-.41,.68-.27,1.36-.68,1.9-1.09s1.09-1.09,1.36-1.77,.54-1.36,.54-2.18c0-.41,0-.68-.14-1.09-.27-.27-.41-.54-.54-.82Z" vector-effect="non-scaling-stroke"/><path class="cls-1" d="M39.56,146.06c-.27,0-.54,.14-.54,.27-.27,.68-.54,1.36-.82,1.77-.27,.41-.54,.82-.95,1.09-.27,.14-.82,.41-1.5,.54s-1.36,.14-2.04,.14h-2.72c-.27,0-.41-.14-.54-.27,0,0-.14-.14-.14-.68v-6.66h1.9c2.31,0,2.86,.14,2.99,.27s.27,.27,.27,.41c.14,0,.27,.41,.41,1.36,0,.14,.14,.27,.54,.27,.27,0,.41,0,.54-.14h0v-5.58h0c0-.14-.27-.27-.54-.27-.41,0-.41,.27-.54,.27v.27c-.14,.27-.14,.54-.14,.82-.14,.14-.14,.27-.27,.41-.14,.14-.14,.27-.27,.27,0,0-.14,.14-.41,.14-.27,.14-.54,.14-.82,.14h-3.81v-5.3c0-.95,0-1.63,.14-2.04,0,0,.14-.27,1.9-.27h2.45c.82,0,1.5,.14,2.04,.54s.95,1.09,1.22,2.04c0,.14,.14,.27,.54,.27,.27,0,.54,0,.54-.14h0v-.14c0-.27-.14-.82-.41-1.77-.14-.82-.27-1.5-.27-2.04v-.14h-.14c-1.09,0-2.58,0-4.76,.14h-4.49c-.27,0-1.36,0-3.4-.14h0c-.14,.14-.14,.41-.14,.54,0,.27,0,.41,.14,.54h0c.27,0,.68,0,1.09,.14,.68,.14,.82,.27,.82,.27,.14,.27,.14,.95,.14,2.04v12.24c0,1.09,0,1.77-.14,2.04,0,0,0,.14-.68,.27-.54,.14-.82,.14-1.09,.14h0c-.14,.14-.14,.27-.14,.54s0,.41,.14,.54h13.33v-.14c0-.27,.14-.68,.27-1.09,.14-.41,.27-.82,.41-1.09,.14-.27,.27-.82,.54-1.36-.14-.54,.14-.95,.14-1.09v-.14h0c-.14-.27-.41-.27-.82-.27Z" vector-effect="non-scaling-stroke"/><path class="cls-1" d="M73.02,131.91h-1.09c-.27,.14-.68,.14-.95,.14h-1.09c-.27,0-1.36,0-3.26-.14h-.14v.54c0,.27,0,.41,.14,.54h.14c.27,0,.68,0,1.22,.14,.68,.27,.82,.41,.82,.41,.14,.14,.14,.41,.27,.68v11.56c-1.22-1.5-3.13-3.94-5.85-7.21-2.99-3.67-4.62-5.85-5.17-6.53h-3.81c-.68,0-1.09-.14-1.36-.14h-.14v.14c-.14,.27-.14,.54,0,.95v.14h.14c.27,0,.68,0,1.22,.14,.68,0,.82,.14,.95,.27,.14,.14,.14,.41,.27,.68v14.82c0,.27-.14,.41-.27,.68,0,0-.14,.14-.82,.27-.54,.14-.95,.14-1.22,.14h-.14v.14c-.14,.41-.14,.68,0,.95v.14h3.26c0-.27,1.09-.27,2.99-.14h.14v-.14c0-.14,.14-.27,0-.41,0-.27,0-.41-.14-.54h-.14c-.27,0-.68,0-1.22-.14-.54-.27-.68-.41-.68-.41-.14-.14-.14-.41-.27-.68v-13.74l12.24,15.37c.14,.27,.41,.41,.54,.54,.27,.14,.41,.14,.54,.14,.41,0,.54-.14,.54-.27v-16.73c0-.27,.14-.41,.27-.68,0,0,.14-.14,.95-.27,.54-.14,.95-.14,1.22-.14h.14v-.14c0-.41,0-.68-.27-1.09h0Z" vector-effect="non-scaling-stroke"/><path class="cls-1" d="M90.71,133.42s0-.14,.68-.27c.54,0,.95-.14,1.22-.14h0c.14-.14,.14-.27,.14-.54s0-.41-.14-.54h0c-2.04,.14-3.13,.14-3.4,.14s-1.36,0-3.4-.14h0c-.14,.14-.14,.27-.14,.54s0,.41,.14,.54h0c.27,0,.68,0,1.09,.14,.68,.14,.82,.27,.82,.27,.14,.27,.14,.95,.14,2.04v12.24c0,1.09,0,1.77-.14,2.04,0,0,0,.14-.68,.27-.54,0-.95,.14-1.22,.14h0c-.14,.14-.14,.27-.14,.54s0,.41,.14,.54h0c2.04-.14,3.13-.14,3.4-.14s1.36,0,3.4,.14h0c.14-.14,.14-.27,.14-.54s0-.41-.14-.54h0c-.27,0-.68,0-1.09-.14-.68-.14-.82-.27-.82-.27-.14-.27-.14-.95-.14-2.04v-12.24c0-1.09,0-1.77,.14-2.04Z" vector-effect="non-scaling-stroke"/><path class="cls-1" d="M120.99,134.53c-.95-.82-1.9-1.5-3.13-2.04-2.18-.95-4.9-.95-7.21,.14-1.09,.54-2.18,1.22-2.99,2.04-.82,.82-1.5,1.9-2.04,3.13-.41,1.22-.68,2.45-.68,3.81s.27,2.72,.82,3.94c.41,1.22,1.09,2.31,1.9,3.13,.82,.82,1.9,1.5,2.99,2.04,1.22,.41,2.31,.68,3.67,.68,1.22,0,2.45-.27,3.67-.82,1.09-.54,2.18-1.22,2.99-2.04,.82-.82,1.5-1.9,2.04-3.13,.41-1.22,.68-2.45,.68-3.81s-.27-2.72-.82-3.94c-.41-1.22-1.09-2.31-1.9-3.13Zm-6.26,15.64c-1.09,0-2.04-.27-2.86-.82s-1.63-1.22-2.18-2.18c-.54-.82-.95-1.77-1.22-2.86-.27-1.09-.41-2.18-.41-3.26,0-.82,.14-1.5,.14-2.31,.14-.82,.41-1.5,.68-2.18s.68-1.36,1.09-1.77c.41-.54,1.09-.95,1.63-1.36,.68-.27,1.36-.41,2.18-.41,1.09,0,2.04,.27,2.86,.82s1.63,1.22,2.18,2.04c.54,.82,.95,1.9,1.36,2.99,.27,1.09,.41,2.18,.41,3.26,0,.82-.14,1.5-.27,2.31,0,.82-.27,1.5-.54,2.18s-.68,1.36-1.09,1.77c-.54,.54-1.09,.95-1.77,1.36-.68,.27-1.36,.41-2.18,.41Z" vector-effect="non-scaling-stroke"/><path class="cls-1" d="M152.8,150.16h0c-.82,0-1.36-.27-1.9-.41-.41-.41-.95-.82-1.36-1.36-1.77-2.31-3.26-4.49-4.49-6.53,.95-.27,1.9-.95,2.58-1.77,.82-.95,1.22-1.9,1.22-2.99,0-.82-.14-1.5-.54-2.18-.27-.68-.82-1.22-1.36-1.63-.68-.41-1.22-.68-1.9-.95-.68-.14-1.36-.27-2.04-.27h-4.08c-.27,0-1.36,0-3.4-.14h0c-.14,.14-.27,.27-.27,.54s0,.41,.14,.54h0c.27,0,.68,0,1.09,.14,.82,.14,.82,.27,.82,.27,.14,.27,.14,.95,.14,2.04v12.24c0,1.5-.14,1.9-.14,2.04,0,0,0,.14-.68,.27-.54,.14-.82,.14-1.09,.14h-.14c-.14,.14-.14,.27-.14,.54s0,.41,.14,.54h0c2.18-.14,3.26-.14,3.54-.14s1.36,0,3.4,.14h0c.14-.14,.14-.41,.14-.54,0-.27,0-.41-.14-.54h-.14c-.27,0-.68,0-1.09-.14-.68-.14-.68-.27-.68-.27-.14-.27-.14-.95-.14-2.04v-5.17h1.36c.41,0,.68,.14,.68,.27,.95,1.36,1.77,2.72,2.72,4.08,.95,1.5,1.63,2.31,1.9,2.72,.14,.14,.27,.27,.41,.41,.41,.41,.82,.68,1.5,.82,.68,.27,1.9,.41,3.81,.41h.14v-.14c0-.14,.14-.14,.14-.41,0-.27,0-.41-.14-.54h0Zm-6.8-12.78c0,1.09-.54,2.18-1.36,2.86s-1.9,1.09-2.99,1.09h-1.36v-5.85c0-1.5,.14-1.9,.14-2.04,0,0,.14-.14,1.36-.14,1.5,0,2.58,.41,3.26,1.09,.54,.68,.95,1.77,.95,2.99Z" vector-effect="non-scaling-stroke"/><path class="cls-1" d="M197.15,146.08c-.27,0-.54,.14-.54,.27-.41,1.36-.95,2.31-1.77,2.86-.27,.14-.82,.41-1.36,.54-.68,0-1.22,.14-1.9,.14h-2.99c-.27-.14-.41-.14-.54-.27,0,0-.14-.27-.14-1.9v-12.24c0-1.09,0-1.77,.14-2.04,0,0,0-.14,.68-.27,.54-.14,.82-.14,1.09-.14h0c.14-.14,.14-.27,.14-.54s0-.41-.14-.54h0c-1.9,.14-2.99,.14-3.26,.14s-1.36,0-3.4-.14h0c-.14,.14-.14,.27-.14,.54s0,.41,.14,.54h0c.27,0,.68,0,1.09,.14,.68,.14,.82,.27,.82,.27,.14,.27,.14,.95,.14,2.04v12.24c0,1.09,0,1.77-.14,2.04,0,0,0,.14-.68,.27-.54,.14-.82,.14-1.09,.14h0c-.14,.14-.14,.27-.14,.54s0,.41,.14,.54h13.33v-.14c0-.27,.14-.68,.27-1.09,.14-.41,.27-.82,.41-1.09,.14-.27,.27-.82,.54-1.36-.14-.54,.14-.95,.14-1.22v-.14h0c-.14-.14-.41-.14-.82-.14Z" vector-effect="non-scaling-stroke"/><path class="cls-1" d="M214.81,133.42s0-.14,.68-.27c.54,0,.95-.14,1.22-.14h0c.14-.14,.14-.27,.14-.54s0-.41-.14-.54h0c-2.04,.14-3.13,.14-3.4,.14s-1.36,0-3.4-.14h0c-.14,.14-.14,.27-.14,.54s0,.41,.14,.54h0c.27,0,.68,0,1.09,.14,.68,.14,.82,.27,.82,.27,0,.27,.14,.95,.14,2.04v12.24c0,1.09,0,1.77-.14,2.04,0,0,0,.14-.68,.27-.54,0-.95,.14-1.22,.14h0c-.14,.14-.14,.27-.14,.54s0,.41,.14,.54h0c2.04-.14,3.13-.14,3.4-.14s1.36,0,3.4,.14h0c.14-.14,.14-.27,.14-.54s0-.41-.14-.54h0c-.27,0-.68,0-1.09-.14-.82-.14-.82-.27-.82-.27-.14-.27-.14-.95-.14-2.04v-12.24c0-1.09,0-1.77,.14-2.04Z" vector-effect="non-scaling-stroke"/><path class="cls-1" d="M243.07,134.2c-.27-.95-.41-1.63-.54-2.18v-.14h-.14c-1.09,0-2.58,0-4.76,.14h-4.35c-.27,0-1.36,0-3.4-.14h0c-.14,.14-.27,.41-.27,.54,0,.27,0,.41,.14,.54h.14c.27,0,.68,0,1.09,.14,.68,.14,.68,.27,.82,.27,.14,.27,.14,.95,.14,2.04v12.24c0,1.09,0,1.77-.14,2.04,0,0,0,.14-.68,.27-.54,.14-.82,.14-1.09,.14h-.27c0,.14-.14,.27-.14,.54s.14,.41,.14,.54h0c.41,0,.82,0,1.63-.14h1.9c.41,0,1.63,0,3.67,.14h0c.14-.14,.14-.27,.14-.54s0-.41-.14-.54h-.14c-.27,0-.82,0-1.36-.14-.68-.14-.68-.27-.68-.27-.14-.27-.14-.95-.14-2.04v-5.3c.14,0,.41-.14,1.9-.14,2.31,0,2.86,.14,2.99,.27s.27,.27,.27,.41c.14,.14,.27,.68,.41,1.36,.14,.27,.27,.27,.54,.27s.41,0,.54-.14h0v-5.58h0c0-.14-.27-.27-.54-.27s-.54,.14-.54,.27v.41c0,.27-.14,.41-.14,.54s-.14,.27-.14,.41c-.27,.27-.41,.41-.41,.41,0,0-.14,.14-.41,.14s-.41,.14-.68,.14h-3.67v-5.3c0-1.09,0-1.63,.14-2.04,0,0,.14-.27,1.9-.27h2.45c.82,0,1.5,.14,2.04,.54,.27,.41,.68,1.09,.95,2.04,0,.14,.14,.27,.54,.27,.27,0,.54,0,.54-.14h0v-.14c0-.14-.14-.82-.27-1.63Z" vector-effect="non-scaling-stroke"/><path class="cls-1" d="M269.8,146.05c-.27,0-.54,.14-.54,.27-.27,.82-.54,1.36-.82,1.77-.27,.41-.54,.82-.95,1.09-.41,.14-.82,.41-1.5,.54s-1.36,.14-2.04,.14h-2.72c-.27,0-.41-.14-.54-.27,0,0-.14-.14-.14-.68v-6.66h1.9c2.31,0,2.86,.14,2.99,.14,.14,.14,.27,.27,.27,.41,.14,.27,.27,.68,.41,1.5,.14,.27,.27,.27,.54,.27s.41,0,.54-.14h0v-5.58h0c0-.14-.27-.27-.54-.27-.41,0-.54,.27-.54,.41v.27c-.14,.27-.14,.41-.27,.68,0,.14,0,.27-.14,.41-.14,.14-.14,.27-.27,.27s-.14,.14-.41,.14c-.27,.14-.54,.14-.82,.14h-3.67v-5.3c0-.95,0-1.63,.14-2.04,0,0,.14-.27,1.9-.27h2.45c.82,0,1.5,.14,2.04,.54s.95,1.09,1.22,2.04c0,.14,.14,.27,.54,.27,.27,0,.54,0,.54-.14h0v-.14c0-.27-.14-.82-.41-1.77-.27-.82-.41-1.5-.41-2.04v-.14h-.14c-1.09,0-2.58,0-4.76,.14h-4.49c-.27,0-1.36,0-3.4-.14h-.14v.54c0,.27,0,.41,.14,.54h.14c.27,0,.68,0,1.09,.14,.54,.14,.68,.27,.68,.27,0,.27,.14,.95,.14,2.04v12.24c0,1.09-.14,1.77-.14,2.04,0,0,0,.14-.68,.27-.54,.14-.82,.14-1.09,.14h-.14c-.14,.14-.14,.27-.14,.54s0,.41,.14,.54h13.33v-.14c0-.27,.14-.68,.27-1.09,.14-.41,.27-.82,.41-1.09,.14-.27,.27-.82,.54-1.36,0-.54,.27-.95,.27-1.09v-.14h0c-.14-.14-.41-.27-.82-.27Z" vector-effect="non-scaling-stroke"/><path class="cls-1" d="M294.68,144.05c-.14-.27-.27-.54-.54-.82s-.54-.41-.68-.68c-.27-.14-.54-.41-.95-.68-.27-.14-.54-.41-.82-.54l-.82-.41c-.27-.27-.54-.41-.68-.54-.14,0-.41-.27-.68-.41-.27-.14-.54-.27-.68-.41s-.41-.27-.68-.41c-.27-.27-.54-.41-.68-.54s-.27-.27-.54-.54c-.14-.14-.27-.41-.41-.54,0-.14-.14-.41-.14-.68s-.14-.54-.14-.82c0-.41,0-.68,.14-1.09,.14-.27,.27-.54,.54-.82s.54-.54,.95-.68,.82-.27,1.36-.27c.41,0,.82,.14,1.22,.27s.82,.41,1.09,.68,.54,.68,.82,.95c.27,.41,.41,.68,.54,1.09,.14,.27,.14,.68,.27,.95h0c.14,.14,.54,.14,.82,0s.27-.27,.27-.41c-.14-1.9-.27-3.26-.41-4.08v-.14h-.14c-.27,0-.68,0-1.22-.14-.41-.14-.68-.27-.95-.27-.27-.14-.54-.14-.95-.14s-.82-.14-1.22-.14c-.95,0-1.9,.27-2.72,.68s-1.63,.95-2.18,1.77c-.54,.82-.82,1.77-.82,2.72,0,.27,0,.68,.14,.95s.14,.54,.27,.82l.41,.82c.27,.27,.41,.41,.54,.68,.14,.14,.41,.41,.68,.54l.68,.54c.14,.14,.41,.27,.82,.54h0c.41,.27,.68,.41,.82,.54s.41,.27,.68,.41c.27,.14,.41,.27,.82,.41,.27,.14,.54,.27,.68,.41,.14,0,.41,.14,.54,.41,.27,.14,.54,.27,.68,.41,.14,.14,.27,.27,.41,.41,.14,.14,.27,.41,.41,.54s.14,.41,.27,.68c0,.27,.14,.54,.14,.82,0,1.09-.27,1.9-.95,2.45-.82,.54-1.63,.82-2.45,.82-.68,0-1.22-.14-1.77-.41-.54-.14-.95-.41-1.22-.82-.27-.27-.54-.68-.82-1.09-.27-.41-.54-.82-.68-1.09-.14-.27-.14-.54-.27-.82,0-.27-.14-.41-.41-.41s-.54,.14-.82,.41h0c0,.27,0,.82,.14,1.9,.14,.95,.27,1.9,.41,2.58v.14h.14c.27,0,.54,.14,1.09,.27,.54,.14,.95,.27,1.36,.27,.41,.14,.82,.14,1.36,.14s.95,.14,1.5,.14c.82,0,1.5-.14,2.31-.41,.68-.27,1.36-.68,1.9-1.09s1.09-1.09,1.36-1.77,.54-1.36,.54-2.18c0-.41,0-.68-.14-1.09-.27-.27-.41-.54-.54-.82Z" vector-effect="non-scaling-stroke"/><path class="cls-1" d="M323.91,131.68h0c-.27-.14-.54-.14-.68,0-.27,0-.54,.14-.95,.14-.27,.14-.54,.14-.82,.14h-11.15c-.14,0-.41,0-.82-.14-.27,0-.54-.14-.68-.27-.27-.14-.54-.14-.82-.14h-.14v.14c-.14,2.04-.41,3.67-.68,5.03v.14h0c.14,.14,.41,.14,.54,.14h.14c.27,0,.41-.14,.54-.14h0c.14-1.09,.54-1.9,.95-2.45s.95-.95,1.63-.95h3.54v14.42c0,1.09,0,1.77-.14,2.04,0,0,0,.14-.68,.27-.54,0-.82,.14-1.09,.14h-.14c-.14,.14-.14,.27-.14,.54s0,.41,.14,.54h0c2.18-.14,3.13-.14,3.4-.14s1.22,0,3.4,.14h0c.14-.14,.27-.41,.27-.54,0-.27,0-.41-.14-.54h-.14c-.27,0-.68,0-1.09-.14-.68-.14-.82-.27-.82-.27,0-.27-.14-.95-.14-2.04v-14.42h3.54c.68,0,1.22,.27,1.63,.95s.82,1.5,.95,2.45h0c.14,.14,.27,.14,.54,.14h0c.27,0,.41,0,.68-.27h0v-.14c-.27-1.22-.54-2.86-.68-4.76Z" vector-effect="non-scaling-stroke"/><path class="cls-1" d="M352.78,131.92h-1.09c-.27,.14-.68,.14-.95,.14h-1.09c-.14,0-1.22,0-2.86-.14h-.14v.54c0,.27,0,.54,.27,.54,.54,0,.82,0,1.22,.14,.14,.14,.27,.27,.41,.41q.14,.14,.14,.27c0,.14,0,.27-.14,.41-.27,.41-.82,1.5-1.5,3.13-.82,1.5-1.5,2.72-2.04,3.94l-3.81-6.66c-.27-.41-.27-.68-.27-.82s.14-.27,.27-.41c.27-.14,.41-.27,.68-.27h.54c.14-.14,.14-.41,.14-.54v-.68h-.14c-1.9,.14-3.13,.14-3.67,.14h-3.67c-.14,0-.14,.27-.14,.54,0,.14,0,.54,.27,.54,.14,0,.41,0,.68,.14,.41,0,.68,.14,.82,.27,.41,.14,.82,.41,1.09,.68s.54,.68,.82,1.22c.41,.82,1.09,2.04,1.9,3.4,.82,1.36,1.5,2.58,2.04,3.81,.14,.27,.27,.41,.27,.68v4.35c0,1.09,0,1.77-.14,2.04,0,0,0,.14-.68,.27-.54,.14-.82,.14-1.09,.14h0c-.14,.14-.14,.27-.14,.54s0,.41,.14,.54h0c1.9-.14,2.99-.14,3.26-.14s1.36,0,3.4,.14h0c.14-.14,.14-.27,.14-.54s0-.41-.14-.54h0c-.27,0-.68,0-1.09-.14-.68-.14-.82-.27-.82-.27-.14-.27-.14-.95-.14-2.04v-4.35c0-.41,0-.68,.14-.82,2.31-4.35,3.94-7.21,4.49-8.3,.14-.27,.27-.41,.54-.54,.27-.27,.54-.41,.82-.41s.54-.14,.68-.14h.41c.14,0,.14-.27,.27-.54,0-.27,0-.41-.14-.68h0Z" vector-effect="non-scaling-stroke"/><path class="cls-1" d="M378.54,146.08c-.27,0-.54,.14-.54,.27-.41,1.36-.95,2.31-1.77,2.86-.27,.14-.82,.41-1.36,.54-.68,0-1.22,.14-1.9,.14h-2.99c-.14-.14-.41-.14-.54-.27,0,0-.14-.27-.14-1.9v-12.24c0-1.09,0-1.77,.14-2.04,0,0,0-.14,.68-.27,.54-.14,.82-.14,1.09-.14h.14c.14-.14,.14-.27,.14-.54s0-.41-.14-.54h-.14c-1.9,.14-2.99,.14-3.26,.14s-1.36,0-3.4-.14h0c-.14,.14-.14,.27-.14,.54s0,.41,.14,.54h.14c.27,0,.68,0,1.09,.14,.68,.14,.68,.27,.68,.27,.14,.27,.14,.95,.14,2.04v12.24c0,1.09,0,1.77-.14,2.04,0,0,0,.14-.68,.27-.54,.14-.82,.14-1.09,.14h-.14c-.14,.14-.14,.27-.14,.54s0,.41,.14,.54h13.33v-.14c0-.27,.14-.68,.27-1.09,.14-.41,.27-.82,.41-1.09,.14-.27,.27-.82,.54-1.36,.14-.54,.27-.95,.27-1.22v-.14h0c-.14-.14-.41-.14-.82-.14Z" vector-effect="non-scaling-stroke"/><path class="cls-1" d="M405.32,146.06c-.27,0-.54,.14-.54,.27-.27,.68-.54,1.36-.82,1.77-.27,.41-.54,.82-.95,1.09-.41,.14-.82,.41-1.5,.54s-1.36,.14-2.04,.14h-2.72c-.27,0-.41-.14-.54-.27,0,0-.14-.14-.14-.68v-6.66h1.9c2.31,0,2.86,.14,2.99,.27s.27,.27,.27,.41c.14,0,.27,.41,.41,1.36,0,.14,.14,.27,.54,.27,.27,0,.41,0,.54-.14h0v-5.58h0c0-.14-.27-.27-.54-.27-.41,0-.41,.27-.54,.27v.27c-.14,.27-.14,.54-.27,.82,0,.14,0,.27-.14,.41-.14,.14-.14,.27-.27,.27,0,0-.14,.14-.41,.14-.27,.14-.54,.14-.82,.14h-3.54v-5.3c0-.95,0-1.63,.14-2.04,0,0,.14-.27,1.9-.27h2.45c.82,0,1.5,.14,2.04,.54s.95,1.09,1.22,2.04c-.27,.14-.14,.27,.27,.27,.27,0,.54,0,.54-.14h0v-.14c0-.27-.14-.82-.41-1.77-.14-.82-.27-1.5-.27-2.04v-.14h-.14c-1.09,0-2.58,0-4.76,.14h-4.49c-.27,0-1.36,0-3.4-.14h0c-.14,.14-.14,.41-.14,.54,0,.27,0,.41,.14,.54h0c.27,0,.68,0,1.09,.14,.68,.14,.82,.27,.82,.27,0,.27,.14,.95,.14,2.04v12.24c0,1.09,0,1.77-.14,2.04,0,0,0,.14-.68,.27-.54,.14-.82,.14-1.09,.14h0c-.14,.14-.14,.27-.14,.54s0,.41,.14,.54h13.33v-.14c0-.27,.14-.68,.27-1.09,.14-.41,.27-.82,.41-1.09,.14-.27,.27-.82,.54-1.36-.14-.54,.14-.95,.14-1.09v-.14h0c-.14-.27-.41-.27-.82-.27Z" vector-effect="non-scaling-stroke"/><path class="cls-1" d="M430.2,144.06c-.14-.27-.27-.54-.54-.82s-.54-.54-.68-.68c-.27-.14-.54-.41-.82-.68-.41-.14-.68-.41-.95-.54l-.82-.41c-.27-.27-.54-.41-.68-.54s-.41-.27-.68-.41c-.27-.14-.54-.27-.68-.41-.14-.14-.41-.27-.68-.41-.27-.27-.54-.41-.68-.54s-.27-.27-.54-.54c-.14-.14-.27-.41-.41-.54,0-.27-.14-.41-.14-.68s-.14-.54-.14-.82c0-.41,0-.68,.14-1.09,.14-.27,.27-.54,.54-.82,.14-.41,.54-.54,.95-.82,.41-.14,.82-.27,1.36-.27,.41,0,.82,.14,1.22,.27,.41,.14,.82,.41,1.09,.68s.54,.68,.82,.95c.27,.41,.41,.68,.54,1.09,.14,.27,.14,.68,.27,.95h0c.14,.14,.54,.14,.82,0s.27-.27,.27-.41c-.14-1.77-.27-3.26-.41-4.08v-.14h-.14c-.27,.14-.68,.14-1.22,0-.41-.14-.68-.27-.95-.27-.27-.14-.54-.14-.95-.27-.41,0-.82-.14-1.22-.14-.95,0-1.9,.27-2.72,.68-.82,.54-1.63,1.09-2.18,1.9-.54,.82-.82,1.77-.82,2.72,0,.27,0,.68,.14,.95s.14,.54,.27,.82l.41,.82,.27,.27c.14,.14,.27,.27,.27,.41,.14,.14,.41,.41,.68,.54l.68,.54c.14,.14,.54,.41,.82,.54,.41,.27,.68,.41,.82,.54,.14,0,.41,.27,.82,.41,.14,.14,.27,.27,.68,.41,.27,.14,.54,.27,.68,.41,.14,0,.41,.14,.54,.27,.27,.27,.54,.41,.68,.41,.14,.14,.27,.27,.41,.41,.14,.27,.27,.41,.41,.68,.14,.14,.14,.41,.27,.68,0,.27,.14,.54,.14,.82,0,1.09-.27,1.9-.95,2.45-.82,.54-1.63,.82-2.45,.82-.68,0-1.22-.14-1.77-.41-.54-.14-.95-.41-1.36-.82-.27-.27-.54-.68-.82-1.09-.27-.41-.41-.82-.54-1.09s-.14-.54-.27-.82c0-.27-.14-.41-.41-.41s-.54,.14-.82,.41h0c0,.27,0,.82,.14,1.9,.14,.95,.27,1.9,.41,2.58v.14h.14c.14,0,.54,.14,1.09,.27,.54,.14,.95,.27,1.36,.27,.41,.14,.82,.14,1.36,.14s.95,.14,1.5,.14c.82,0,1.5-.14,2.31-.41,.68-.27,1.36-.68,1.9-1.09s1.09-1.09,1.36-1.77,.54-1.36,.54-2.18c0-.41,0-.68-.14-1.09-.27-.27-.41-.54-.54-.82Z" vector-effect="non-scaling-stroke"/><path class="cls-1" d="M308.52,70.58c7.75-.14,15.1-2.18,22.03-6.26h0c1.09-.54,2.31-1.36,3.67-2.18v-8.16h0v-8.43c-1.77,0-2.72,.54-2.86,1.77-.14,.41-.14,.68-.27,1.09-.14,.41-.27,.82-.27,.95-3.81,11.97-11.29,18.09-22.44,18.09s-17.41-5.85-20.4-17.54c-1.09-4.35-1.77-9.25-1.77-14.69,0-14.55,3.94-24.21,11.83-28.97,3.13-1.9,6.8-2.99,10.74-2.99,2.31,0,4.35,.27,6.53,.82h0c1.9,.41,3.67,1.09,5.3,1.9,.14,.14,.41,.27,.54,.27,.41,.27,.82,.41,1.09,.68h0c.68,.41,1.5,.95,2.18,1.5,3.94,3.13,6.12,8.16,8.16,15.1h1.63V.14h-1.9c-.41,1.63-.95,2.86-1.9,3.81-.68,.68-1.5,.95-3.13,.95-.54,0-1.63-.41-2.99-1.09-2.18-1.09-4.08-2.04-6.26-2.58-.27-.14-1.09-.27-1.22-.27s-.54-.14-.68-.14c-1.09-.14-2.18-.41-3.26-.41-1.5-.27-3.13-.41-4.76-.41-12.1,0-21.49,4.49-27.88,13.33-4.49,6.26-6.66,13.6-6.66,21.76,0,9.93,3.13,18.22,9.38,25.02,6.39,7.07,14.96,10.47,25.57,10.47Z" vector-effect="non-scaling-stroke"/><path class="cls-1" d="M19.08,66.64c-.41-.14-.82-.14-1.09-.14h-5.85l8.57-22.03h23.53l8.57,22.03h-7.48v2.99h25.7c0-1.77-.54-2.72-1.77-2.86-.41-.14-.82-.14-1.09-.14h-3.81L38.12,1.22h-5.17L7.52,66.64H.45v2.99H20.85c0-1.9-.54-2.86-1.77-2.99ZM32.41,14.01l10.47,27.2H21.94l10.47-27.2Z" vector-effect="non-scaling-stroke"/><path class="cls-1" d="M378.56,66.64c-.41-.14-.82-.14-1.09-.14h-5.85l8.57-22.03h23.53l8.57,22.03h-7.48v2.99h25.7c0-1.77-.54-2.72-1.77-2.86-.41-.14-.82-.14-1.09-.14h-3.81L397.6,1.22h-5.17l-25.43,65.42h-7.07v2.99h20.4c0-1.9-.54-2.86-1.77-2.99Zm13.33-52.63l10.47,27.2h-20.94l10.47-27.2Z" vector-effect="non-scaling-stroke"/><path class="cls-1" d="M225.46,66.5h-7.48v2.99h26.93c0-1.63-.54-2.58-1.77-2.86-.41-.14-.82-.14-1.09-.14h-5.58V4.08h8.3V1.09h-26.79v2.99h7.48v62.42h0Z" vector-effect="non-scaling-stroke"/><path class="cls-1" d="M119.08,66.71c-.41-.14-.82-.14-1.09-.14h-5.71V18.7l24.75,51.54h2.45l25.84-58.34v54.81h-7.48v2.99h27.06c0-1.63-.54-2.58-1.77-2.86-.41-.14-.82-.14-1.09-.14h-6.12V4.28h8.7V1.29h-19.04l-23.94,54.26L115.68,1.29h-15.5v2.99h7.48v62.42h-7.48v2.99h20.81c0-1.9-.68-2.86-1.9-2.99Z" vector-effect="non-scaling-stroke"/><rect class="cls-1" y="99.66" width="430.98" height="1.63" vector-effect="non-scaling-stroke"/></g></g></svg>