<?xml version="1.0" encoding="utf-8"?>
<!-- Generator: Adobe Illustrator 26.5.0, SVG Export Plug-In . SVG Version: 6.00 Build 0)  -->
<svg version="1.1" id="Layer_1" xmlns="http://www.w3.org/2000/svg" xmlns:xlink="http://www.w3.org/1999/xlink" x="0px" y="0px"
	 viewBox="0 0 595.4 298" style="enable-background:new 0 0 595.4 298;" xml:space="preserve">
<style type="text/css">
	.st0{fill:#747577;}
	.st1{fill:#FFFFFF;}
</style>
<rect x="0.6" y="0.8" class="st0" width="594.7" height="298.7"/>
<g transform="matrix(1.36 0 0 1.36 540 540)">
	<g vector-effect="non-scaling-stroke">
		<g transform="matrix(1 0 0 1 -153.69 48.44)">
			<path vector-effect="non-scaling-stroke" class="st1" d="M-174.1-285.7c-0.1-0.2-0.2-0.4-0.4-0.6c-0.2-0.2-0.4-0.4-0.5-0.5
				c-0.2-0.1-0.4-0.3-0.6-0.5c-0.3-0.1-0.5-0.3-0.6-0.4l-0.7-0.3c-0.2-0.2-0.4-0.3-0.5-0.4c-0.1-0.1-0.3-0.2-0.5-0.3
				c-0.2-0.1-0.4-0.2-0.5-0.3c-0.1-0.1-0.3-0.2-0.5-0.3c-0.2-0.2-0.4-0.3-0.5-0.4c-0.1-0.1-0.2-0.2-0.4-0.4
				c-0.1-0.1-0.2-0.3-0.2-0.4c-0.1-0.1-0.2-0.3-0.2-0.5c0-0.2-0.1-0.4-0.1-0.6c0-0.3,0-0.5,0.1-0.8c0.1-0.2,0.2-0.4,0.4-0.6
				c0.1-0.3,0.4-0.4,0.7-0.6c0.3-0.1,0.6-0.2,1-0.2c0.3,0,0.6,0.1,0.9,0.2c0.3,0.1,0.6,0.3,0.8,0.5c0.2,0.2,0.4,0.5,0.6,0.7
				c0.2,0.3,0.3,0.5,0.4,0.8c0.1,0.3,0.1,0.5,0.2,0.7l0,0l0,0c0.1,0.1,0.4,0.1,0.6,0c0.2-0.1,0.2-0.2,0.2-0.3
				c-0.1-1.4-0.2-2.4-0.3-3v-0.1h-0.1c-0.2,0.1-0.5,0.1-0.8,0c-0.4-0.1-0.6-0.2-0.8-0.2c-0.2-0.1-0.4-0.1-0.7-0.1
				c-0.3,0-0.6-0.1-0.9-0.1c-0.7,0-1.4,0.2-2,0.5c-0.6,0.3-1.2,0.7-1.6,1.3c-0.4,0.6-0.6,1.3-0.6,2c0,0.2,0,0.5,0.1,0.7
				c0.1,0.2,0.1,0.4,0.2,0.6c0.1,0.2,0.2,0.4,0.4,0.6c0.1,0.2,0.2,0.3,0.3,0.5c0.1,0.1,0.3,0.3,0.5,0.4l0.5,0.4
				c0.2,0.1,0.3,0.2,0.6,0.4c0.3,0.2,0.5,0.3,0.6,0.4c0.1,0.1,0.3,0.2,0.5,0.3c0.2,0.1,0.3,0.2,0.6,0.3c0.2,0.1,0.4,0.2,0.5,0.3
				c0.1,0,0.3,0.1,0.4,0.2c0.2,0.2,0.4,0.3,0.5,0.3c0.1,0.1,0.2,0.2,0.3,0.3c0.1,0.2,0.2,0.3,0.3,0.5c0.1,0.1,0.1,0.3,0.2,0.5
				c0,0.2,0.1,0.4,0.1,0.6c0,0.8-0.2,1.4-0.7,1.8c-0.6,0.4-1.2,0.6-1.8,0.6c-0.5,0-0.9-0.1-1.3-0.3c-0.4-0.1-0.7-0.3-0.9-0.6
				c-0.2-0.2-0.4-0.5-0.6-0.8s-0.4-0.6-0.5-0.8c-0.1-0.2-0.1-0.4-0.2-0.6c0-0.2-0.1-0.3-0.3-0.3s-0.4,0.1-0.6,0.3l0,0l0,0
				c0,0.2,0,0.6,0.1,1.4c0.1,0.7,0.2,1.4,0.3,1.9v0.1h0.1c0.1,0,0.4,0.1,0.8,0.2c0.4,0.1,0.7,0.2,1,0.2c0.3,0.1,0.6,0.1,1,0.1
				s0.7,0.1,1.1,0.1c0.6,0,1.1-0.1,1.7-0.3c0.5-0.2,1-0.5,1.4-0.8c0.4-0.3,0.8-0.8,1-1.3s0.4-1,0.4-1.6c0-0.3,0-0.5-0.1-0.8
				C-173.9-285.3-174-285.5-174.1-285.7z"/>
		</g>
		<g transform="matrix(1 0 0 1 -134.31 48.41)">
			<path vector-effect="non-scaling-stroke" class="st1" d="M-173.2-284.2c-0.2,0-0.4,0.1-0.4,0.2c-0.2,0.5-0.4,1-0.6,1.3
				c-0.2,0.3-0.4,0.6-0.7,0.8c-0.2,0.1-0.6,0.3-1.1,0.4s-1,0.1-1.5,0.1h-1c-0.5,0-0.8,0-1,0c-0.2,0-0.3-0.1-0.4-0.2
				c0,0-0.1-0.1-0.1-0.5c0-0.3,0-0.6,0-0.9v-4c0,0,0.1,0,0.2,0c0.1,0,0.2,0,0.3,0c0.1,0,0.2,0,0.3,0c0.1,0,0.2,0,0.3,0h0.3
				c1.7,0,2.1,0.1,2.2,0.2s0.2,0.2,0.2,0.3c0.1,0,0.2,0.3,0.3,1c0,0.1,0.1,0.2,0.4,0.2c0.2,0,0.3,0,0.4-0.1l0,0v-4.1l0,0
				c0-0.1-0.2-0.2-0.4-0.2c-0.3,0-0.3,0.2-0.4,0.2c0,0,0,0.1,0,0.2c-0.1,0.2-0.1,0.4-0.1,0.6c-0.1,0.1-0.1,0.2-0.2,0.3
				c-0.1,0.1-0.1,0.2-0.2,0.2c0,0-0.1,0.1-0.3,0.1c-0.2,0.1-0.4,0.1-0.6,0.1c-0.2,0-0.5,0-0.8,0h-1.1c-0.3,0-0.5,0-0.7,0
				c-0.1,0-0.1,0-0.2,0v-3.9c0-0.7,0-1.2,0.1-1.5c0,0,0.1-0.2,1.4-0.2h1.8c0.6,0,1.1,0.1,1.5,0.4c0.4,0.3,0.7,0.8,0.9,1.5
				c0,0.1,0.1,0.2,0.4,0.2c0.2,0,0.4,0,0.4-0.1l0,0v-0.1c0-0.2-0.1-0.6-0.3-1.3c-0.1-0.6-0.2-1.1-0.2-1.5v-0.1h-0.1
				c-0.8,0-1.9,0-3.5,0.1c-1.5,0-2.6,0-3.3,0c-0.2,0-1,0-2.5-0.1l0,0l0,0c-0.1,0.1-0.1,0.3-0.1,0.4c0,0.2,0,0.3,0.1,0.4l0,0l0,0
				c0.2,0,0.5,0,0.8,0.1c0.5,0.1,0.6,0.2,0.6,0.2c0.1,0.2,0.1,0.7,0.1,1.5v9c0,0.8,0,1.3-0.1,1.5c0,0,0,0.1-0.5,0.2
				c-0.4,0.1-0.6,0.1-0.8,0.1l0,0l0,0c-0.1,0.1-0.1,0.2-0.1,0.4c0,0.2,0,0.3,0.1,0.4l0,0l0,0c0.3,0,0.7,0,1.2,0s1,0,1.3,0
				c1,0,2.2,0,3.8,0c1.5,0,2.6,0,3.4,0h0.1v-0.1c0-0.2,0.1-0.5,0.2-0.8c0.1-0.3,0.2-0.6,0.3-0.8c0.1-0.2,0.2-0.6,0.4-1
				c-0.1-0.4,0.1-0.7,0.1-0.8v-0.1l0,0C-172.7-284.2-172.9-284.2-173.2-284.2z"/>
		</g>
		<g transform="matrix(1 0 0 1 -112.21 48.4)">
			<path vector-effect="non-scaling-stroke" class="st1" d="M-170.7-294.6L-170.7-294.6c-0.3,0-0.6,0-0.8,0
				c-0.2,0.1-0.5,0.1-0.7,0.1s-0.5,0-0.8,0c-0.2,0-1,0-2.4-0.1h-0.1v0.1c0,0.1,0,0.2,0,0.3c0,0.2,0,0.3,0.1,0.4l0,0h0.1
				c0.2,0,0.5,0,0.9,0.1c0.5,0.2,0.6,0.3,0.6,0.3c0.1,0.1,0.1,0.3,0.2,0.5c0,0.2,0,0.5,0,0.9v7.6c-0.9-1.1-2.3-2.9-4.3-5.3
				c-2.2-2.7-3.4-4.3-3.8-4.8l0,0h-0.1c-0.3,0-0.9,0-1.6,0c-0.3,0-0.6,0-1.1,0s-0.8-0.1-1-0.1h-0.1v0.1c-0.1,0.2-0.1,0.4,0,0.7v0.1
				h0.1c0.2,0,0.5,0,0.9,0.1c0.5,0,0.6,0.1,0.7,0.2c0.1,0.1,0.1,0.3,0.2,0.5c0,0.2,0,0.5,0,0.9v9.1c0,0.4,0,0.7,0,0.9
				c0,0.2-0.1,0.3-0.2,0.5c0,0-0.1,0.1-0.6,0.2c-0.4,0.1-0.7,0.1-0.9,0.1h-0.1v0.1c-0.1,0.3-0.1,0.5,0,0.7v0.1h0.1
				c0.2,0,0.4,0,0.8,0c0.3,0,0.5,0,0.7,0s0.4,0,0.8,0c0-0.2,0.8-0.2,2.2-0.1h0.1v-0.1c0-0.1,0.1-0.2,0-0.3c0-0.2,0-0.3-0.1-0.4l0,0
				h-0.1c-0.2,0-0.5,0-0.9-0.1c-0.4-0.2-0.5-0.3-0.5-0.3c-0.1-0.1-0.1-0.3-0.2-0.5c0-0.2,0-0.5,0-0.9v-9.2l9,11.3
				c0.1,0.2,0.3,0.3,0.4,0.4c0.2,0.1,0.3,0.1,0.4,0.1c0.3,0,0.4-0.1,0.4-0.2c0-0.7,0-1.6,0-2.9v-8.5c0-0.4,0-0.7,0-0.9
				s0.1-0.3,0.2-0.5c0,0,0.1-0.1,0.7-0.2c0.4-0.1,0.7-0.1,0.9-0.1h0.1v-0.1C-170.5-294.1-170.5-294.3-170.7-294.6L-170.7-294.6z"/>
		</g>
		<g transform="matrix(1 0 0 1 -92.9 48.41)">
			<path vector-effect="non-scaling-stroke" class="st1" d="M-177-293.5c0,0,0-0.1,0.5-0.2c0.4,0,0.7-0.1,0.9-0.1l0,0l0,0
				c0.1-0.1,0.1-0.2,0.1-0.4c0-0.2,0-0.3-0.1-0.4l0,0l0,0c-1.5,0.1-2.3,0.1-2.5,0.1s-1,0-2.5-0.1l0,0l0,0c-0.1,0.1-0.1,0.2-0.1,0.4
				c0,0.2,0,0.3,0.1,0.4l0,0l0,0c0.2,0,0.5,0,0.8,0.1c0.5,0.1,0.6,0.2,0.6,0.2c0.1,0.2,0.1,0.7,0.1,1.5v9c0,0.8,0,1.3-0.1,1.5
				c0,0,0,0.1-0.5,0.2c-0.4,0-0.7,0.1-0.9,0.1l0,0l0,0c-0.1,0.1-0.1,0.2-0.1,0.4c0,0.2,0,0.3,0.1,0.4l0,0l0,0
				c1.5-0.1,2.3-0.1,2.5-0.1s1,0,2.5,0.1l0,0l0,0c0.1-0.1,0.1-0.2,0.1-0.4c0-0.2,0-0.3-0.1-0.4l0,0l0,0c-0.2,0-0.5,0-0.8-0.1
				c-0.5-0.1-0.6-0.2-0.6-0.2c-0.1-0.2-0.1-0.7-0.1-1.5v-9C-177.1-292.8-177.1-293.3-177-293.5z"/>
		</g>
		<g transform="matrix(1 0 0 1 -74.44 48.43)">
			<path vector-effect="non-scaling-stroke" class="st1" d="M-173.2-292.7c-0.7-0.6-1.4-1.1-2.3-1.5c-1.6-0.7-3.6-0.7-5.3,0.1
				c-0.8,0.4-1.6,0.9-2.2,1.5c-0.6,0.6-1.1,1.4-1.5,2.3c-0.3,0.9-0.5,1.8-0.5,2.8s0.2,2,0.6,2.9c0.3,0.9,0.8,1.7,1.4,2.3
				c0.6,0.6,1.4,1.1,2.2,1.5c0.9,0.3,1.7,0.5,2.7,0.5c0.9,0,1.8-0.2,2.7-0.6c0.8-0.4,1.6-0.9,2.2-1.5c0.6-0.6,1.1-1.4,1.5-2.3
				c0.3-0.9,0.5-1.8,0.5-2.8s-0.2-2-0.6-2.9C-172.1-291.3-172.6-292.1-173.2-292.7z M-177.8-281.2c-0.8,0-1.5-0.2-2.1-0.6
				c-0.6-0.4-1.2-0.9-1.6-1.6c-0.4-0.6-0.7-1.3-0.9-2.1c-0.2-0.8-0.3-1.6-0.3-2.4c0-0.6,0.1-1.1,0.1-1.7c0.1-0.6,0.3-1.1,0.5-1.6
				s0.5-1,0.8-1.3c0.3-0.4,0.8-0.7,1.2-1c0.5-0.2,1-0.3,1.6-0.3c0.8,0,1.5,0.2,2.1,0.6c0.6,0.4,1.2,0.9,1.6,1.5
				c0.4,0.6,0.7,1.4,1,2.2c0.2,0.8,0.3,1.6,0.3,2.4c0,0.6-0.1,1.1-0.2,1.7c0,0.6-0.2,1.1-0.4,1.6c-0.2,0.5-0.5,1-0.8,1.3
				c-0.4,0.4-0.8,0.7-1.3,1C-176.7-281.3-177.2-281.2-177.8-281.2z"/>
		</g>
		<g transform="matrix(1 0 0 1 -52.55 48.42)">
			<path vector-effect="non-scaling-stroke" class="st1" d="M-171.7-281.2L-171.7-281.2c-0.6,0-1-0.2-1.4-0.3c-0.3-0.3-0.7-0.6-1-1
				c-1.3-1.7-2.4-3.3-3.3-4.8c0.7-0.2,1.4-0.7,1.9-1.3c0.6-0.7,0.9-1.4,0.9-2.2c0-0.6-0.1-1.1-0.4-1.6c-0.2-0.5-0.6-0.9-1-1.2
				c-0.5-0.3-0.9-0.5-1.4-0.7c-0.5-0.1-1-0.2-1.5-0.2s-1.1,0-1.7,0c-0.6,0-1.1,0-1.3,0s-1,0-2.5-0.1l0,0l0,0
				c-0.1,0.1-0.2,0.2-0.2,0.4c0,0.2,0,0.3,0.1,0.4l0,0l0,0c0.2,0,0.5,0,0.8,0.1c0.6,0.1,0.6,0.2,0.6,0.2c0.1,0.2,0.1,0.7,0.1,1.5v9
				c0,1.1-0.1,1.4-0.1,1.5c0,0,0,0.1-0.5,0.2c-0.4,0.1-0.6,0.1-0.8,0.1h-0.1l0,0c-0.1,0.1-0.1,0.2-0.1,0.4c0,0.2,0,0.3,0.1,0.4l0,0
				l0,0c1.6-0.1,2.4-0.1,2.6-0.1s1,0,2.5,0.1l0,0l0,0c0.1-0.1,0.1-0.3,0.1-0.4c0-0.2,0-0.3-0.1-0.4l0,0h-0.1c-0.2,0-0.5,0-0.8-0.1
				c-0.5-0.1-0.5-0.2-0.5-0.2c-0.1-0.2-0.1-0.7-0.1-1.5v-3.8h1c0.3,0,0.5,0.1,0.5,0.2c0.7,1,1.3,2,2,3c0.7,1.1,1.2,1.7,1.4,2
				c0.1,0.1,0.2,0.2,0.3,0.3c0.3,0.3,0.6,0.5,1.1,0.6c0.5,0.2,1.4,0.3,2.8,0.3h0.1v-0.1c0-0.1,0.1-0.1,0.1-0.3
				C-171.6-281-171.6-281.1-171.7-281.2L-171.7-281.2z M-176.7-290.6c0,0.8-0.4,1.6-1,2.1c-0.6,0.5-1.4,0.8-2.2,0.8h-1v-4.3
				c0-1.1,0.1-1.4,0.1-1.5c0,0,0.1-0.1,1-0.1c1.1,0,1.9,0.3,2.4,0.8C-177-292.3-176.7-291.5-176.7-290.6z"/>
		</g>
		<g transform="matrix(1 0 0 1 -18.44 48.42)">
			<path vector-effect="non-scaling-stroke" class="st1" d="M-173.2-284.2c-0.2,0-0.4,0.1-0.4,0.2c-0.3,1-0.7,1.7-1.3,2.1
				c-0.2,0.1-0.6,0.3-1,0.4c-0.5,0-0.9,0.1-1.4,0.1h-1.2c-0.5,0-0.8,0-1,0c-0.2-0.1-0.3-0.1-0.4-0.2c0,0-0.1-0.2-0.1-1.4v-9
				c0-0.8,0-1.3,0.1-1.5c0,0,0-0.1,0.5-0.2c0.4-0.1,0.6-0.1,0.8-0.1l0,0l0,0c0.1-0.1,0.1-0.2,0.1-0.4c0-0.2,0-0.3-0.1-0.4l0,0l0,0
				c-1.4,0.1-2.2,0.1-2.4,0.1c-0.2,0-1,0-2.5-0.1l0,0l0,0c-0.1,0.1-0.1,0.2-0.1,0.4c0,0.2,0,0.3,0.1,0.4l0,0l0,0
				c0.2,0,0.5,0,0.8,0.1c0.5,0.1,0.6,0.2,0.6,0.2c0.1,0.2,0.1,0.7,0.1,1.5v9c0,0.8,0,1.3-0.1,1.5c0,0,0,0.1-0.5,0.2
				c-0.4,0.1-0.6,0.1-0.8,0.1l0,0l0,0c-0.1,0.1-0.1,0.2-0.1,0.4c0,0.2,0,0.3,0.1,0.4l0,0l0,0c0.3,0,0.7,0,1.2,0s1,0,1.3,0
				c1,0,2.2,0,3.8,0c1.5,0,2.6,0,3.4,0h0.1v-0.1c0-0.2,0.1-0.5,0.2-0.8c0.1-0.3,0.2-0.6,0.3-0.8c0.1-0.2,0.2-0.6,0.4-1
				c-0.1-0.4,0.1-0.7,0.1-0.9v-0.1l0,0C-172.7-284.2-172.9-284.2-173.2-284.2z"/>
		</g>
		<g transform="matrix(1 0 0 1 -1.65 48.41)">
			<path vector-effect="non-scaling-stroke" class="st1" d="M-177-293.5c0,0,0-0.1,0.5-0.2c0.4,0,0.7-0.1,0.9-0.1l0,0l0,0
				c0.1-0.1,0.1-0.2,0.1-0.4c0-0.2,0-0.3-0.1-0.4l0,0l0,0c-1.5,0.1-2.3,0.1-2.5,0.1s-1,0-2.5-0.1l0,0l0,0c-0.1,0.1-0.1,0.2-0.1,0.4
				c0,0.2,0,0.3,0.1,0.4l0,0l0,0c0.2,0,0.5,0,0.8,0.1c0.5,0.1,0.6,0.2,0.6,0.2c0,0.2,0.1,0.7,0.1,1.5v9c0,0.8,0,1.3-0.1,1.5
				c0,0,0,0.1-0.5,0.2c-0.4,0-0.7,0.1-0.9,0.1l0,0l0,0c-0.1,0.1-0.1,0.2-0.1,0.4c0,0.2,0,0.3,0.1,0.4l0,0l0,0
				c1.5-0.1,2.3-0.1,2.5-0.1s1,0,2.5,0.1l0,0l0,0c0.1-0.1,0.1-0.2,0.1-0.4c0-0.2,0-0.3-0.1-0.4l0,0l0,0c-0.2,0-0.5,0-0.8-0.1
				c-0.6-0.1-0.6-0.2-0.6-0.2c-0.1-0.2-0.1-0.7-0.1-1.5v-9C-177.1-292.8-177.1-293.3-177-293.5z"/>
		</g>
		<g transform="matrix(1 0 0 1 15.43 48.39)">
			<path vector-effect="non-scaling-stroke" class="st1" d="M-173.3-292.9c-0.2-0.7-0.3-1.2-0.4-1.6v-0.1h-0.1c-0.8,0-1.9,0-3.5,0.1
				c-1.4,0-2.6,0-3.2,0c-0.2,0-1,0-2.5-0.1l0,0l0,0c-0.1,0.1-0.2,0.3-0.2,0.4c0,0.2,0,0.3,0.1,0.4l0,0h0.1c0.2,0,0.5,0,0.8,0.1
				c0.5,0.1,0.5,0.2,0.6,0.2c0.1,0.2,0.1,0.7,0.1,1.5v9c0,0.8,0,1.3-0.1,1.5c0,0,0,0.1-0.5,0.2c-0.4,0.1-0.6,0.1-0.8,0.1h-0.2l0,0
				c0,0.1-0.1,0.2-0.1,0.4s0.1,0.3,0.1,0.4l0,0l0,0c0.3,0,0.6,0,1.2-0.1c0.6,0,1,0,1.4,0c0.3,0,1.2,0,2.7,0.1l0,0l0,0
				c0.1-0.1,0.1-0.2,0.1-0.4s0-0.3-0.1-0.4l0,0h-0.1c-0.2,0-0.6,0-1-0.1c-0.5-0.1-0.5-0.2-0.5-0.2c-0.1-0.2-0.1-0.7-0.1-1.5v-3.9
				c0.1,0,0.3-0.1,1.4-0.1c1.7,0,2.1,0.1,2.2,0.2s0.2,0.2,0.2,0.3c0.1,0.1,0.2,0.5,0.3,1c0.1,0.2,0.2,0.2,0.4,0.2
				c0.2,0,0.3,0,0.4-0.1l0,0v-4.1l0,0c0-0.1-0.2-0.2-0.4-0.2c-0.2,0-0.4,0.1-0.4,0.2c0,0,0,0.1,0,0.2v0.1c0,0.2-0.1,0.3-0.1,0.4
				s-0.1,0.2-0.1,0.3c-0.2,0.2-0.3,0.3-0.3,0.3s-0.1,0.1-0.3,0.1s-0.3,0.1-0.5,0.1s-0.5,0-0.8,0h-1.1c-0.3,0-0.5,0-0.6,0
				c-0.1,0-0.1,0-0.2,0v-3.9c0-0.8,0-1.2,0.1-1.5c0,0,0.1-0.2,1.4-0.2h1.8c0.6,0,1.1,0.1,1.5,0.4c0.2,0.3,0.5,0.8,0.7,1.5
				c0,0.1,0.1,0.2,0.4,0.2c0.2,0,0.4,0,0.4-0.1l0,0v-0.1C-173.1-291.8-173.2-292.3-173.3-292.9z"/>
		</g>
		<g transform="matrix(1 0 0 1 34.98 48.4)">
			<path vector-effect="non-scaling-stroke" class="st1" d="M-173.2-284.2c-0.2,0-0.4,0.1-0.4,0.2c-0.2,0.6-0.4,1-0.6,1.3
				c-0.2,0.3-0.4,0.6-0.7,0.8c-0.3,0.1-0.6,0.3-1.1,0.4s-1,0.1-1.5,0.1h-1c-0.5,0-0.8,0-1,0c-0.2,0-0.3-0.1-0.4-0.2
				c0,0-0.1-0.1-0.1-0.5c0-0.3,0-0.6,0-0.9v-4l0,0c0,0,0.1,0,0.2,0c0.1,0,0.2,0,0.3,0c0.1,0,0.2,0,0.3,0c0.1,0,0.2,0,0.3,0h0.3
				c1.7,0,2.1,0.1,2.2,0.1c0.1,0.1,0.2,0.2,0.2,0.3c0.1,0.2,0.2,0.5,0.3,1.1c0.1,0.2,0.2,0.2,0.4,0.2c0.2,0,0.3,0,0.4-0.1l0,0v-4.1
				l0,0c0-0.1-0.2-0.2-0.4-0.2c-0.3,0-0.4,0.2-0.4,0.3c0,0,0,0.1,0,0.2c-0.1,0.2-0.1,0.3-0.2,0.5c0,0.1,0,0.2-0.1,0.3
				c-0.1,0.1-0.1,0.2-0.2,0.2s-0.1,0.1-0.3,0.1c-0.2,0.1-0.4,0.1-0.6,0.1c-0.2,0-0.5,0-0.8,0h-1.1c-0.3,0-0.5,0-0.7,0
				c-0.1,0-0.1,0-0.1,0v-3.9c0-0.7,0-1.2,0.1-1.5c0,0,0.1-0.2,1.4-0.2h1.8c0.6,0,1.1,0.1,1.5,0.4c0.4,0.3,0.7,0.8,0.9,1.5
				c0,0.1,0.1,0.2,0.4,0.2c0.2,0,0.4,0,0.4-0.1l0,0v-0.1c0-0.2-0.1-0.6-0.3-1.3c-0.2-0.6-0.3-1.1-0.3-1.5v-0.1h-0.1
				c-0.8,0-1.9,0-3.5,0.1c-1.5,0-2.6,0-3.3,0c-0.2,0-1,0-2.5-0.1h-0.1l0,0c0,0.1,0,0.3,0,0.4c0,0.2,0,0.3,0.1,0.4l0,0h0.1
				c0.2,0,0.5,0,0.8,0.1c0.4,0.1,0.5,0.2,0.5,0.2c0,0.2,0.1,0.7,0.1,1.5v9c0,0.8-0.1,1.3-0.1,1.5c0,0,0,0.1-0.5,0.2
				c-0.4,0.1-0.6,0.1-0.8,0.1h-0.1l0,0c-0.1,0.1-0.1,0.2-0.1,0.4c0,0.2,0,0.3,0.1,0.4l0,0l0,0c0.3,0,0.7,0,1.2,0s1,0,1.3,0
				c1,0,2.2,0,3.8,0c1.5,0,2.6,0,3.4,0h0.1v-0.1c0-0.2,0.1-0.5,0.2-0.8c0.1-0.3,0.2-0.6,0.3-0.8c0.1-0.2,0.2-0.6,0.4-1
				c0-0.4,0.2-0.7,0.2-0.8v-0.1l0,0C-172.7-284.1-172.9-284.2-173.2-284.2z"/>
		</g>
		<g transform="matrix(1 0 0 1 54.18 48.43)">
			<path vector-effect="non-scaling-stroke" class="st1" d="M-174.1-285.7c-0.1-0.2-0.2-0.4-0.4-0.6c-0.2-0.2-0.4-0.3-0.5-0.5
				c-0.2-0.1-0.4-0.3-0.7-0.5c-0.2-0.1-0.4-0.3-0.6-0.4l-0.6-0.3c-0.2-0.2-0.4-0.3-0.5-0.4c-0.1,0-0.3-0.2-0.5-0.3
				c-0.2-0.1-0.4-0.2-0.5-0.3s-0.3-0.2-0.5-0.3c-0.2-0.2-0.4-0.3-0.5-0.4c-0.1-0.1-0.2-0.2-0.4-0.4c-0.1-0.1-0.2-0.3-0.3-0.4
				c0-0.1-0.1-0.3-0.1-0.5c0-0.2-0.1-0.4-0.1-0.6c0-0.3,0-0.5,0.1-0.8c0.1-0.2,0.2-0.4,0.4-0.6c0.2-0.2,0.4-0.4,0.7-0.5
				s0.6-0.2,1-0.2c0.3,0,0.6,0.1,0.9,0.2s0.6,0.3,0.8,0.5c0.2,0.2,0.4,0.5,0.6,0.7c0.2,0.3,0.3,0.5,0.4,0.8c0.1,0.2,0.1,0.5,0.2,0.7
				l0,0l0,0c0.1,0.1,0.4,0.1,0.6,0s0.2-0.2,0.2-0.3c-0.1-1.4-0.2-2.4-0.3-3v-0.1h-0.1c-0.2,0-0.5,0-0.9-0.1
				c-0.3-0.1-0.5-0.2-0.7-0.2c-0.2-0.1-0.4-0.1-0.7-0.1s-0.6-0.1-0.9-0.1c-0.7,0-1.4,0.2-2,0.5c-0.6,0.3-1.2,0.7-1.6,1.3
				c-0.4,0.6-0.6,1.3-0.6,2c0,0.2,0,0.5,0.1,0.7c0.1,0.2,0.1,0.4,0.2,0.6c0.1,0.2,0.2,0.4,0.3,0.6c0.2,0.2,0.3,0.3,0.4,0.5
				c0.1,0.1,0.3,0.3,0.5,0.4l0.5,0.4c0.1,0.1,0.3,0.2,0.6,0.4l0,0c0.3,0.2,0.5,0.3,0.6,0.4c0.1,0.1,0.3,0.2,0.5,0.3
				c0.2,0.1,0.3,0.2,0.6,0.3c0.2,0.1,0.4,0.2,0.5,0.3c0.1,0,0.3,0.1,0.4,0.3c0.2,0.1,0.4,0.2,0.5,0.3c0.1,0.1,0.2,0.2,0.3,0.3
				c0.1,0.1,0.2,0.3,0.3,0.4c0.1,0.1,0.1,0.3,0.2,0.5c0,0.2,0.1,0.4,0.1,0.6c0,0.8-0.2,1.4-0.7,1.8c-0.6,0.4-1.2,0.6-1.8,0.6
				c-0.5,0-0.9-0.1-1.3-0.3c-0.4-0.1-0.7-0.3-0.9-0.6c-0.2-0.2-0.4-0.5-0.6-0.8c-0.2-0.3-0.4-0.6-0.5-0.8c-0.1-0.2-0.1-0.4-0.2-0.6
				c0-0.2-0.1-0.3-0.3-0.3c-0.2,0-0.4,0.1-0.6,0.3l0,0l0,0c0,0.2,0,0.6,0.1,1.4c0.1,0.7,0.2,1.4,0.3,1.9v0.1h0.1
				c0.2,0,0.4,0.1,0.8,0.2c0.4,0.1,0.7,0.2,1,0.2c0.3,0.1,0.6,0.1,1,0.1c0.4,0,0.7,0.1,1.1,0.1c0.6,0,1.1-0.1,1.7-0.3
				c0.5-0.2,1-0.5,1.4-0.8c0.4-0.3,0.8-0.8,1-1.3c0.2-0.5,0.4-1,0.4-1.6c0-0.3,0-0.5-0.1-0.8C-173.9-285.3-174-285.5-174.1-285.7z"
				/>
		</g>
		<g transform="matrix(1 0 0 1 73.77 48.23)">
			<path vector-effect="non-scaling-stroke" class="st1" d="M-172.2-294.6L-172.2-294.6L-172.2-294.6c-0.2-0.1-0.4-0.1-0.5,0
				c-0.2,0-0.4,0.1-0.7,0.1c-0.2,0.1-0.4,0.1-0.6,0.1h-8.2c-0.1,0-0.3,0-0.6-0.1c-0.2,0-0.4-0.1-0.5-0.2c-0.2-0.1-0.4-0.1-0.6-0.1
				h-0.1v0.1c-0.1,1.5-0.3,2.7-0.5,3.7v0.1l0,0c0.1,0.1,0.3,0.1,0.4,0.1c0,0,0,0,0.1,0c0.2,0,0.3-0.1,0.4-0.1l0,0
				c0.1-0.8,0.4-1.4,0.7-1.8c0.3-0.4,0.7-0.7,1.2-0.7h2.6v10.6c0,0.8,0,1.3-0.1,1.5c0,0,0,0.1-0.5,0.2c-0.4,0-0.6,0.1-0.8,0.1h-0.1
				l0,0c-0.1,0.1-0.1,0.2-0.1,0.4c0,0.2,0,0.3,0.1,0.4l0,0l0,0c1.6-0.1,2.3-0.1,2.5-0.1s0.9,0,2.5,0.1l0,0l0,0
				c0.1-0.1,0.2-0.3,0.2-0.4c0-0.2,0-0.3-0.1-0.4l0,0h-0.1c-0.2,0-0.5,0-0.8-0.1c-0.5-0.1-0.6-0.2-0.6-0.2c0-0.2-0.1-0.7-0.1-1.5
				v-10.6h2.6c0.5,0,0.9,0.2,1.2,0.7c0.3,0.5,0.6,1.1,0.7,1.8l0,0c0.1,0.1,0.2,0.1,0.4,0.1l0,0c0.2,0,0.3,0,0.5-0.2l0,0v-0.1
				C-171.9-292-172.1-293.2-172.2-294.6z"/>
		</g>
		<g transform="matrix(1 0 0 1 94.4 48.41)">
			<path vector-effect="non-scaling-stroke" class="st1" d="M-171.6-294.6L-171.6-294.6c-0.3,0-0.5,0-0.8,0
				c-0.2,0.1-0.5,0.1-0.7,0.1s-0.5,0-0.8,0c-0.1,0-0.9,0-2.1-0.1h-0.1l0,0c0,0,0,0.1,0,0.4c0,0.2,0,0.4,0.2,0.4c0.4,0,0.6,0,0.9,0.1
				c0.1,0.1,0.2,0.2,0.3,0.3c0.1,0.1,0.1,0.1,0.1,0.2c0,0.1,0,0.2-0.1,0.3c-0.2,0.3-0.6,1.1-1.1,2.3c-0.6,1.1-1.1,2-1.5,2.9
				l-2.8-4.9c-0.2-0.3-0.2-0.5-0.2-0.6c0-0.1,0.1-0.2,0.2-0.3c0.2-0.1,0.3-0.2,0.5-0.2s0.3,0,0.4,0c0.1-0.1,0.1-0.3,0.1-0.4
				c0-0.2,0-0.3,0-0.4v-0.1h-0.1c-1.4,0.1-2.3,0.1-2.7,0.1c-0.3,0-0.6,0-0.9,0c-0.3,0-0.6,0-0.9,0s-0.6,0-0.9,0l0,0l0,0
				c-0.1,0-0.1,0.2-0.1,0.4c0,0.1,0,0.4,0.2,0.4c0.1,0,0.3,0,0.5,0.1c0.3,0,0.5,0.1,0.6,0.2c0.3,0.1,0.6,0.3,0.8,0.5
				s0.4,0.5,0.6,0.9c0.3,0.6,0.8,1.5,1.4,2.5c0.6,1,1.1,1.9,1.5,2.8c0.1,0.2,0.2,0.3,0.2,0.5v3.2c0,0.8,0,1.3-0.1,1.5
				c0,0,0,0.1-0.5,0.2c-0.4,0.1-0.6,0.1-0.8,0.1l0,0l0,0c-0.1,0.1-0.1,0.2-0.1,0.4c0,0.2,0,0.3,0.1,0.4l0,0l0,0
				c1.4-0.1,2.2-0.1,2.4-0.1s1,0,2.5,0.1l0,0l0,0c0.1-0.1,0.1-0.2,0.1-0.4c0-0.2,0-0.3-0.1-0.4l0,0l0,0c-0.2,0-0.5,0-0.8-0.1
				c-0.5-0.1-0.6-0.2-0.6-0.2c-0.1-0.2-0.1-0.7-0.1-1.5v-3.2c0-0.3,0-0.5,0.1-0.6c1.7-3.2,2.9-5.3,3.3-6.1c0.1-0.2,0.2-0.3,0.4-0.4
				c0.2-0.2,0.4-0.3,0.6-0.3c0.2,0,0.4-0.1,0.5-0.1c0.1,0,0.2,0,0.3,0c0.1,0,0.1-0.2,0.2-0.4C-171.5-294.3-171.5-294.4-171.6-294.6
				L-171.6-294.6z"/>
		</g>
		<g transform="matrix(1 0 0 1 114.94 48.42)">
			<path vector-effect="non-scaling-stroke" class="st1" d="M-173.2-284.2c-0.2,0-0.4,0.1-0.4,0.2c-0.3,1-0.7,1.7-1.3,2.1
				c-0.2,0.1-0.6,0.3-1,0.4c-0.5,0-0.9,0.1-1.4,0.1h-1.2c-0.5,0-0.8,0-1,0c-0.1-0.1-0.3-0.1-0.4-0.2c0,0-0.1-0.2-0.1-1.4v-9
				c0-0.8,0-1.3,0.1-1.5c0,0,0-0.1,0.5-0.2c0.4-0.1,0.6-0.1,0.8-0.1h0.1l0,0c0.1-0.1,0.1-0.2,0.1-0.4c0-0.2,0-0.3-0.1-0.4l0,0h-0.1
				c-1.4,0.1-2.2,0.1-2.4,0.1c-0.2,0-1,0-2.5-0.1l0,0l0,0c-0.1,0.1-0.1,0.2-0.1,0.4c0,0.2,0,0.3,0.1,0.4l0,0h0.1
				c0.2,0,0.5,0,0.8,0.1c0.5,0.1,0.5,0.2,0.5,0.2c0.1,0.2,0.1,0.7,0.1,1.5v9c0,0.8,0,1.3-0.1,1.5c0,0,0,0.1-0.5,0.2
				c-0.4,0.1-0.6,0.1-0.8,0.1h-0.1l0,0c-0.1,0.1-0.1,0.2-0.1,0.4c0,0.2,0,0.3,0.1,0.4l0,0l0,0c0.3,0,0.7,0,1.2,0s1,0,1.3,0
				c1,0,2.2,0,3.8,0c1.5,0,2.6,0,3.4,0h0.1v-0.1c0-0.2,0.1-0.5,0.2-0.8c0.1-0.3,0.2-0.6,0.3-0.8c0.1-0.2,0.2-0.6,0.4-1
				c0.1-0.4,0.2-0.7,0.2-0.9v-0.1l0,0C-172.7-284.2-172.9-284.2-173.2-284.2z"/>
		</g>
		<g transform="matrix(1 0 0 1 134.63 48.41)">
			<path vector-effect="non-scaling-stroke" class="st1" d="M-173.2-284.2c-0.2,0-0.4,0.1-0.4,0.2c-0.2,0.5-0.4,1-0.6,1.3
				c-0.2,0.3-0.4,0.6-0.7,0.8c-0.3,0.1-0.6,0.3-1.1,0.4s-1,0.1-1.5,0.1h-1c-0.5,0-0.8,0-1,0c-0.2,0-0.3-0.1-0.4-0.2
				c0,0-0.1-0.1-0.1-0.5c0-0.3,0-0.6,0-0.9v-4c0,0,0.1,0,0.2,0c0.1,0,0.2,0,0.3,0c0.1,0,0.2,0,0.3,0c0.1,0,0.2,0,0.3,0h0.3
				c1.7,0,2.1,0.1,2.2,0.2s0.2,0.2,0.2,0.3c0.1,0,0.2,0.3,0.3,1c0,0.1,0.1,0.2,0.4,0.2c0.2,0,0.3,0,0.4-0.1l0,0v-4.1l0,0
				c0-0.1-0.2-0.2-0.4-0.2c-0.3,0-0.3,0.2-0.4,0.2c0,0,0,0.1,0,0.2c-0.1,0.2-0.1,0.4-0.2,0.6c0,0.1,0,0.2-0.1,0.3
				c-0.1,0.1-0.1,0.2-0.2,0.2c0,0-0.1,0.1-0.3,0.1c-0.2,0.1-0.4,0.1-0.6,0.1c-0.2,0-0.5,0-0.8,0h-1.1c-0.3,0-0.5,0-0.6,0
				c-0.1,0-0.1,0-0.1,0v-3.9c0-0.7,0-1.2,0.1-1.5c0,0,0.1-0.2,1.4-0.2h1.8c0.6,0,1.1,0.1,1.5,0.4c0.4,0.3,0.7,0.8,0.9,1.5
				c-0.2,0.1-0.1,0.2,0.2,0.2c0.2,0,0.4,0,0.4-0.1l0,0v-0.1c0-0.2-0.1-0.6-0.3-1.3c-0.1-0.6-0.2-1.1-0.2-1.5v-0.1h-0.1
				c-0.8,0-1.9,0-3.5,0.1c-1.5,0-2.6,0-3.3,0c-0.2,0-1,0-2.5-0.1l0,0l0,0c-0.1,0.1-0.1,0.3-0.1,0.4c0,0.2,0,0.3,0.1,0.4l0,0l0,0
				c0.2,0,0.5,0,0.8,0.1c0.5,0.1,0.6,0.2,0.6,0.2c0,0.2,0.1,0.7,0.1,1.5v9c0,0.8,0,1.3-0.1,1.5c0,0,0,0.1-0.5,0.2
				c-0.4,0.1-0.6,0.1-0.8,0.1l0,0l0,0c-0.1,0.1-0.1,0.2-0.1,0.4c0,0.2,0,0.3,0.1,0.4l0,0l0,0c0.3,0,0.7,0,1.2,0s1,0,1.3,0
				c1,0,2.2,0,3.8,0c1.5,0,2.6,0,3.4,0h0.1v-0.1c0-0.2,0.1-0.5,0.2-0.8c0.1-0.3,0.2-0.6,0.3-0.8c0.1-0.2,0.2-0.6,0.4-1
				c-0.1-0.4,0.1-0.7,0.1-0.8v-0.1l0,0C-172.7-284.2-172.9-284.2-173.2-284.2z"/>
		</g>
		<g transform="matrix(1 0 0 1 153.82 48.44)">
			<path vector-effect="non-scaling-stroke" class="st1" d="M-174.1-285.7c-0.1-0.2-0.2-0.4-0.4-0.6c-0.2-0.2-0.4-0.4-0.5-0.5
				c-0.2-0.1-0.4-0.3-0.6-0.5c-0.3-0.1-0.5-0.3-0.7-0.4l-0.6-0.3c-0.2-0.2-0.4-0.3-0.5-0.4c-0.1-0.1-0.3-0.2-0.5-0.3
				c-0.2-0.1-0.4-0.2-0.5-0.3c-0.1-0.1-0.3-0.2-0.5-0.3c-0.2-0.2-0.4-0.3-0.5-0.4c-0.1-0.1-0.2-0.2-0.4-0.4
				c-0.1-0.1-0.2-0.3-0.3-0.4c0-0.2-0.1-0.3-0.1-0.5c0-0.2-0.1-0.4-0.1-0.6c0-0.3,0-0.5,0.1-0.8c0.1-0.2,0.2-0.4,0.4-0.6
				c0.1-0.3,0.4-0.4,0.7-0.6c0.3-0.1,0.6-0.2,1-0.2c0.3,0,0.6,0.1,0.9,0.2c0.3,0.1,0.6,0.3,0.8,0.5c0.2,0.2,0.4,0.5,0.6,0.7
				c0.2,0.3,0.3,0.5,0.4,0.8c0.1,0.2,0.1,0.5,0.2,0.7l0,0l0,0c0.1,0.1,0.4,0.1,0.6,0s0.2-0.2,0.2-0.3c-0.1-1.3-0.2-2.4-0.3-3v-0.1
				h-0.1c-0.2,0.1-0.5,0.1-0.9,0c-0.3-0.1-0.5-0.2-0.7-0.2c-0.2-0.1-0.4-0.1-0.7-0.2c-0.3,0-0.6-0.1-0.9-0.1c-0.7,0-1.4,0.2-2,0.5
				c-0.6,0.4-1.2,0.8-1.6,1.4c-0.4,0.6-0.6,1.3-0.6,2c0,0.2,0,0.5,0.1,0.7c0.1,0.2,0.1,0.4,0.2,0.6c0.1,0.2,0.2,0.4,0.3,0.6l0.2,0.2
				c0.1,0.1,0.2,0.2,0.2,0.3c0.1,0.1,0.3,0.3,0.5,0.4l0.5,0.4c0.1,0.1,0.4,0.3,0.6,0.4c0.3,0.2,0.5,0.3,0.6,0.4
				c0.1,0,0.3,0.2,0.6,0.3c0.1,0.1,0.2,0.2,0.5,0.3c0.2,0.1,0.4,0.2,0.5,0.3c0.1,0,0.3,0.1,0.4,0.2c0.2,0.2,0.4,0.3,0.5,0.3
				c0.1,0.1,0.2,0.2,0.3,0.3c0.1,0.2,0.2,0.3,0.3,0.5c0.1,0.1,0.1,0.3,0.2,0.5c0,0.2,0.1,0.4,0.1,0.6c0,0.8-0.2,1.4-0.7,1.8
				c-0.6,0.4-1.2,0.6-1.8,0.6c-0.5,0-0.9-0.1-1.3-0.3c-0.4-0.1-0.7-0.3-1-0.6c-0.2-0.2-0.4-0.5-0.6-0.8c-0.2-0.3-0.3-0.6-0.4-0.8
				c-0.1-0.2-0.1-0.4-0.2-0.6c0-0.2-0.1-0.3-0.3-0.3s-0.4,0.1-0.6,0.3l0,0l0,0c0,0.2,0,0.6,0.1,1.4c0.1,0.7,0.2,1.4,0.3,1.9v0.1h0.1
				c0.1,0,0.4,0.1,0.8,0.2c0.4,0.1,0.7,0.2,1,0.2c0.3,0.1,0.6,0.1,1,0.1c0.4,0,0.7,0.1,1.1,0.1c0.6,0,1.1-0.1,1.7-0.3
				c0.5-0.2,1-0.5,1.4-0.8c0.4-0.3,0.8-0.8,1-1.3c0.2-0.5,0.4-1,0.4-1.6c0-0.3,0-0.5-0.1-0.8C-173.9-285.3-174-285.5-174.1-285.7z"
				/>
		</g>
		<g transform="matrix(1 0 0 1 64.95 -29.69)">
			<path vector-effect="non-scaling-stroke" class="st1" d="M-174.7-261.6c5.7-0.1,11.1-1.6,16.2-4.6l0,0c0.8-0.4,1.7-1,2.7-1.6v-6
				l0,0v-6.2c-1.3,0-2,0.4-2.1,1.3c-0.1,0.3-0.1,0.5-0.2,0.8c-0.1,0.3-0.2,0.6-0.2,0.7c-2.8,8.8-8.3,13.3-16.5,13.3
				c-7.8,0-12.8-4.3-15-12.9c-0.8-3.2-1.3-6.8-1.3-10.8c0-10.7,2.9-17.8,8.7-21.3c2.3-1.4,5-2.2,7.9-2.2c1.7,0,3.2,0.2,4.8,0.6l0,0
				c1.4,0.3,2.7,0.8,3.9,1.4c0.1,0.1,0.3,0.2,0.4,0.2c0.3,0.2,0.6,0.3,0.8,0.5l0,0c0.5,0.3,1.1,0.7,1.6,1.1c2.9,2.3,4.5,6,6,11.1
				h1.2v-17.2h-1.4c-0.3,1.2-0.7,2.1-1.4,2.8c-0.5,0.5-1.1,0.7-2.3,0.7c-0.4,0-1.2-0.3-2.2-0.8c-1.6-0.8-3-1.5-4.6-1.9
				c-0.2-0.1-0.8-0.2-0.9-0.2s-0.4-0.1-0.5-0.1c-0.8-0.1-1.6-0.3-2.4-0.3c-1.1-0.2-2.3-0.3-3.5-0.3c-8.9,0-15.8,3.3-20.5,9.8
				c-3.3,4.6-4.9,10-4.9,16c0,7.3,2.3,13.4,6.9,18.4C-188.8-264.1-182.5-261.6-174.7-261.6z"/>
		</g>
		<g transform="matrix(1 0 0 1 -132.17 -29.69)">
			<path vector-effect="non-scaling-stroke" class="st1" d="M-190.4-264.5c-0.3-0.1-0.6-0.1-0.8-0.1h-4.3l6.3-16.2h17.3l6.3,16.2
				h-5.5v2.2h18.9c0-1.3-0.4-2-1.3-2.1c-0.3-0.1-0.6-0.1-0.8-0.1h-2.8l-19.3-48h-3.8l-18.7,48.1h-5.2v2.2h15
				C-189.1-263.7-189.5-264.4-190.4-264.5z M-180.6-303.2l7.7,20h-15.4L-180.6-303.2z"/>
		</g>
		<g transform="matrix(1 0 0 1 132.15 -29.69)">
			<path vector-effect="non-scaling-stroke" class="st1" d="M-190.4-264.5c-0.3-0.1-0.6-0.1-0.8-0.1h-4.3l6.3-16.2h17.3l6.3,16.2
				h-5.5v2.2h18.9c0-1.3-0.4-2-1.3-2.1c-0.3-0.1-0.6-0.1-0.8-0.1h-2.8l-19.3-48h-3.8l-18.7,48.1h-5.2v2.2h15
				C-189.1-263.7-189.5-264.4-190.4-264.5z M-180.6-303.2l7.7,20h-15.4L-180.6-303.2z"/>
		</g>
		<g transform="matrix(1 0 0 1 11.68 -29.69)">
			<path vector-effect="non-scaling-stroke" class="st1" d="M-182.5-264.6h-5.5v2.2h19.8c0-1.2-0.4-1.9-1.3-2.1
				c-0.3-0.1-0.6-0.1-0.8-0.1h-4.1v-45.9h6.1v-2.2H-188v2.2h5.5V-264.6L-182.5-264.6z"/>
		</g>
		<g transform="matrix(1 0 0 1 -53.74 -29.44)">
			<path vector-effect="non-scaling-stroke" class="st1" d="M-195.3-264.7c-0.3-0.1-0.6-0.1-0.8-0.1h-4.2V-300l18.2,37.9h1.8
				l19-42.9v40.3h-5.5v2.2h19.9c0-1.2-0.4-1.9-1.3-2.1c-0.3-0.1-0.6-0.1-0.8-0.1h-4.5v-45.9h6.4v-2.2h-14l-17.6,39.9l-19.1-39.9
				h-11.4v2.2h5.5v45.9h-5.5v2.2h15.3C-193.9-263.9-194.4-264.6-195.3-264.7z"/>
		</g>
		<g transform="matrix(1 0 0 1 0 18.19)">
			<rect x="-336.6" y="-288.1" vector-effect="non-scaling-stroke" class="st1" width="316.9" height="1.2"/>
		</g>
	</g>
</g>
</svg>
