<?xml version="1.0" encoding="UTF-8"?><svg id="b" xmlns="http://www.w3.org/2000/svg" viewBox="0 0 729.41 35.36"><g id="c"><path d="m181.96,26.4h-65.14c-1,0-1.98-.66-2.98-1.98v-12.93c0-1.98.98-2.98,2.98-2.98h65.14c.32.34.81.5,1.48.5,1,.67,1.49,1.49,1.49,2.48v12.93l-2.98,1.98Zm-101.92-12.92H10.94v-4.98h69.1l3,2-3,2.98h0Zm208.3-1c-.33.68-.83,1-1.49,1h-68.6v-4.98h68.59c.66,0,1.49.68,2.48,2-.34.66-.67,1.32-.99,1.98ZM92.97,7.52c0-4.96-2.49-7.46-7.45-7.46H0v35.31h10.94v-13.92h74.58c4.96,0,7.45-2.65,7.45-7.96v-5.97h0Zm101.41,0c0-4.96-2.49-7.46-7.45-7.46h-76.06c-4.98,0-7.46,2.49-7.46,7.46v19.39c0,5.64,2.48,8.46,7.46,8.46h76.06c4.96,0,7.45-2.82,7.45-8.46V7.52h0Zm105.89,17.41c0-1.99-1-3.98-2.98-5.97,1.98-.98,2.98-2.81,2.98-5.46v-5.97c0-4.96-2.66-7.46-7.96-7.46h-84.51v35.31h10.45v-13.92h67.6c.32.32.98.9,1.98,1.74,1,.83,1.5,1.58,1.5,2.22v9.95h10.94v-10.44h0Zm104.41-3.48c0-5.3-2.66-7.96-7.95-7.96h-71.6c-.66,0-1.66-.98-2.98-2.98l1.24-1.24c.45-.48,1.08-.75,1.74-.76h79.55V.06h-85.01c-4.98,0-7.46,2.49-7.46,7.46v5.97c0,5.31,2.48,7.96,7.46,7.96h71.58c1.99,0,2.98,1,2.98,2.98-.32.34-.75.76-1.24,1.24-.45.48-1.08.75-1.74.74h-79.03v8.96h84.52c5.29,0,7.95-2.82,7.95-8.46v-5.46h0Zm104.39,4.96h-79.03l-1.5-1.98v-12.93c0-.98.49-1.98,1.5-2.98h79.03V.05h-83.51c-5.32,0-7.96,2.49-7.96,7.46v19.39c0,5.64,2.64,8.46,7.96,8.46h83.51v-8.96h0ZM611.48.05h-9.94v13.43h-71.6V.05h-10.43v35.31h10.43v-13.92h71.6v13.92h9.94V.05Zm105.39,26.35h-82.02v-4.96h82.02v-7.96h-82.02v-4.98h82.02V.06h-92.95v35.31h92.95v-8.96h0Zm7.62-26.4c-2.77,0-4.92,2.15-4.92,4.92s2.15,4.92,4.92,4.92,4.92-2.16,4.92-4.92-2.14-4.92-4.92-4.92Zm0,.7c2.38,0,4.16,1.87,4.16,4.22s-1.78,4.22-4.16,4.22-4.15-1.86-4.15-4.22,1.77-4.22,4.15-4.22Zm-1.07,4.54h1.17l1.6,2.52h.82l-1.69-2.52c.77-.14,1.44-.59,1.44-1.59s-.58-1.57-1.86-1.57h-2.18v5.68h.71v-2.52h0,0Zm0-.6v-1.97h1.28c.69,0,1.34.19,1.34.98,0,.97-.84.99-1.7.99h-.93Z" fill-rule="evenodd" stroke-width="0"/></g></svg>