<?xml version="1.0" encoding="UTF-8"?><svg id="a" xmlns="http://www.w3.org/2000/svg" viewBox="0 0 240 104.38"><g id="b"><g id="c"><polyline id="d" points="0 100.28 0 67.53 119.94 0 240 67.53 240 100.28 119.94 33.99 0 100.28" fill="#ed1b2d" stroke-width="0"/><path id="e" d="m117.33,81.55c-.86.03-1.6-.91-2.32-1.13.6,2.36,1.79,7.46,1.35,7.74-.46.3-2.72-2.7-3.96-3.73-.41.8-.06,2.16-.96,2.52-.71.27-2.14-.34-3.2-.29.27,1.04,1.49,2.32,1.29,3.12-.2.82-1.59.99-2.11,1.76,1.75,1.51,6.85,5.07,6.85,6.05,0,.75-.71,2.03-.95,2.91,1.91-.25,4.85-.82,6.11-.9,0,1.65,0,4.77,0,4.77h1.01s0-3.12,0-4.77c1.26.08,4.19.64,6.11.9-.25-.88-.96-2.15-.96-2.91,0-.98,5.11-4.54,6.86-6.05-.52-.77-1.9-.94-2.11-1.76-.2-.8,1.02-2.08,1.29-3.12-1.05-.05-2.49.56-3.2.29-.9-.36-.55-1.72-.96-2.52-1.24,1.03-3.51,4.03-3.96,3.73-.44-.28.75-5.38,1.36-7.74-.73.22-1.47,1.16-2.32,1.13-1-.02-1.2-1.9-2.6-4.55-1.41,2.68-1.61,4.52-2.6,4.55" fill="#ed1b2d" stroke-width="0"/><path id="f" d="m36.44,98.59c-1.99-1.82-2.54-4.17-2.54-6.27,0-1.71.55-3.8,2.37-5.66,1.34-1.36,3.58-2.32,6.61-2.32.81,0,1.88.12,2.56.26.76.16,1.4.27,2.05.31.22.02.26.1.26.23,0,.17-.06.46-.1,1.22-.04.69-.04,1.44-.06,1.75-.02.31-.06.44-.18.44-.14,0-.16-.15-.16-.44,0-.81-.32-1.27-.84-1.73-.7-.63-1.91-1.19-3.65-1.19-2.67,0-3.85.87-4.56,1.59-1.46,1.46-1.92,3.31-1.92,5.43,0,3.9,2.23,7.67,7.24,7.67,1.5,0,2.41-.25,3.21-1.1.42-.46.68-1.11.74-1.49.04-.23.08-.32.2-.32.1,0,.13.15.13.32,0,.14-.23,1.65-.44,2.36-.12.39-.16.44-.52.6-.81.33-1.99.48-3.29.48-3,0-5.5-.66-7.12-2.13" fill="#fff" stroke-width="0"/><path id="g" d="m92.41,98.59c-1.99-1.82-2.54-4.17-2.54-6.27,0-1.71.54-3.8,2.38-5.66,1.34-1.36,3.58-2.32,6.61-2.32.8,0,1.88.12,2.56.26.76.16,1.4.27,2.04.31.22.02.26.1.26.23,0,.17-.06.46-.1,1.22-.04.69-.04,1.44-.06,1.75-.02.31-.07.44-.18.44-.14,0-.16-.15-.16-.44,0-.81-.32-1.27-.84-1.73-.7-.63-1.91-1.19-3.65-1.19-2.67,0-3.85.87-4.56,1.59-1.46,1.46-1.92,3.31-1.92,5.43,0,3.9,2.22,7.67,7.24,7.67,1.51,0,2.41-.25,3.21-1.1.42-.46.68-1.11.75-1.49.04-.23.08-.32.2-.32.1,0,.14.15.14.32,0,.14-.23,1.65-.44,2.36-.12.39-.16.44-.52.6-.8.33-1.99.48-3.29.48-3,0-5.5-.66-7.12-2.13" fill="#fff" stroke-width="0"/><path id="h" d="m152.77,98.6c-2.05-1.82-2.61-4.32-2.61-6.31,0-1.7.6-3.84,2.48-5.71,1.26-1.25,3.69-2.24,6.7-2.24.82,0,2.05.12,2.75.26.77.16,1.43.27,2.1.31.22.02.27.1.27.23,0,.17-.06.42-.1,1.18-.04.68-.04,1.43-.07,1.74-.02.31-.06.44-.18.44-.15,0-.17-.15-.17-.44,0-.82-.33-1.26-.86-1.73-.72-.63-2.07-1.19-3.87-1.19-2.74,0-3.96.87-4.68,1.58-1.5,1.47-1.97,3.27-1.97,5.4,0,3.9,2.29,7.71,7.43,7.71,1.54,0,2.65-.31,3.47-1.16.43-.46.7-1.11.76-1.49.04-.23.08-.31.2-.31.1,0,.14.14.14.31,0,.14-.24,1.69-.45,2.41-.12.39-.16.44-.53.61-.82.33-2.22.53-3.55.53-3.09,0-5.61-.65-7.27-2.13" fill="#fff" stroke-width="0"/><path id="i" d="m67.25,97.73c.08.75.22,1.92,1.1,2.22.6.19,1.13.19,1.34.19.1,0,.16.02.16.1,0,.13-.19.19-.43.19-.45,0-3.16-.06-3.92-.13-.47-.04-.57-.1-.57-.21,0-.08.04-.13.14-.15.1-.02.12-.38.08-.75l-1.02-10.04h-.06l-4.73,10.12c-.38.84-.53,1.11-.79,1.11-.24,0-.41-.27-.76-.96-.52-1.03-4.64-9.67-4.86-10.24h-.09l-.89,9.13c-.02.34-.03.71-.03,1.07,0,.31.22.58.53.65.35.08.65.11.78.11.08,0,.17.04.17.1,0,.15-.12.19-.37.19-.76,0-1.74-.06-1.91-.06-.19,0-1.17.06-1.72.06-.21,0-.35-.04-.35-.19,0-.06.1-.1.2-.1.16,0,.31,0,.62-.06.68-.12.74-.94.83-1.74l1.65-13.7c.06-.27.24-.42.37-.42s.26.15.37.35l6.16,12.68,5.81-12.6c.13-.26.29-.42.44-.42.18,0,.35.2.39.6l1.38,12.91" fill="#fff" stroke-width="0"/><path id="j" d="m86.2,94.38c0,2.01,0,3.66.1,4.53.07.61.19,1.07.82,1.15.29.04.75.08.94.08.13,0,.17.06.17.12,0,.11-.1.17-.33.17-1.15,0-2.75-.06-2.86-.06-.11,0-1.59.06-2.22.06-.23,0-.33-.04-.33-.17,0-.06.04-.12.17-.12.19,0,.44-.04.62-.08.42-.08.53-.54.61-1.15.1-.88.1-2.54.1-4.55v-2.09c0-.08-.06-.13-.12-.13h-8.28c-.06,0-.12.02-.12.13v2.09c0,2.01,0,3.67.11,4.55.06.61.19,1.07.81,1.15.29.04.75.08.94.08.12,0,.17.06.17.12,0,.11-.11.17-.33.17-1.15,0-2.46-.06-2.57-.06s-1.88.06-2.51.06c-.23,0-.33-.04-.33-.17,0-.06.05-.12.17-.12.19,0,.44-.04.63-.08.41-.08.52-.54.6-1.15.1-.87.1-2.52.1-4.55v-3.67c0-3.26,0-3.84-.04-4.51-.04-.71-.21-1.05-.9-1.19-.17-.04-.52-.07-.71-.07-.08,0-.17-.04-.17-.12,0-.13.1-.17.33-.17.94,0,2.71.07,2.82.07s1.42-.07,2.04-.07c.23,0,.33.04.33.17,0,.08-.08.12-.17.12-.14,0-.27.03-.52.07-.57.1-.74.45-.78,1.19-.04.67-.04,1.25-.04,4.51v.43c0,.11.06.12.12.12h8.28c.06,0,.12-.02.12-.12v-.43c0-3.26,0-3.84-.04-4.51-.04-.71-.21-1.05-.9-1.19-.17-.04-.52-.07-.71-.07-.08,0-.17-.04-.17-.12,0-.13.11-.17.34-.17.94,0,2.42.07,2.53.07.1,0,1.7-.07,2.33-.07.23,0,.33.04.33.17,0,.08-.08.12-.17.12-.15,0-.27.03-.52.07-.57.1-.73.45-.77,1.19-.04.67-.04,1.25-.04,4.51v3.69" fill="#fff" stroke-width="0"/><path id="k" d="m183.31,94.39c0,2.01,0,3.66.1,4.54.06.6.19,1.06.81,1.15.29.04.76.08.94.07.12,0,.16.06.16.13,0,.11-.1.17-.33.17-1.15,0-2.75-.06-2.85-.06s-1.59.06-2.22.06c-.23,0-.33-.04-.33-.17,0-.06.04-.13.16-.13.19,0,.44-.04.63-.07.42-.08.52-.54.61-1.15.1-.89.1-2.53.1-4.55v-2.12c0-.08-.07-.13-.12-.13h-8.85c-.07,0-.13.02-.13.13v2.12c0,2.02,0,3.67.11,4.55.06.61.19,1.07.82,1.15.29.04.75.08.94.07.12,0,.17.06.17.13,0,.11-.1.17-.33.17-1.15,0-2.47-.06-2.57-.06s-1.88.06-2.5.06c-.23,0-.34-.04-.34-.17,0-.06.04-.13.16-.13.19,0,.44-.04.63-.07.42-.08.52-.54.6-1.15.1-.88.1-2.53.1-4.56v-3.68c0-3.25,0-3.84-.04-4.51-.04-.71-.21-1.04-.9-1.19-.16-.04-.52-.06-.71-.06-.08,0-.17-.05-.17-.13,0-.12.1-.17.34-.17.94,0,2.71.07,2.82.07s1.42-.07,2.05-.07c.23,0,.34.04.34.17,0,.08-.09.13-.16.13-.15,0-.27.02-.52.06-.57.1-.74.46-.77,1.19-.05.67-.05,1.25-.05,4.51v.44c0,.11.07.13.13.13h8.85c.06,0,.12-.02.12-.13v-.44c0-3.25,0-3.84-.04-4.51-.04-.71-.21-1.04-.9-1.19-.17-.04-.52-.06-.71-.06-.09,0-.17-.05-.17-.13,0-.12.1-.17.34-.17.95,0,2.43.07,2.54.07s1.7-.07,2.33-.07c.23,0,.33.04.33.17,0,.08-.08.13-.17.13-.15,0-.27.02-.52.06-.57.1-.73.46-.77,1.19-.04.67-.04,1.25-.04,4.51v3.7" fill="#fff" stroke-width="0"/><path id="l" d="m137.95,100.17c-.32-.15-.35-.23-.35-.8,0-1.04.1-1.88.12-2.22.02-.23.07-.33.19-.33.14,0,.16.06.16.23,0,.19,0,.48.07.77.35,1.55,1.89,2.14,3.45,2.14,2.25,0,3.18-1.44,3.18-2.78s-.62-2.45-2.52-3.78l-1.07-.75c-2.52-1.76-2.98-3.07-2.98-4.49,0-2.24,1.8-3.82,4.79-3.82.91,0,1.6.08,2.19.2.45.08.63.1.82.1s.22.04.22.15-.09.79-.09,2.22c0,.33-.04.48-.15.48-.13,0-.16-.11-.18-.27-.02-.25-.16-.82-.31-1.05-.14-.23-.77-1.11-2.94-1.11-1.47,0-2.48.89-2.48,2.11s.36,1.96,2.56,3.57l.65.45c2.77,1.95,3.43,3.39,3.43,5.06,0,.86-.49,2.56-2.11,3.58-1.01.63-2.28.88-3.52.88-1.09,0-2.17-.14-3.13-.56" fill="#fff" stroke-width="0"/><path id="m" d="m193.63,94.41c0,3.07.09,4.42.46,4.79.33.33,1.82.48,3.46.48,1.11,0,2.03-.03,2.53-.63.27-.33.48-.86.54-1.25.02-.17.06-.27.18-.27.1,0,.12.08.12.31s-.15,1.49-.31,2.09c-.15.48-.21.56-1.32.56-3.01,0-5.56-.12-6.78-.11-.19,0-1.65.06-2.28.05-.22,0-.33-.04-.33-.16,0-.06.04-.13.17-.13.19,0,.44-.04.63-.08.42-.08.52-.54.6-1.15.1-.88.1-2.53.1-4.55v-3.67c0-3.25,0-3.84-.04-4.51-.04-.71-.21-1.04-.9-1.19-.17-.04-.52-.06-.71-.06-.09,0-.17-.05-.17-.13,0-.12.1-.17.34-.17.94,0,2.48.07,2.59.07s1.86-.07,2.48-.07c.23,0,.34.04.34.17,0,.08-.09.13-.17.13-.15,0-.44.02-.69.06-.6.1-.77.46-.81,1.19-.04.67-.04,1.26-.04,4.51v3.71" fill="#fff" stroke-width="0"/></g></g></svg>