<?xml version="1.0" encoding="UTF-8"?><svg id="Layer_2" xmlns="http://www.w3.org/2000/svg" viewBox="0 0 149.63 121.6"><defs><style>.cls-1{fill:red;stroke-width:0px;}</style></defs><g id="Layer_1-2"><path id="svg_6" class="cls-1" d="m109.13,10.3c-3.4,15.3-4.8,22.4-7.6,33.4-2.7,10.6-4.8,20.5-8.4,25.3-3.6,4.9-8.5,5.9-11.8,6.3-1.7.2-3,.3-6.7.3s-5-.1-6.7-.3c-3.3-.4-8.2-1.4-11.8-6.3-3.6-4.8-5.7-14.7-8.3-25.3-2.8-11.1-4.2-18.1-7.6-33.4,0,0-3.4.1-4.9.2-2.1.1-3.7.3-5.4.5,0,0,2,31.5,2.9,44.9.9,14,2.6,37.7,4.1,55.6,0,0,2.9.5,7.7.7,5,.3,7.3.3,7.3.3,2.1-7.9,4.6-18.8,7.5-23.5,2.4-3.8,6-4.2,8.1-4.5,3.2-.4,6-.5,7.2-.5h0c1.3,0,4,0,7.2.5,2.1.3,5.7.7,8.1,4.5,2.9,4.7,5.5,15.6,7.5,23.5,0,0,2.2,0,7.2-.3,4.8-.3,7.7-.7,7.7-.7,1.5-17.9,3.2-41.5,4.1-55.6.9-13.3,2.9-44.9,2.9-44.9-1.7-.2-3.4-.4-5.4-.5-1.5-.1-4.9-.2-4.9-.2"/><path id="svg_7" class="cls-1" d="m148.83,28.9c-2-20-15.4-24.2-27.1-26.2-5.9-1-16.4-1.8-23.1-2.1-5.9-.4-19.7-.6-23.9-.6s-18,.2-23.9.6c-6.7.3-17.2,1.1-23.1,2.1C16.03,4.7,2.63,8.9.63,28.9.03,34.4-.07,41.5.03,49.1c.2,12.7,1.3,21.2,1.9,27.2.4,4.1,2.1,16.3,4.3,22.6,3,8.7,5.7,11.2,8.9,13.8,5.8,4.7,15.4,6.2,17.4,6.6,10.8,1.9,32.6,2.3,42.3,2.3s31.5-.3,42.3-2.3c2-.4,11.6-1.8,17.4-6.6,3.2-2.6,5.9-5.1,8.9-13.8,2.2-6.3,3.9-18.6,4.3-22.6.6-5.9,1.7-14.5,1.9-27.2-.1-7.7-.3-14.8-.8-20.2m-7.4,33.6c-1.2,16-2.6,25.6-4.6,32.5-1.8,6.1-4,10.1-7.2,13-5.4,4.9-12.8,5.9-17.2,6.6-9.4,1.4-25.3,1.9-37.7,1.9s-28.3-.5-37.7-1.9c-4.4-.7-11.8-1.7-17.2-6.6-3.2-2.9-5.4-7-7.2-13-2-6.9-3.5-16.5-4.6-32.5-.7-9.6-.6-25.2.5-33.6,1.5-12.6,7.7-18.9,21-21.2,6.2-1.1,14.6-1.9,22.5-2.3,6.4-.4,16.8-.6,22.7-.6,5.8-.1,16.3.2,22.6.6,7.9.4,16.3,1.2,22.5,2.3,13.3,2.4,19.5,8.7,21.1,21.2,1.1,8.3,1.2,23.9.5,33.6"/></g></svg>