<?xml version="1.0" encoding="UTF-8"?><svg id="Layer_2" xmlns="http://www.w3.org/2000/svg" viewBox="0 0 142.31 47.12"><defs><style>.cls-1{fill:#383c3e;fill-rule:evenodd;}</style></defs><g id="Layer_2-2"><g id="Layer_1-2"><g id="Nav"><g id="Navigation"><g id="Moneris-Logo"><path id="Fill-1" class="cls-1" d="M128.71,8.29c-.9-.72-1.84-1.4-2.94-1.81-1.17-.44-2.36-.81-3.6-1-1.28-.2-2.59-.24-3.92-.12-1.38,.13-2.77,.45-4.14,.97-1.1,.42-2.16,.95-3.17,1.57-1.06,.65-2.07,1.41-3,2.27-.98,.9-1.88,1.92-2.7,3.04-.85,1.18-1.59,2.48-2.19,3.88-.64,1.47-1.11,3.01-1.41,4.59-.31,1.65-.41,3.33-.31,5.02,.1,1.74,.43,3.47,.98,5.16,.56,1.72,1.36,3.38,2.38,4.92,2.65,4,6.23,6.91,10.25,8.62,3.88,1.65,7.95,2.09,11.82,1.44,3.55-.59,6.79-2.08,9.51-4.28,2.43-1.97,4.4-4.48,5.78-7.38,.08-.18,.13-.38,.16-.59,.02-.21,.02-.43-.02-.65-.03-.22-.09-.44-.17-.64-.09-.2-.2-.39-.33-.55-.14-.16-.28-.28-.42-.36-.15-.08-.3-.12-.44-.12-.15,0-.29,.04-.41,.13-.13,.08-.24,.21-.33,.38-1.29,2.36-3.04,4.34-5.16,5.84-2.32,1.64-5.04,2.68-7.97,3-3.14,.34-6.41-.16-9.51-1.57-3.2-1.45-6.06-3.8-8.24-6.97-.82-1.18-1.47-2.45-1.96-3.77-.48-1.3-.79-2.63-.94-3.99-.14-1.32-.13-2.64,.04-3.94,.16-1.26,.46-2.5,.9-3.69,.28-.76,.6-1.49,.97-2.18,.36-.67,.76-1.31,1.19-1.91,.43-.59,.89-1.13,1.38-1.65,.48-.5,.98-.96,1.51-1.39,.28-.22,.55-.43,.83-.62,.28-.2,.57-.38,.86-.56,.29-.17,.58-.34,.89-.49,.29-.15,.59-.3,.9-.43,.34-.15,.68-.28,1.03-.4,.34-.11,.68-.21,1.02-.29s.68-.15,1.03-.2c.34-.05,.68-.09,1.01-.11-.29,.1-.58,.22-.85,.34-.29,.13-.57,.27-.85,.42s-.55,.32-.81,.51c-.27,.19-.53,.39-.78,.6-.17,.15-.34,.3-.5,.46s-.33,.33-.48,.51c-.16,.18-.31,.36-.45,.55-.15,.2-.29,.4-.42,.6-1.09,1.67-1.75,3.57-1.98,5.58-.25,2.14,0,4.36,.73,6.49,.76,2.22,2.01,4.28,3.69,6.01,1.69,1.73,3.77,3.05,6.1,3.8,1.35,.44,2.71,.69,4.03,.77,1.29,.08,2.55,0,3.74-.24,1.17-.23,2.27-.6,3.3-1.1,.99-.49,1.91-1.09,2.74-1.79,.8-.68,1.5-1.44,2.1-2.26,.57-.79,1.05-1.63,1.44-2.51,.37-.85,.65-1.73,.84-2.65,.19-.88,.3-1.79,.34-2.71,.07-2.22-.23-4.35-.82-6.33-.56-1.87-1.37-3.66-2.39-5.3-.99-1.59-2.19-3.08-3.57-4.4-1.37-1.33-2.95-2.53-4.73-3.54-.11-.07-.23-.11-.34-.14-.12-.03-.22-.04-.32-.03-.1,0-.18,.03-.26,.08-.07,.05-.13,.11-.17,.19-.03,.08-.04,.17-.02,.27,0,.1,.05,.2,.11,.3s.13,.2,.23,.29c.09,.09,.2,.17,.32,.24,1.61,.9,3.04,1.97,4.27,3.17,1.24,1.2,2.32,2.54,3.19,3.98,.9,1.48,1.6,3.08,2.06,4.76,.48,1.76,.7,3.65,.56,5.58-.05,.77-.17,1.53-.37,2.25-.19,.75-.46,1.47-.8,2.16-.35,.71-.78,1.37-1.29,1.99-.53,.64-1.13,1.22-1.82,1.73-.71,.53-1.47,.97-2.3,1.31-.85,.35-1.75,.6-2.69,.74-.97,.14-1.98,.16-3,.05-1.05-.11-2.12-.35-3.18-.72-.42-.15-.83-.32-1.23-.51-.4-.2-.79-.41-1.16-.65-.38-.24-.74-.5-1.08-.77-.35-.28-.68-.57-.99-.89,.66,.33,1.34,.6,2.03,.8,.68,.2,1.38,.34,2.07,.41,.68,.07,1.36,.08,2.04,.03,.66-.05,1.32-.16,1.96-.33,.95-.25,1.83-.6,2.65-1.03,.79-.42,1.5-.92,2.14-1.48,.62-.54,1.17-1.15,1.64-1.81,.46-.64,.84-1.32,1.15-2.05,.31-.7,.53-1.42,.68-2.15,.15-.71,.22-1.43,.23-2.15,0-.7-.05-1.41-.16-2.11-.11-.69-.29-1.38-.52-2.06-.57-1.68-1.38-3.22-2.38-4.59-.98-1.34-2.15-2.56-3.46-3.61-1.31-1.06-2.8-1.97-4.41-2.68-1.65-.74-3.47-1.28-5.41-1.57-2.55-.37-5.11-.35-7.64,.04-2.76,.43-5.51,1.31-8.09,2.64-2.88,1.49-5.59,3.55-7.86,6.17-2.55,2.94-4.53,6.57-5.5,10.74-.07,.29-.05,.56,.05,.79,.1,.24,.26,.44,.49,.61,.23,.16,.52,.29,.85,.36s.71,.08,1.12,.04c.4-.05,.79-.15,1.15-.29,.36-.14,.68-.33,.97-.54,.28-.21,.52-.45,.7-.7s.29-.51,.34-.78c.57-3.44,1.97-6.48,3.9-9.01,1.74-2.29,3.9-4.13,6.26-5.51,2.14-1.25,4.46-2.1,6.84-2.56,2.19-.42,4.45-.51,6.7-.23,1.68,.21,3.26,.65,4.7,1.27,1.41,.61,2.71,1.39,3.86,2.31,1.14,.91,2.16,1.98,3.01,3.16,.85,1.2,1.54,2.55,2,4.01,.18,.57,.3,1.14,.38,1.71,.08,.58,.1,1.15,.07,1.73s-.12,1.16-.26,1.73c-.15,.57-.36,1.14-.63,1.69-.28,.56-.61,1.09-1.01,1.58-.4,.5-.86,.95-1.37,1.35-.53,.41-1.11,.77-1.74,1.06-.65,.3-1.35,.53-2.1,.69-.59,.12-1.2,.18-1.81,.18s-1.24-.08-1.86-.22c-.63-.14-1.24-.36-1.84-.63-.6-.28-1.18-.63-1.73-1.04-.54-.41-1.06-.88-1.52-1.38-.46-.51-.86-1.05-1.19-1.62-.33-.57-.59-1.17-.77-1.78s-.21-1.54-.19-2.16c.01-.36,.17-1.1,.27-1.38,.11-.28,.22-.55,.35-.81s.26-.51,.39-.74c.57-1,1.32-1.8,2.19-2.4,.83-.58,1.77-.98,2.74-1.19,.94-.21,1.92-.26,2.9-.11,.9,.13,1.73,.41,2.5,.82,.13,.07,.26,.13,.39,.15,.13,.03,.25,.03,.37,.01,.12-.02,.22-.06,.31-.12,.09-.06,.17-.14,.22-.24,.05-.1,.08-.21,.09-.32,0-.11,0-.23-.05-.35-.04-.12-.09-.23-.17-.34-.08-.11-.17-.21-.28-.3"/><path id="Fill-4" class="cls-1" d="M17.34,45.41l-1.22-8.19c-.26-1.63-.41-2.9-.53-4.09h-.05c-.23,1.09-.51,2.29-.94,3.66l-2.73,8.62h-3.28l-2.62-7.96c-.46-1.4-.89-2.95-1.1-4.32h-.05c-.1,1.52-.28,2.87-.48,4.37l-.97,7.91H0L2.65,28.25h3.87l2.88,8.82c.41,1.22,.72,2.39,.94,3.61h.05c.25-1.32,.54-2.29,.97-3.56l2.95-8.87h3.84l2.67,17.16h-3.49"/><path id="Fill-6" class="cls-1" d="M35.4,38.85c0-4.35-2.32-6.33-5.9-6.33-3.84,0-6.47,2.84-6.47,6.79,0,4.5,2.32,6.36,5.91,6.36,3.79,0,6.47-2.84,6.47-6.81m-3.36,.18c0,2.57-1.22,3.86-2.83,3.86-1.88,0-2.82-1.32-2.82-3.92s1.42-3.71,2.88-3.71c1.91,0,2.77,1.32,2.77,3.76"/><path id="Fill-8" class="cls-1" d="M64.46,38.14c0-3.13-1.63-5.64-5.32-5.64s-5.93,2.85-5.93,6.71c0,4.45,2.24,6.46,6.26,6.46,1.58,0,3.19-.28,4.54-.82l-.3-2.51c-1.1,.51-2.44,.79-3.7,.79-2.34,0-3.51-1.14-3.49-3.51h7.84c.08-.53,.1-1.04,.1-1.47m-3.24-.74h-4.66c.18-1.53,1.12-2.52,2.47-2.52s2.24,.94,2.18,2.52"/><path id="Fill-10" class="cls-1" d="M67.13,35.04c-.2-.3-.32-.66-.32-1.05s.12-.74,.32-1.04c1.54-.17,3.36-.24,4.95-.19,0,.66-.07,1.68-.23,2.57h.05c.61-1.6,1.84-3,4.02-2.82l-.15,3.2c-2.34-.48-3.51,1.04-3.51,4.55v5.16h-3.23v-10.14c-.52-.09-1.24-.17-1.89-.23"/><path id="Fill-12" class="cls-1" d="M83.86,29.17c0-1.1-.92-1.96-2.04-1.96s-2.01,.89-2.01,1.96,.92,1.98,2.01,1.98,2.04-.89,2.04-1.98"/><path id="Fill-14" class="cls-1" d="M89.82,45.67c-.92,0-1.83-.1-2.65-.23l.08-2.67c.79,.2,1.75,.38,2.72,.38,1.25,0,2.07-.51,2.07-1.35,0-2.24-5.12-.96-5.12-5.26,0-2.21,1.81-4.04,5.37-4.04,.74,0,1.55,.1,2.31,.23l-.1,2.57c-.71-.2-1.55-.33-2.34-.33-1.27,0-1.89,.51-1.89,1.3,0,2.06,5.19,1.14,5.19,5.24,0,2.49-2.19,4.17-5.65,4.17"/><path id="Fill-16" class="cls-1" d="M42.13,32.75c0,.61-.05,1.6-.18,2.26l.03,.03c.76-1.5,2.24-2.54,4.3-2.54,2.85,0,3.76,1.83,3.76,4.04v8.87h-3.23v-8.08c0-1.32-.36-2.11-1.55-2.11-1.65,0-2.95,1.88-2.95,4.09v6.1h-3.23v-10.14c-.52-.09-1.23-.18-1.89-.23-.2-.3-.32-.66-.32-1.05s.12-.74,.32-1.04c1.54-.17,3.36-.24,4.95-.19"/><path id="Fill-18" class="cls-1" d="M83.46,32.75c-1.65-.05-3.54,.02-5.14,.19-.2,.3-.31,.66-.31,1.04s.11,.75,.32,1.05c.66,.06,1.37,.14,1.89,.23v10.14h3.24v-12.66"/><path id="Fill-20" class="cls-1" d="M141,1.81c-.08-.04-.21-.07-.38-.07h-.27v.64h.28c.13,0,.23,0,.3-.04,.12-.05,.18-.14,.18-.28,0-.13-.04-.22-.12-.26h.01Zm-.34-.27c.22,0,.38,.02,.49,.06,.18,.08,.28,.23,.28,.45,0,.16-.06,.28-.17,.35-.06,.04-.15,.07-.26,.09,.14,.02,.24,.08,.31,.17,.06,.09,.1,.19,.1,.28v.26s0,.08,.02,.09v.02h-.28v-.24c0-.21-.06-.34-.17-.41-.07-.04-.18-.06-.35-.06h-.25v.7h-.31V1.53h.59Zm-.95-.09c-.27,.27-.41,.6-.41,.99s.13,.72,.4,.99c.27,.27,.6,.41,.99,.41s.72-.14,.99-.41,.41-.6,.41-.99-.14-.71-.41-.99c-.27-.27-.6-.41-.99-.41s-.71,.14-.99,.41h.01Zm2.13,2.13c-.32,.32-.7,.48-1.15,.48s-.83-.16-1.15-.48c-.31-.32-.47-.7-.47-1.15s.16-.83,.48-1.14c.32-.31,.7-.47,1.14-.47s.83,.16,1.15,.47c.32,.31,.47,.7,.47,1.14s-.16,.83-.47,1.15Z"/></g></g></g></g></g></svg>