<?xml version="1.0" encoding="UTF-8"?><svg id="Layer_1" xmlns="http://www.w3.org/2000/svg" viewBox="0 0 341.8 81.4"><defs><style>.cls-1{fill:#747577;}</style></defs><path class="cls-1" d="M226.5,46.2c-.1-1.1-.9-1.6-2-1.6-.9,0-1.8,.3-1.8,1.4,0,1,1.3,1.1,2.6,1.4,1.3,.3,2.5,.7,2.5,2.3,0,1.7-1.7,2.4-3.1,2.4-1.8,0-3.3-.9-3.3-2.8h1c0,1.3,1.1,1.9,2.3,1.9,1,0,2-.3,2-1.5,0-1.1-1.3-1.3-2.5-1.6-1.3-.3-2.6-.6-2.6-2.1,0-1.6,1.4-2.3,2.9-2.3,1.6,0,2.9,.8,2.9,2.5h-.9"/><path class="cls-1" d="M232.8,51.2c1.9,0,2.8-1.7,2.8-3.3s-.8-3.3-2.8-3.3-2.8,1.7-2.8,3.3c0,1.6,.9,3.3,2.8,3.3m0-7.5c2.5,0,3.8,2,3.8,4.2s-1.3,4.2-3.8,4.2-3.8-2-3.8-4.2,1.3-4.2,3.8-4.2"/><path class="cls-1" d="M243.9,46.3c-.2-1.1-1.1-1.7-2.2-1.7-1.9,0-2.7,1.6-2.7,3.2,0,1.8,.8,3.3,2.7,3.3,1.4,0,2.2-1,2.3-2.3h1.1c-.2,2-1.4,3.2-3.4,3.2-2.5,0-3.7-1.8-3.7-4.2s1.3-4.2,3.8-4.2c1.7,0,3,.9,3.3,2.6l-1.2,.1"/><rect class="cls-1" x="246.7" y="43.9" width="1.1" height="8"/><path class="cls-1" d="M252.7,41.7h1.2l-1.5,1.6h-.7l1-1.6Zm-2.8,2.2h5.5v.9h-4.4v2.5h4.1v.9h-4.1v2.8h4.5v.9h-5.5v-8h-.1Z"/><polygon class="cls-1" points="258.8 44.8 256.2 44.8 256.2 43.9 262.6 43.9 262.6 44.8 259.9 44.8 259.9 51.9 258.8 51.9 258.8 44.8"/><path class="cls-1" d="M266.6,41.7h1.2l-1.5,1.6h-.7l1-1.6Zm-2.8,2.2h5.5v.9h-4.4v2.5h4.1v.9h-4.1v2.8h4.5v.9h-5.5v-8h-.1Z"/><path class="cls-1" d="M275.4,51h1.8c.7,0,2.7-.2,2.7-3.1,0-1.9-.7-3-2.7-3h-1.8v6.1m-1-7.1h2.7c2.5,0,3.8,1.2,3.8,3.8s-1.2,4.2-3.8,4.2h-2.7v-8Z"/><polygon class="cls-1" points="282.6 43.9 288.1 43.9 288.1 44.8 283.6 44.8 283.6 47.3 287.8 47.3 287.8 48.2 283.6 48.2 283.6 51 288.1 51 288.1 51.9 282.6 51.9 282.6 43.9"/><path class="cls-1" d="M299.1,50.9c-.6,.8-1.6,1.2-2.6,1.2-2.4,0-3.8-1.9-3.8-4,0-2.3,1.3-4.3,3.8-4.3,1.7,0,3.1,.8,3.4,2.6h-1.1c-.2-1.2-1.2-1.8-2.4-1.8-1.9,0-2.7,1.7-2.7,3.4s1,3.2,2.7,3.2c1.6,0,2.6-1.2,2.6-2.6h-2.5v-.9h3.5v4.2h-.7l-.2-1"/><polygon class="cls-1" points="302 43.9 307.5 43.9 307.5 44.8 303 44.8 303 47.3 307.2 47.3 307.2 48.2 303 48.2 303 51 307.5 51 307.5 51.9 302 51.9 302 43.9"/><path class="cls-1" d="M313.7,46.2c-.1-1.1-.9-1.6-2-1.6-.9,0-1.8,.3-1.8,1.4,0,1,1.3,1.1,2.6,1.4,1.3,.3,2.5,.7,2.5,2.3,0,1.7-1.7,2.4-3.1,2.4-1.8,0-3.3-.9-3.3-2.8h1c0,1.3,1.1,1.9,2.3,1.9,1,0,2-.3,2-1.5,0-1.1-1.3-1.3-2.5-1.6-1.3-.3-2.6-.6-2.6-2.1,0-1.6,1.4-2.3,2.9-2.3,1.6,0,2.9,.8,2.9,2.5h-.9"/><polygon class="cls-1" points="318.5 44.8 315.8 44.8 315.8 43.9 322.2 43.9 322.2 44.8 319.6 44.8 319.6 51.9 318.5 51.9 318.5 44.8"/><rect class="cls-1" x="323.5" y="43.9" width="1.1" height="8"/><path class="cls-1" d="M330,51.2c1.9,0,2.8-1.7,2.8-3.3s-.8-3.3-2.8-3.3-2.8,1.7-2.8,3.3c.1,1.6,.9,3.3,2.8,3.3m0-7.5c2.5,0,3.8,2,3.8,4.2s-1.3,4.2-3.8,4.2-3.8-2-3.8-4.2,1.3-4.2,3.8-4.2"/><polygon class="cls-1" points="335.5 43.9 336.6 43.9 340.8 50.4 340.8 50.4 340.8 43.9 341.8 43.9 341.8 51.9 340.7 51.9 336.5 45.5 336.5 45.5 336.5 51.9 335.5 51.9 335.5 43.9"/><path class="cls-1" d="M222.9,65.6h1.8c.7,0,2.7-.2,2.7-3.1,0-1.9-.7-3-2.7-3h-1.8v6.1m-1-7.1h2.7c2.5,0,3.8,1.2,3.8,3.8s-1.2,4.2-3.8,4.2h-2.7v-8Z"/><polygon class="cls-1" points="230.1 58.5 235.6 58.5 235.6 59.4 231.1 59.4 231.1 62 235.3 62 235.3 62.9 231.1 62.9 231.1 65.6 235.6 65.6 235.6 66.5 230.1 66.5 230.1 58.5"/><path class="cls-1" d="M241.8,60.9c-.1-1.1-.9-1.6-2-1.6-.9,0-1.8,.3-1.8,1.4,0,1,1.3,1.1,2.6,1.4,1.3,.3,2.5,.7,2.5,2.3,0,1.7-1.7,2.4-3.1,2.4-1.8,0-3.3-.9-3.3-2.8h1c0,1.3,1.1,1.9,2.3,1.9,1,0,2-.3,2-1.5,0-1.1-1.3-1.3-2.5-1.6-1.3-.3-2.6-.6-2.6-2.1,0-1.6,1.4-2.3,2.9-2.3,1.6,0,2.9,.8,2.9,2.5h-.9"/><path class="cls-1" d="M249.3,65.6h1.8c.7,0,2.7-.2,2.7-3.1,0-1.9-.7-3-2.7-3h-1.8v6.1m-1.1-7.1h2.7c2.5,0,3.8,1.2,3.8,3.8s-1.2,4.2-3.8,4.2h-2.7v-8Z"/><path class="cls-1" d="M259.2,56.4h1.2l-1.5,1.6h-.7l1-1.6Zm-2.8,2.1h5.5v.9h-4.4v2.5h4.1v.9h-4.1v2.8h4.5v.9h-5.5v-8h-.1Z"/><path class="cls-1" d="M269.2,60.9c-.2-1.1-1.1-1.7-2.2-1.7-1.9,0-2.7,1.6-2.7,3.2,0,1.8,.8,3.3,2.7,3.3,1.4,0,2.2-1,2.3-2.3h1.1c-.2,2-1.4,3.2-3.5,3.2-2.5,0-3.7-1.8-3.7-4.2s1.3-4.2,3.8-4.2c1.7,0,3,.9,3.3,2.6l-1.1,.1"/><polygon class="cls-1" points="272 58.5 273 58.5 273 62 277.2 62 277.2 58.5 278.3 58.5 278.3 66.5 277.2 66.5 277.2 62.9 273 62.9 273 66.5 272 66.5 272 58.5"/><polygon class="cls-1" points="280.4 58.5 285.9 58.5 285.9 59.4 281.4 59.4 281.4 62 285.6 62 285.6 62.9 281.4 62.9 281.4 65.6 285.9 65.6 285.9 66.5 280.4 66.5 280.4 58.5"/><polygon class="cls-1" points="289.3 59.4 286.7 59.4 286.7 58.5 293 58.5 293 59.4 290.4 59.4 290.4 66.5 289.3 66.5 289.3 59.4"/><path class="cls-1" d="M298.9,60.9c-.1-1.1-.9-1.6-2-1.6-.9,0-1.8,.3-1.8,1.4,0,1,1.3,1.1,2.6,1.4,1.3,.3,2.5,.7,2.5,2.3,0,1.7-1.7,2.4-3.1,2.4-1.8,0-3.3-.9-3.3-2.8h1c0,1.3,1.1,1.9,2.3,1.9,1,0,2-.3,2-1.5,0-1.1-1.3-1.3-2.5-1.6-1.3-.3-2.6-.6-2.6-2.1,0-1.6,1.4-2.3,2.9-2.3,1.6,0,2.9,.8,2.9,2.5h-.9"/><polygon class="cls-1" points="221.8 73.2 223 73.2 227.2 79.6 227.2 79.6 227.2 73.2 228.2 73.2 228.2 81.1 227 81.1 222.9 74.7 222.9 74.7 222.9 81.1 221.8 81.1 221.8 73.2"/><path class="cls-1" d="M236.6,78.3c0,2-1.2,3.1-3.1,3.1-2.1,0-3.3-.9-3.3-3.1v-5.1h1.1v5.1c0,1.4,.8,2.2,2.2,2.2,1.3,0,2.1-.8,2.1-2.2v-5.1h1.1v5.1"/><path class="cls-1" d="M244.3,75.6c-.2-1.1-1.1-1.7-2.2-1.7-1.9,0-2.7,1.6-2.7,3.2,0,1.8,.8,3.3,2.7,3.3,1.4,0,2.2-1,2.3-2.3h1.1c-.2,2-1.4,3.2-3.4,3.2-2.5,0-3.7-1.8-3.7-4.2s1.3-4.2,3.8-4.2c1.7,0,3,.9,3.3,2.6l-1.2,.1"/><polygon class="cls-1" points="247 73.2 248.1 73.2 248.1 80.3 252.3 80.3 252.3 81.1 247 81.1 247 73.2"/><path class="cls-1" d="M256.4,71h1.2l-1.5,1.6h-.7l1-1.6Zm-2.8,2.2h5.5v.9h-4.4v2.5h4.1v.9h-4.1v2.8h4.5v.9h-5.5v-8h-.1Z"/><path class="cls-1" d="M262.1,77.9h2.7l-1.3-3.7h0l-1.4,3.7Zm.8-4.7h1.2l3.1,8h-1.2l-.9-2.4h-3.4l-.9,2.4h-1.1l3.2-8Z"/><rect class="cls-1" x="268.4" y="73.2" width="1.1" height="8"/><path class="cls-1" d="M274.8,76.8c1,0,1.8-.3,1.8-1.4,0-.8-.4-1.4-1.4-1.4h-2.6v2.8h2.2m-3.3-3.6h3.8c1.5,0,2.4,.8,2.4,2.1,0,1-.4,1.8-1.4,2h0c.9,.2,1.1,.9,1.2,1.6,.1,.8,0,1.7,.5,2.2h-1.2c-.3-.3-.1-1.2-.3-2-.1-.8-.3-1.4-1.3-1.4h-2.6v3.4h-1.1v-7.9Z"/><polygon class="cls-1" points="279.5 73.2 285 73.2 285 74.1 280.6 74.1 280.6 76.6 284.7 76.6 284.7 77.5 280.6 77.5 280.6 80.3 285.1 80.3 285.1 81.1 279.5 81.1 279.5 73.2"/><path class="cls-1" d="M291.3,75.5c-.1-1.1-.9-1.6-2-1.6-.9,0-1.8,.3-1.8,1.4,0,1,1.3,1.1,2.6,1.4,1.3,.3,2.5,.7,2.5,2.3,0,1.7-1.7,2.4-3.1,2.4-1.8,0-3.3-.9-3.3-2.8h1c0,1.3,1.1,1.9,2.3,1.9,1,0,2-.3,2-1.5,0-1.1-1.3-1.3-2.5-1.6-1.3-.3-2.6-.6-2.6-2.1,0-1.6,1.4-2.3,2.9-2.3,1.6,0,2.9,.8,2.9,2.5h-.9"/><polygon class="cls-1" points="109.8 43.9 110.9 43.9 115.1 50.4 115.2 50.4 115.2 43.9 116.2 43.9 116.2 51.9 115 51.9 110.8 45.5 110.8 45.5 110.8 51.9 109.8 51.9 109.8 43.9"/><path class="cls-1" d="M124.6,49c0,2-1.2,3.1-3.1,3.1-2.1,0-3.3-.9-3.3-3.1v-5.1h1.1v5.1c0,1.4,.8,2.2,2.2,2.2,1.3,0,2.1-.8,2.1-2.2v-5.1h1.1v5.1"/><path class="cls-1" d="M132.2,46.3c-.2-1.1-1.1-1.7-2.2-1.7-1.9,0-2.7,1.6-2.7,3.2,0,1.8,.8,3.3,2.7,3.3,1.4,0,2.2-1,2.3-2.3h1.1c-.2,2-1.4,3.2-3.5,3.2-2.5,0-3.7-1.8-3.7-4.2s1.3-4.2,3.8-4.2c1.7,0,3,.9,3.3,2.6l-1.1,.1"/><polygon class="cls-1" points="135 43.9 136.1 43.9 136.1 51 140.3 51 140.3 51.9 135 51.9 135 43.9"/><polygon class="cls-1" points="141.6 43.9 147.1 43.9 147.1 44.8 142.6 44.8 142.6 47.3 146.8 47.3 146.8 48.2 142.6 48.2 142.6 51 147.1 51 147.1 51.9 141.6 51.9 141.6 43.9"/><path class="cls-1" d="M150.1,48.6h2.7l-1.3-3.7h0l-1.4,3.7Zm.8-4.7h1.2l3.1,8h-1.2l-.9-2.4h-3.4l-.9,2.4h-1.1l3.2-8Z"/><path class="cls-1" d="M159.6,47.6c1,0,1.8-.3,1.8-1.4,0-.8-.4-1.4-1.4-1.4h-2.6v2.8h2.2m-3.3-3.7h3.8c1.5,0,2.4,.8,2.4,2.1,0,1-.4,1.8-1.4,2h0c.9,.2,1.1,.9,1.2,1.6,.1,.8,0,1.7,.5,2.2h-1.2c-.3-.3-.1-1.2-.3-2-.1-.8-.3-1.4-1.3-1.4h-2.6v3.4h-1.1v-7.9Z"/><polygon class="cls-1" points="174.9 51.9 173.8 51.9 172 45.2 172 45.2 170.1 51.9 169 51.9 167 43.9 168.1 43.9 169.6 50.5 169.6 50.5 171.4 43.9 172.6 43.9 174.3 50.5 174.4 50.5 176 43.9 177 43.9 174.9 51.9"/><path class="cls-1" d="M179.5,48.6h2.7l-1.3-3.7h0l-1.4,3.7Zm.8-4.7h1.2l3.1,8h-1.2l-.9-2.4h-3.4l-.9,2.4h-1.1l3.2-8Z"/><path class="cls-1" d="M190.3,46.2c-.1-1.1-.9-1.6-2-1.6-.9,0-1.8,.3-1.8,1.4,0,1,1.3,1.1,2.6,1.4,1.3,.3,2.5,.7,2.5,2.3,0,1.7-1.7,2.4-3.1,2.4-1.8,0-3.3-.9-3.3-2.8h1c0,1.3,1.1,1.9,2.3,1.9,1,0,2-.3,2-1.5,0-1.1-1.3-1.3-2.5-1.6-1.3-.3-2.6-.6-2.6-2.1,0-1.6,1.4-2.3,2.9-2.3,1.6,0,2.9,.8,2.9,2.5h-.9"/><polygon class="cls-1" points="195.1 44.8 192.4 44.8 192.4 43.9 198.8 43.9 198.8 44.8 196.1 44.8 196.1 51.9 195.1 51.9 195.1 44.8"/><polygon class="cls-1" points="200 43.9 205.5 43.9 205.5 44.8 201.1 44.8 201.1 47.3 205.2 47.3 205.2 48.2 201.1 48.2 201.1 51 205.5 51 205.5 51.9 200 51.9 200 43.9"/><polygon class="cls-1" points="109.8 58.5 111.3 58.5 113.8 65.2 116.3 58.5 117.8 58.5 117.8 66.5 116.8 66.5 116.8 59.9 116.8 59.9 114.3 66.5 113.4 66.5 110.9 59.9 110.9 59.9 110.9 66.5 109.8 66.5 109.8 58.5"/><path class="cls-1" d="M121.3,63.2h2.7l-1.3-3.7h0l-1.4,3.7Zm.8-4.7h1.2l3.1,8h-1.2l-.9-2.4h-3.4l-.9,2.4h-1.1l3.2-8Z"/><polygon class="cls-1" points="127.4 58.5 128.6 58.5 132.8 65 132.8 65 132.8 58.5 133.8 58.5 133.8 66.5 132.6 66.5 128.5 60.1 128.4 60.1 128.4 66.5 127.4 66.5 127.4 58.5"/><path class="cls-1" d="M137.2,63.2h2.7l-1.3-3.7h0l-1.4,3.7Zm.8-4.7h1.2l3.1,8h-1.2l-.9-2.4h-3.4l-.9,2.4h-1.1l3.2-8Z"/><path class="cls-1" d="M149.4,65.5c-.6,.8-1.6,1.2-2.6,1.2-2.4,0-3.8-1.9-3.8-4,0-2.3,1.3-4.3,3.8-4.3,1.7,0,3.1,.8,3.4,2.6h-1.1c-.2-1.2-1.2-1.8-2.4-1.8-1.9,0-2.7,1.7-2.7,3.4s1,3.2,2.7,3.2c1.6,0,2.6-1.2,2.6-2.6h-2.5v-.9h3.5v4.2h-.6l-.3-1"/><polygon class="cls-1" points="152.2 58.5 157.7 58.5 157.7 59.4 153.3 59.4 153.3 62 157.4 62 157.4 62.9 153.3 62.9 153.3 65.6 157.8 65.6 157.8 66.5 152.2 66.5 152.2 58.5"/><polygon class="cls-1" points="159.4 58.5 160.9 58.5 163.4 65.2 165.9 58.5 167.3 58.5 167.3 66.5 166.3 66.5 166.3 59.9 166.3 59.9 163.8 66.5 162.9 66.5 160.4 59.9 160.4 59.9 160.4 66.5 159.4 66.5 159.4 58.5"/><polygon class="cls-1" points="169.4 58.5 175 58.5 175 59.4 170.5 59.4 170.5 62 174.6 62 174.6 62.9 170.5 62.9 170.5 65.6 175 65.6 175 66.5 169.4 66.5 169.4 58.5"/><polygon class="cls-1" points="176.6 58.5 177.7 58.5 181.9 65 181.9 65 181.9 58.5 182.9 58.5 182.9 66.5 181.8 66.5 177.6 60.1 177.6 60.1 177.6 66.5 176.6 66.5 176.6 58.5"/><polygon class="cls-1" points="186.8 59.4 184.2 59.4 184.2 58.5 190.5 58.5 190.5 59.4 187.9 59.4 187.9 66.5 186.8 66.5 186.8 59.4"/><path class="cls-1" d="M113.2,80.4c1.9,0,2.8-1.7,2.8-3.3s-.8-3.3-2.8-3.3-2.8,1.7-2.8,3.3c0,1.7,.9,3.3,2.8,3.3m0-7.4c2.5,0,3.8,2,3.8,4.2s-1.3,4.2-3.8,4.2-3.8-2-3.8-4.2,1.3-4.2,3.8-4.2"/><path class="cls-1" d="M121.9,76.8c1,0,1.8-.3,1.8-1.4,0-.8-.4-1.4-1.4-1.4h-2.6v2.8h2.2m-3.3-3.6h3.8c1.5,0,2.4,.8,2.4,2.1,0,1-.4,1.8-1.4,2h0c.9,.2,1.1,.9,1.2,1.6,.1,.8,0,1.7,.5,2.2h-1.2c-.3-.3-.1-1.2-.3-2-.1-.8-.3-1.4-1.3-1.4h-2.6v3.4h-1.1v-7.9Z"/><path class="cls-1" d="M132.6,80.2c-.6,.8-1.6,1.2-2.6,1.2-2.4,0-3.8-1.9-3.8-4,0-2.3,1.3-4.3,3.8-4.3,1.7,0,3.1,.8,3.4,2.6h-1.1c-.2-1.2-1.2-1.8-2.4-1.8-1.9,0-2.7,1.7-2.7,3.4s1,3.2,2.7,3.2c1.6,0,2.6-1.2,2.6-2.6h-2.5v-.9h3.5v4.2h-.7l-.2-1"/><path class="cls-1" d="M136.8,77.9h2.7l-1.3-3.7h0l-1.4,3.7Zm.8-4.7h1.2l3.1,8h-1.2l-.9-2.4h-3.4l-.9,2.4h-1.1l3.2-8Z"/><polygon class="cls-1" points="143 73.2 144.1 73.2 148.3 79.6 148.3 79.6 148.3 73.2 149.3 73.2 149.3 81.1 148.2 81.1 144 74.7 144 74.7 144 81.1 143 81.1 143 73.2"/><rect class="cls-1" x="151.4" y="73.2" width="1.1" height="8"/><polygon class="cls-1" points="154 80.3 159 74.1 154.4 74.1 154.4 73.2 160.2 73.2 160.2 74.1 155.3 80.3 160.3 80.3 160.3 81.1 154 81.1 154 80.3"/><path class="cls-1" d="M163.2,77.9h2.7l-1.3-3.7h0l-1.4,3.7Zm.8-4.7h1.2l3.1,8h-1.2l-.9-2.4h-3.4l-.9,2.4h-1.1l3.2-8Z"/><polygon class="cls-1" points="170.1 74.1 167.5 74.1 167.5 73.2 173.9 73.2 173.9 74.1 171.2 74.1 171.2 81.1 170.1 81.1 170.1 74.1"/><rect class="cls-1" x="175.1" y="73.2" width="1.1" height="8"/><path class="cls-1" d="M181.7,80.4c1.9,0,2.8-1.7,2.8-3.3s-.8-3.3-2.8-3.3-2.8,1.7-2.8,3.3c0,1.7,.8,3.3,2.8,3.3m0-7.4c2.5,0,3.8,2,3.8,4.2s-1.3,4.2-3.8,4.2-3.8-2-3.8-4.2,1.2-4.2,3.8-4.2"/><polygon class="cls-1" points="187.1 73.2 188.2 73.2 192.4 79.6 192.5 79.6 192.5 73.2 193.5 73.2 193.5 81.1 192.3 81.1 188.1 74.7 188.1 74.7 188.1 81.1 187.1 81.1 187.1 73.2"/><path class="cls-1" d="M0,1.1H14.2v3.8h.1C15.8,2.9,20.5,0,27.5,0,35.6,0,41.7,3.6,41.7,12.5v19.9h-14.6V16.3c0-4-2.2-5.8-5.6-5.8-3.9,0-6.8,2.3-6.8,7.6v14.3H.1L0,1.1"/><polygon class="cls-1" points="44.1 1.1 55.4 1.1 62.6 22.5 62.7 22.5 70 1.1 79.9 1.1 87.2 22.5 87.3 22.5 94.5 1.1 105.9 1.1 94.2 32.5 81.8 32.5 75 12.2 74.9 12.2 68.1 32.5 55.8 32.5 44.1 1.1"/><path class="cls-1" d="M156,12.5c0-5.6-3.6-7.3-7.4-7.3-5.3,0-10.1,2.5-10.1,8.3v19h-5.8V12.6c0-5.6-3.6-7.3-7.4-7.3-5.3,0-10.1,3.1-10.1,9.1v18.1h-5.9V1.1h5.9V6h.1c2.8-4.3,7.6-5.7,12-5.7,4,0,8,1.6,10.4,5.7,2.8-3.5,6.6-5.7,12.4-5.7,3.1,0,11.6,1.5,11.6,10.8v21.3h-5.9V12.5"/><path class="cls-1" d="M183.9,31.1c9.5,0,14.2-7,14.2-14s-4.7-14-14.2-14-14.2,7-14.2,14,4.7,14,14.2,14m0-30.5c10.7,0,16.9,7.8,16.9,16.5s-6.2,16.5-16.9,16.5-16.9-7.8-16.9-16.5c0-8.8,6.2-16.5,16.9-16.5"/></svg>