<svg xmlns:dc="http://purl.org/dc/elements/1.1/" xmlns:cc="http://creativecommons.org/ns#" xmlns:rdf="http://www.w3.org/1999/02/22-rdf-syntax-ns#" xmlns:svg="http://www.w3.org/2000/svg" xmlns="http://www.w3.org/2000/svg" version="1.1" id="svg3981" viewBox="0 0 303.87553 68.987349" height="19.469763mm" width="85.760429mm">
  <defs id="defs3983">
    <clipPath id="clipPath3428" clipPathUnits="userSpaceOnUse">
      <path id="path3430" d="M 210.577,17 379,17 l 0,51.131 -168.423,0 0,-51.131 z"/>
    </clipPath>
  </defs>
  <metadata id="metadata3986">
    <rdf:RDF>
      <cc:Work rdf:about="">
        <dc:format>image/svg+xml</dc:format>
        <dc:type rdf:resource="http://purl.org/dc/dcmitype/StillImage"/>
        <dc:title/>
      </cc:Work>
    </rdf:RDF>
  </metadata>
  <g transform="translate(-412.05043,-583.1049)" id="layer1">
    <g transform="matrix(1.8042306,0,0,-1.8042306,466.07792,646.77094)" id="g3432">
      <path id="path3434" style="fill:#184e89;fill-opacity:1;fill-rule:evenodd;stroke:none" d="m 0,0 c -12.454,-1.467 -24.377,4.43 -25.571,13.614 -1.197,9.186 8.787,18.183 21.24,19.65 9.614,1.135 18.397,-2.339 22.455,-8.206 C 13.972,33.649 1.434,37.6 -11.024,33.898 -24.299,29.954 -32.457,18.822 -29.246,9.029 -26.032,-0.761 -12.667,-5.504 0.61,-1.561 4.287,-0.468 8.853,1.932 11.612,3.945 8.618,2.334 3.825,0.451 0,0"/>
    </g>
    <g style="fill:#ffb200;fill-opacity:1" transform="matrix(1.8042306,0,0,-1.8042306,437.70893,616.21052)" id="g3436">
      <path id="path3438" style="fill:#ffb200;fill-opacity:1;fill-rule:evenodd;stroke:none" d="m 0,0 c -1.255,-0.917 -1.852,-3.318 -1.852,-3.318 -0.957,0.606 -1.348,2.078 -1.348,3.297 0,1.893 1.537,3.427 3.429,3.427 1.895,0 3.272,-1.433 3.311,-2.709 0,0 -2.447,0.1 -3.54,-0.697 m 32.708,4.767 c -2.8,-0.935 -7.884,-3.369 -8.49,-3.674 -1.323,-0.661 -7.696,-2.398 -11.597,3.001 0,0 -3.572,-3.29 -7.65,-3.514 0.04,1.664 -1.904,4.095 -4.741,4.095 -2.213,0 -4.574,-1.879 -4.606,-4.599 -0.018,-1.644 0.627,-3.065 1.693,-4.151 0,0 1.392,-1.899 8.818,-5.625 0,0 -2.625,-0.357 -3.432,-0.48 -0.396,-0.049 -1.248,-0.405 -1.239,-1.07 0.009,-0.581 0.554,-0.511 1.239,-0.511 l 19.184,0 c 0.685,0 1.24,-0.07 1.24,0.511 0,0.665 -0.868,1.024 -1.24,1.07 -0.372,0.046 -3.602,0.48 -3.602,0.48 3.845,1.263 6.644,3.935 7.979,5.689 1.315,1.724 2.757,3.502 4.505,5.249 1.592,1.59 3.252,2.421 5.556,3.529 l -3.617,0 z"/>
    </g>
    <g transform="matrix(1.8042306,0,0,-1.8042306,517.91257,613.19494)" id="g3440">
      <path id="path3442" style="fill:#184e89;fill-opacity:1;fill-rule:nonzero;stroke:none" d="m 0,0 c -1.091,0 -2.125,-0.283 -3.103,-0.847 -0.978,-0.564 -1.741,-1.324 -2.29,-2.278 -0.548,-0.956 -0.823,-2.022 -0.823,-3.197 0,-1.739 0.608,-3.207 1.823,-4.404 1.215,-1.198 2.68,-1.798 4.393,-1.798 1.145,0 2.205,0.275 3.18,0.827 0.972,0.551 1.732,1.304 2.279,2.26 0.545,0.954 0.817,2.017 0.817,3.185 0,1.161 -0.272,2.211 -0.817,3.151 -0.547,0.937 -1.313,1.69 -2.305,2.254 C 2.164,-0.283 1.112,0 0,0 m -0.066,1.43 c 2.234,0 4.102,-0.742 5.606,-2.221 1.506,-1.48 2.257,-3.303 2.257,-5.467 0,-2.142 -0.75,-3.962 -2.252,-5.456 -1.5,-1.494 -3.331,-2.239 -5.49,-2.239 -2.186,0 -4.031,0.744 -5.535,2.229 -1.504,1.487 -2.257,3.286 -2.257,5.398 0,1.406 0.343,2.711 1.029,3.912 0.685,1.2 1.618,2.143 2.802,2.823 1.184,0.681 2.463,1.021 3.84,1.021"/>
    </g>
    <g transform="matrix(1.8042306,0,0,-1.8042306,532.33649,632.76705)" id="g3444">
      <path id="path3446" style="fill:#184e89;fill-opacity:1;fill-rule:nonzero;stroke:none" d="m 0,0 1.252,0.747 c 0.881,-1.616 1.9,-2.423 3.054,-2.423 0.495,0 0.958,0.114 1.392,0.342 0.434,0.228 0.764,0.537 0.992,0.919 0.227,0.383 0.34,0.791 0.34,1.222 0,0.489 -0.167,0.97 -0.501,1.439 C 6.07,2.897 5.228,3.682 4.007,4.598 2.779,5.522 2.015,6.189 1.714,6.601 1.193,7.292 0.934,8.039 0.934,8.842 c 0,0.638 0.154,1.217 0.46,1.742 0.307,0.526 0.739,0.938 1.296,1.24 0.558,0.302 1.162,0.454 1.816,0.454 0.695,0 1.342,-0.172 1.946,-0.514 C 7.057,11.42 7.696,10.791 8.37,9.874 L 7.168,8.966 C 6.614,9.696 6.142,10.175 5.751,10.41 5.362,10.642 4.937,10.756 4.477,10.756 3.882,10.756 3.397,10.577 3.018,10.218 2.643,9.862 2.453,9.42 2.453,8.897 2.453,8.578 2.521,8.271 2.654,7.971 2.787,7.674 3.03,7.349 3.385,6.997 3.579,6.811 4.214,6.325 5.289,5.536 6.565,4.599 7.439,3.765 7.915,3.036 8.388,2.306 8.625,1.574 8.625,0.836 8.625,-0.225 8.219,-1.148 7.406,-1.93 6.597,-2.715 5.609,-3.105 4.448,-3.105 3.553,-3.105 2.74,-2.868 2.013,-2.392 1.286,-1.916 0.615,-1.119 0,0"/>
    </g>
    <g transform="matrix(1.8042306,0,0,-1.8042306,549.29626,632.76705)" id="g3448">
      <path id="path3450" style="fill:#184e89;fill-opacity:1;fill-rule:nonzero;stroke:none" d="m 0,0 1.253,0.747 c 0.881,-1.616 1.898,-2.423 3.054,-2.423 0.492,0 0.956,0.114 1.391,0.342 0.434,0.228 0.764,0.537 0.992,0.919 0.226,0.383 0.34,0.791 0.34,1.222 0,0.489 -0.169,0.97 -0.502,1.439 C 6.069,2.897 5.228,3.682 4.007,4.598 2.779,5.522 2.017,6.189 1.715,6.601 1.193,7.292 0.933,8.039 0.933,8.842 c 0,0.638 0.154,1.217 0.461,1.742 0.308,0.526 0.74,0.938 1.296,1.24 0.557,0.302 1.163,0.454 1.816,0.454 0.695,0 1.342,-0.172 1.946,-0.514 0.604,-0.344 1.244,-0.973 1.916,-1.89 L 7.168,8.966 C 6.612,9.696 6.142,10.175 5.751,10.41 5.361,10.642 4.935,10.756 4.474,10.756 3.88,10.756 3.397,10.577 3.02,10.218 2.642,9.862 2.454,9.42 2.454,8.897 2.454,8.578 2.52,8.271 2.653,7.971 2.788,7.674 3.033,7.349 3.385,6.997 3.58,6.811 4.212,6.325 5.289,5.536 6.564,4.599 7.44,3.765 7.913,3.036 8.388,2.306 8.626,1.574 8.626,0.836 8.626,-0.225 8.218,-1.148 7.409,-1.93 6.597,-2.715 5.609,-3.105 4.447,-3.105 3.553,-3.105 2.742,-2.868 2.015,-2.392 1.286,-1.916 0.616,-1.119 0,0"/>
    </g>
    <g transform="matrix(1.8042306,0,0,-1.8042306,566.36519,613.8477)" id="g3452">
      <path id="path3454" style="fill:#184e89;fill-opacity:1;fill-rule:nonzero;stroke:none" d="m 0,0 0,1.429 8.067,0 0,-1.429 -3.281,0 0,-13.231 -1.504,0 L 3.282,0 0,0 Z"/>
    </g>
    <g transform="matrix(1.8042306,0,0,-1.8042306,584.02391,611.26856)" id="g3456">
      <path id="path3458" style="fill:#184e89;fill-opacity:1;fill-rule:nonzero;stroke:none" d="m 0,0 7.391,0 0,-1.429 -5.916,0 0,-4.607 5.916,0 0,-1.429 -5.916,0 0,-7.195 L 0,-14.66 0,0 Z"/>
    </g>
    <g style="fill:#ffb200;fill-opacity:1" transform="matrix(1.8042306,0,0,-1.8042306,612.90333,607.46813)" id="g3460">
      <path id="path3462" style="fill:#ffb200;fill-opacity:1;fill-rule:nonzero;stroke:none" d="m 0,0 -6.776,-18.753 -1.535,0 L -1.535,0 0,0 Z"/>
    </g>
    <g transform="matrix(1.8042306,0,0,-1.8042306,618.15724,611.26856)" id="g3464">
      <path id="path3466" style="fill:#184e89;fill-opacity:1;fill-rule:nonzero;stroke:none" d="m 0,0 7.39,0 0,-1.429 -5.915,0 0,-4.607 5.915,0 0,-1.429 -5.915,0 0,-7.195 L 0,-14.66 0,0 Z"/>
    </g>
    <g transform="matrix(1.8042306,0,0,-1.8042306,635.39324,611.26856)" id="g3468">
      <path id="path3470" style="fill:#184e89;fill-opacity:1;fill-rule:nonzero;stroke:none" d="m 0,0 8.446,0 0,-1.429 -6.969,0 0,-4.607 6.907,0 0,-1.429 -6.907,0 0,-5.764 6.907,0 0,-1.431 L 0,-14.66 0,0 Z"/>
    </g>
    <g transform="matrix(1.8042306,0,0,-1.8042306,654.50726,611.26856)" id="g3472">
      <path id="path3474" style="fill:#184e89;fill-opacity:1;fill-rule:nonzero;stroke:none" d="m 0,0 8.443,0 0,-1.429 -6.97,0 0,-4.607 6.909,0 0,-1.429 -6.909,0 0,-5.764 6.909,0 0,-1.431 L 0,-14.66 0,0 Z"/>
    </g>
    <g transform="matrix(1.8042306,0,0,-1.8042306,670.84457,632.76705)" id="g3476">
      <path id="path3478" style="fill:#184e89;fill-opacity:1;fill-rule:nonzero;stroke:none" d="m 0,0 1.253,0.747 c 0.88,-1.616 1.898,-2.423 3.052,-2.423 0.496,0 0.959,0.114 1.393,0.342 0.434,0.228 0.764,0.537 0.99,0.919 0.227,0.383 0.343,0.791 0.343,1.222 0,0.489 -0.169,0.97 -0.502,1.439 C 6.067,2.897 5.227,3.682 4.005,4.598 2.777,5.522 2.014,6.189 1.714,6.601 c -0.52,0.691 -0.78,1.438 -0.78,2.241 0,0.638 0.152,1.217 0.459,1.742 0.306,0.526 0.74,0.938 1.297,1.24 0.557,0.302 1.162,0.454 1.816,0.454 0.692,0 1.342,-0.172 1.946,-0.514 C 7.057,11.42 7.695,10.791 8.37,9.874 L 7.166,8.966 C 6.614,9.696 6.141,10.175 5.752,10.41 5.36,10.642 4.935,10.756 4.476,10.756 3.883,10.756 3.396,10.577 3.019,10.218 2.642,9.862 2.454,9.42 2.454,8.897 2.454,8.578 2.521,8.271 2.656,7.971 2.787,7.674 3.032,7.349 3.385,6.997 3.58,6.811 4.214,6.325 5.29,5.536 6.565,4.599 7.441,3.765 7.914,3.036 8.388,2.306 8.624,1.574 8.624,0.836 8.624,-0.225 8.219,-1.148 7.408,-1.93 6.596,-2.715 5.611,-3.105 4.447,-3.105 3.553,-3.105 2.741,-2.868 2.013,-2.392 1.284,-1.916 0.614,-1.119 0,0"/>
    </g>
    <g transform="matrix(1.8042306,0,0,-1.8042306,701.86019,613.19494)" id="g3480">
      <path id="path3482" style="fill:#184e89;fill-opacity:1;fill-rule:nonzero;stroke:none" d="m 0,0 c -1.092,0 -2.127,-0.283 -3.104,-0.847 -0.977,-0.564 -1.741,-1.324 -2.289,-2.278 -0.551,-0.956 -0.826,-2.022 -0.826,-3.197 0,-1.739 0.609,-3.207 1.824,-4.404 1.215,-1.198 2.68,-1.798 4.395,-1.798 1.145,0 2.203,0.275 3.176,0.827 0.976,0.551 1.735,1.304 2.28,2.26 0.547,0.954 0.82,2.017 0.82,3.185 0,1.161 -0.273,2.211 -0.82,3.151 -0.545,0.937 -1.314,1.69 -2.304,2.254 C 2.161,-0.283 1.11,0 0,0 m -0.068,1.43 c 2.234,0 4.104,-0.742 5.607,-2.221 1.504,-1.48 2.257,-3.303 2.257,-5.467 0,-2.142 -0.752,-3.962 -2.253,-5.456 -1.499,-1.494 -3.332,-2.239 -5.491,-2.239 -2.186,0 -4.029,0.744 -5.533,2.229 -1.504,1.487 -2.256,3.286 -2.256,5.398 0,1.406 0.341,2.711 1.026,3.912 0.686,1.2 1.621,2.143 2.804,2.823 1.183,0.681 2.463,1.021 3.839,1.021"/>
    </g>
  </g>
</svg>