<?xml version="1.0" encoding="UTF-8"?><svg id="Layer_2" xmlns="http://www.w3.org/2000/svg" viewBox="0 0 243.1 55.19"><defs><style>.cls-1,.cls-2{fill:#383c3e;}.cls-2{fill-rule:evenodd;}</style></defs><g id="svg3981"><g id="layer1"><g id="g3432"><path id="path3434" class="cls-2" d="M43.22,50.93c-17.98,2.12-35.19-6.39-36.91-19.65C4.59,18.02,19,5.04,36.97,2.92c13.88-1.64,26.55,3.38,32.41,11.84C63.39,2.36,45.29-3.34,27.31,2,8.15,7.7-3.63,23.77,1.01,37.9c4.64,14.13,23.93,20.98,43.09,15.29,5.31-1.58,11.9-5.04,15.88-7.95-4.32,2.33-11.24,5.04-16.76,5.69"/></g><g id="g3436"><path id="path3438" class="cls-2" d="M20.53,26.48c-1.81,1.32-2.67,4.79-2.67,4.79-1.38-.87-1.95-3-1.95-4.76,0-2.73,2.22-4.95,4.95-4.95s4.72,2.07,4.78,3.91c0,0-3.53-.14-5.11,1.01m47.21-6.88c-4.04,1.35-11.38,4.86-12.25,5.3-1.91,.95-11.11,3.46-16.74-4.33,0,0-5.16,4.75-11.04,5.07,.06-2.4-2.75-5.91-6.84-5.91-3.19,0-6.6,2.71-6.65,6.64-.03,2.37,.91,4.42,2.44,5.99,0,0,2.01,2.74,12.73,8.12,0,0-3.79,.52-4.95,.69-.57,.07-1.8,.58-1.79,1.54,.01,.84,.8,.74,1.79,.74h27.69c.99,0,1.79,.1,1.79-.74,0-.96-1.25-1.48-1.79-1.54s-5.2-.69-5.2-.69c5.55-1.82,9.59-5.68,11.52-8.21,1.9-2.49,3.98-5.05,6.5-7.58,2.3-2.29,4.69-3.49,8.02-5.09,0,0-5.22,0-5.22,0Z"/></g><g id="g3440"><path id="path3442" class="cls-1" d="M84.69,24.07c-1.57,0-3.07,.41-4.48,1.22s-2.51,1.91-3.31,3.29c-.79,1.38-1.19,2.92-1.19,4.61,0,2.51,.88,4.63,2.63,6.36,1.75,1.73,3.87,2.6,6.34,2.6,1.65,0,3.18-.4,4.59-1.19,1.4-.8,2.5-1.88,3.29-3.26,.79-1.38,1.18-2.91,1.18-4.6s-.39-3.19-1.18-4.55c-.79-1.35-1.9-2.44-3.33-3.25-1.43-.81-2.95-1.22-4.55-1.22m-.1-2.06c3.22,0,5.92,1.07,8.09,3.21,2.17,2.14,3.26,4.77,3.26,7.89s-1.08,5.72-3.25,7.88c-2.17,2.16-4.81,3.23-7.92,3.23s-5.82-1.07-7.99-3.22c-2.17-2.15-3.26-4.74-3.26-7.79,0-2.03,.5-3.91,1.49-5.65,.99-1.73,2.34-3.09,4.04-4.07,1.71-.98,3.56-1.47,5.54-1.47"/></g><g id="g3444"><path id="path3446" class="cls-1" d="M96.23,39.73l1.81-1.08c1.27,2.33,2.74,3.5,4.41,3.5,.71,0,1.38-.16,2.01-.49s1.1-.78,1.43-1.33c.33-.55,.49-1.14,.49-1.76,0-.71-.24-1.4-.72-2.08-.66-.94-1.88-2.07-3.64-3.39-1.77-1.33-2.88-2.3-3.31-2.89-.75-1-1.13-2.08-1.13-3.23,0-.92,.22-1.76,.66-2.51,.44-.76,1.07-1.35,1.87-1.79,.81-.44,1.68-.66,2.62-.66,1,0,1.94,.25,2.81,.74,.87,.5,1.8,1.4,2.77,2.73l-1.73,1.31c-.8-1.05-1.48-1.75-2.05-2.08-.56-.33-1.17-.5-1.84-.5-.86,0-1.56,.26-2.11,.78-.54,.51-.82,1.15-.82,1.91,0,.46,.1,.9,.29,1.34,.19,.43,.54,.9,1.06,1.41,.28,.27,1.2,.97,2.75,2.11,1.84,1.35,3.1,2.56,3.79,3.61,.68,1.05,1.02,2.11,1.02,3.18,0,1.53-.59,2.86-1.76,3.99-1.17,1.13-2.59,1.7-4.27,1.7-1.29,0-2.47-.34-3.51-1.03-1.05-.69-2.02-1.84-2.91-3.45"/></g><g id="g3448"><path id="path3450" class="cls-1" d="M109.8,39.73l1.81-1.08c1.27,2.33,2.74,3.5,4.41,3.5,.71,0,1.38-.16,2.01-.49,.63-.33,1.1-.78,1.43-1.33,.33-.55,.49-1.14,.49-1.76,0-.71-.24-1.4-.72-2.08-.66-.94-1.88-2.07-3.64-3.39-1.77-1.33-2.87-2.3-3.31-2.89-.75-1-1.13-2.08-1.13-3.23,0-.92,.22-1.76,.67-2.51,.44-.76,1.07-1.35,1.87-1.79,.8-.44,1.68-.66,2.62-.66,1,0,1.94,.25,2.81,.74,.87,.5,1.8,1.4,2.77,2.73l-1.73,1.31c-.8-1.05-1.48-1.75-2.05-2.08-.56-.33-1.18-.5-1.84-.5-.86,0-1.55,.26-2.1,.78-.55,.51-.82,1.15-.82,1.91,0,.46,.1,.9,.29,1.34,.19,.43,.55,.9,1.06,1.41,.28,.27,1.19,.97,2.75,2.11,1.84,1.35,3.1,2.56,3.79,3.61,.69,1.05,1.03,2.11,1.03,3.18,0,1.53-.59,2.86-1.76,3.99-1.17,1.13-2.6,1.7-4.28,1.7-1.29,0-2.46-.34-3.51-1.03-1.05-.69-2.02-1.84-2.91-3.45"/></g><g id="g3452"><path id="path3454" class="cls-1" d="M123.45,24.59v-2.06h11.64v2.06h-4.74v19.1h-2.17V24.59h-4.74Z"/></g><g id="g3456"><path id="path3458" class="cls-1" d="M137.58,22.53h10.67v2.06h-8.54v6.65h8.54v2.06h-8.54v10.39h-2.13V22.53Z"/></g><g id="g3460"><path id="path3462" class="cls-1" d="M160.68,19.49l-9.78,27.07h-2.22l9.78-27.07h2.22Z"/></g><g id="g3464"><path id="path3466" class="cls-1" d="M164.89,22.53h10.67v2.06h-8.54v6.65h8.54v2.06h-8.54v10.39h-2.13V22.53Z"/></g><g id="g3468"><path id="path3470" class="cls-1" d="M178.67,22.53h12.19v2.06h-10.06v6.65h9.97v2.06h-9.97v8.32h9.97v2.07h-12.1V22.53Z"/></g><g id="g3472"><path id="path3474" class="cls-1" d="M193.97,22.53h12.19v2.06h-10.06v6.65h9.97v2.06h-9.97v8.32h9.97v2.07h-12.1V22.53Z"/></g><g id="g3476"><path id="path3478" class="cls-1" d="M207.04,39.73l1.81-1.08c1.27,2.33,2.74,3.5,4.41,3.5,.72,0,1.38-.16,2.01-.49s1.1-.78,1.43-1.33c.33-.55,.5-1.14,.5-1.76,0-.71-.24-1.4-.72-2.08-.67-.94-1.88-2.07-3.64-3.39-1.77-1.33-2.87-2.3-3.31-2.89-.75-1-1.13-2.08-1.13-3.23,0-.92,.22-1.76,.66-2.51,.44-.76,1.07-1.35,1.87-1.79,.8-.44,1.68-.66,2.62-.66,1,0,1.94,.25,2.81,.74,.87,.5,1.79,1.4,2.77,2.73l-1.74,1.31c-.8-1.05-1.48-1.75-2.04-2.08-.57-.33-1.18-.5-1.84-.5-.86,0-1.56,.26-2.1,.78-.54,.51-.82,1.15-.82,1.91,0,.46,.1,.9,.29,1.34,.19,.43,.54,.9,1.05,1.41,.28,.27,1.2,.97,2.75,2.11,1.84,1.35,3.1,2.56,3.79,3.61,.68,1.05,1.02,2.11,1.02,3.18,0,1.53-.58,2.86-1.76,3.99-1.17,1.13-2.59,1.7-4.27,1.7-1.29,0-2.46-.34-3.51-1.03-1.05-.69-2.02-1.84-2.91-3.45"/></g><g id="g3480"><path id="path3482" class="cls-1" d="M231.85,24.07c-1.58,0-3.07,.41-4.48,1.22-1.41,.81-2.51,1.91-3.3,3.29-.8,1.38-1.19,2.92-1.19,4.61,0,2.51,.88,4.63,2.63,6.36,1.75,1.73,3.87,2.6,6.34,2.6,1.65,0,3.18-.4,4.58-1.19,1.41-.8,2.5-1.88,3.29-3.26,.79-1.38,1.18-2.91,1.18-4.6s-.39-3.19-1.18-4.55c-.79-1.35-1.9-2.44-3.33-3.25-1.43-.81-2.95-1.22-4.55-1.22m-.1-2.06c3.22,0,5.92,1.07,8.09,3.21,2.17,2.14,3.26,4.77,3.26,7.89s-1.09,5.72-3.25,7.88c-2.16,2.16-4.81,3.23-7.93,3.23s-5.82-1.07-7.99-3.22c-2.17-2.15-3.26-4.74-3.26-7.79,0-2.03,.49-3.91,1.48-5.65,.99-1.73,2.34-3.09,4.05-4.07,1.71-.98,3.56-1.47,5.54-1.47"/></g></g></g></svg>