<svg width="166" height="64" xmlns="http://www.w3.org/2000/svg"><g fill="none"><path d="M3.724 61.754c-.023.51-.73.51-.753.972 0 .024-.16.07-.251.07C1.327 62.472.78 61.87.642 60.48c-.023-.208.183-.579-.434-.486-.296.046-.228-.463-.09-.51.684-.207.775-.925 1.369-1.226.388-.185.091-.231-.137-.37-1.233-.695-1.279-1.505-.16-2.338.434-.324.48-.74.023-.903-.616-.231-.411-.694-.297-.902.16-.325.434-.51-.023-.81-.137-.093.023-.302.274-.371.913-.231.936-.787.32-1.504-.297-.348-.8-.926-.091-1.39.296-.184.273-.37.273-.601.023-.833-.32-1.62-.205-2.454.023-.115-.023-.208-.16-.3-.89-.533-.456-.973.137-1.39-.844-.647-.959-1.527-.32-2.268.023-.023.07-.046.07-.07-.435-1.04.501-1.897.456-2.916C1.6 38.7.642 38.006.87 37.011c.069-.278-.09-.602.366-.741.228-.07.274-.278.137-.532-.251-.463-.114-.857.57-.996-.753-.44-.844-.88-.365-1.435a.536.536 0 000-.787c-.616-.625-.662-1.134-.114-1.713.046-.046.183-.046.137-.185-.48-1.389.183-2.754.228-4.12.046-1.157-1.05-2.014-.753-3.148.046-.185-.114-.278-.32-.278-.205 0-.365-.254-.274-.277.594-.232.411-.926.914-1.158.89-.44 1.004-.856.273-1.481-.32-.278-.639-.301.069-.625.776-.347.776-1.713.16-2.338a.747.747 0 01-.046-1.065c.343-.393.457-.67-.068-.995-.092-.046-.137-.139-.206-.185.8-.671-.708-1.412.183-2.222.662-.625-.251-1.76.456-2.546.274-.301-.205-.301-.274-.44-.228-.44-.502-.88.388-.972.16-.023.48.162.503-.232.023-.277.023-.625-.274-.648-.548-.07-.434-.393-.411-.671.046-.44.456-.278.73-.278.936.047 1.804.047 1.964-1.065.045-.37.433-.208.662-.231 3.287-.139 6.552-.255 9.839-.185 1.187.023 2.328-.37 3.538-.07.297.07.822-.648 1.461-.486.366.093.8-.162 1.073.417.16.347 1.233.3 1.393.07.388-.533.822-.278 1.233-.278a46.4 46.4 0 013.104.023c.229 0 .274 0 .434-.185.297-.37.753-.417.982.07a.465.465 0 00.662.231c1.415-.695 2.922-.186 4.36-.348.662-.07 1.347.162 1.963-.324a.765.765 0 01.845.07c.365.3.73.648 1.141-.047.137-.231.525-.092.685.14.274.44.57.462.913.069.183-.209.434-.116.662-.14h3.105c.206 0 .525.255.594-.207.022-.255.388-.232.502-.162 1.141.786 2.214-.37 3.401-.047 1.233.347 2.58.232 3.881.209.57 0 1.21.208 1.69-.325a.58.58 0 01.479-.023c.867.787 1.666-.231 2.557-.046.981.208 2.054.185 3.082.208.342 0 .799.209.958-.393.069-.301 1.827-.093 2.1.208.412.417 1.348.44 1.781-.023.206-.208.434-.139.64-.139.913.046 1.826-.046 2.762.139.48.093 1.187.37 1.666-.393.229-.37 1.187-.186 1.758-.07.427.095.865.134 1.301.116 2.648-.116 5.297.278 7.945.185.342-.023.844.208.936-.393.045-.209.274-.186.48.023.524.532.82.555 1.255.023.114-.14.205-.07.32-.046.798.162 1.78-.325 2.373.578.046.046.252.116.274.07.982-.973 2.26-.278 3.38-.417.775-.093 1.871.231 2.373 0 .73-.324 1.005-.255 1.484.139.069.07.434.023.457-.07.274-.532.502-.81.776 0a.676.676 0 00.365.047c.708-1.065 1.872-.533 2.717-.463 2.808.231 5.616.254 8.424.393.936.047 1.894.116 2.83.093.411 0 .96.208 1.165-.44.045-.139.684-.37.936.185.182.394.662.417 1.004.162.73-.532.936-.532 1.415.232.503-.324.936-1.158 1.553-.093a.664.664 0 00.867.093c.754-.486 1.53-.718 2.237.115.125.124.32.134.457.024.982-.648 2.511-.695 3.401-.047.274.186.389.07.64-.07.388-.23 1.027-.508 1.187.302.068.393.388.278.639.278h7.008c.069 0 .16.023.206 0 .57-.533 1.255-.186 1.895-.232.25-.023.844.255.844-.417 0-.138.571-.162.754-.069.659.415 1.51.33 2.077-.208.069-.047.183-.209.388 0a.713.713 0 001.164-.162c.092-.14.96-.278 1.028-.116.091.278.502.324.525.347.753 1.296.959-.023 1.05-.254.365-.834 1.141-.533 1.575-.348.434.186.936.255 1.21.07 1.347-.857 2.922-.695 4.383-.787 3.082-.209 6.164-.602 9.246-.787.16 0 .456-.046.456-.116.251-1.273 1.461-.463 2.146-.764a9.29 9.29 0 011.279-.44c1.255-.416 2.648-.37 4.017-.3.366.023.137.416.252.625.137.254.479-.232.547.115.092.417-.502.278-.502.394-.045.764-1.027 1.064-1.164 1.643s-.228 1.366.274 1.875c.616.602.502 1.343.297 1.898-.137.417-.069.74-.137 1.111-.137.764.456 1.528-.137 2.315-.114.139-.64 1.11.502 1.157a.769.769 0 01.046.44 12.11 12.11 0 00-.411 2.014c-.183 1.018-.32 1.11.365 2.013.12.188.13.429.023.625-.502.44-.16 1.158-.73 1.551-.024.023-.024.046-.046.07-.457.532.73.624.388 1.134-.297.44-.366.833.228 1.11.137.07.228.255.16.278-.868.417.045 1.343-.662 1.783-.069.046-.046.139-.092.231 1.005.162.366.95.64 1.412a.415.415 0 01.036.38.406.406 0 01-.287.245.437.437 0 00-.229.556c.183.902.388 1.782.16 2.708-.068.278.274.81.388 1.227.32 1.157.023 2.268-.114 3.402-.091.718.091 1.458.205 2.176.069.393.343.764-.342.949-.228.07-.114.393-.068.579.273 1.458.799 2.985.479 4.374-.228 1.019.41 2.2-.57 3.125-.115.093-.183.856.273.995.411.14.343.348.411.602.16.579.091 1.065-.525 1.412-.274.162-.548.301 0 .417.297.046.274.208.297.393.045.556-.57 1.18.182 1.713.069.046.092.44-.16.463-.958.046-.73.579-.684 1.111.08.386-.02.788-.274 1.088-.251.3-.251.903.274 1.389a1.65 1.65 0 01.32 1.875c-.161.3-.255.631-.275.972.023.949-.479 1.875-.137 2.847.069.185-.867.555-1.095.463-.617-.278-1.461-.07-1.576.277-.205.602-.525.51-.958.51-1.06-.015-2.12.039-3.174.162-1.14.162-2.282-.278-3.47-.162-.684.07-1.392.023-1.94.509-.046.046-.456.393-.73-.046-.183-.278-2.078-.209-2.375 0-.844.648-.981.578-2.26.185-.274-.093-1.232-.278-1.506.44a.543.543 0 01-.617.37 9.616 9.616 0 00-1.62.162c-.366.046-.8.185-1.165-.37-.365-.51-1.21 0-1.803.092-.708.139-1.028.185-1.005-.555 0-.394-.388-.417-.753-.417H127.82c-.274 0-.708-.093-.662.347.068.648-.411.579-.845.556-4.634-.209-9.268-.209-13.903-.533-.41-.023-.981-.277-1.255.417-.114.255-.959.3-1.278-.023-.64-.648-1.256-.51-1.918-.162-.137.07-.183.116-.32.046-1.21-.625-1.187-.579-2.488.023-.388.185-1.073.278-1.393-.208a.677.677 0 00-.959-.231c-.798.648-1.712.138-2.51.324-.571.115-.274-.51-.708-.58-.548-.092-.845.371-1.256.371a109.49 109.49 0 01-5.502-.046c-.41-.023-.913.046-1.278-.417-.251-.347-.434.301-.799.301-1.21-.023-2.443.139-3.607-.046-1.491-.196-3-.22-4.497-.07-.662.047-1.37.301-2.1.301-.388 0-.822.093-1.05-.37-.115-.255-.548-.208-.548-.046.045.88-.73.44-.96.393-1.14-.185-2.282-.139-3.4-.139-.229 0-.457-.092-.64.162-.205.301-.41.37-.525-.07 0-.045-.274-.092-.342-.045-1.142.74-2.42.138-3.63.324-.183.023-.411.023-.457-.255-.068-.44-.57-.37-.707-.278-.845.602-1.827.255-2.717.347-.388.047-.845-.115-1.027.37-.023.047-.183.14-.229.117-1.392-.834-2.808.324-4.2-.093-.206-.07-.365.046-.411.278-.114.44-.342.254-.525.023-.411-.51-.48-.556-.685-.07-.16.44-.388.255-.685.209-1.803-.185-3.675-.324-5.387 0a12.436 12.436 0 01-3.676.231c-1.438-.162-2.922-.278-4.292-.07a22.872 22.872 0 01-3.56.302c-.594 0-1.21.115-1.827-.14a.805.805 0 00-.662.07c-.868.88-1.986.324-2.968.394-.57.046-1.164-.37-1.666.162a.303.303 0 01-.457-.047c-.251-.37-.457-.393-.73 0a.486.486 0 01-.366.093c-1.141-.44-2.26.255-3.401 0-1.05-.231-1.986-.671-3.173-.486-2.466.37-4.931.718-7.443.694-1.438.996-3.196.602-4.816.834-1.667.231-3.356.208-5.046.278-.433.023-1.643-.649-1.963-.996-.456-.463-1.21-.486-1.803-.625-.457-.07-.594-.3-.845-.625" fill="#0072CE"/><path d="M71 18.953C71 16.395 72.224 15 74.47 15h5.808C86.574 15 90 17.837 90 23.349c0 5.465-3.293 8.186-9.522 8.186H77.83V38H71V18.953zm6.719 7.396h2.492c2.069 0 3.159-1.07 3.159-2.977 0-1.907-1.112-2.977-3.27-2.977h-2.381v5.954zm14.304-8.073c0-2.215 1-3.276 2.909-3.276h1c1.977 0 3.023 1.061 3.023 3.276v13.588h6.84c2.16 0 3.205.992 3.205 2.93v.092c0 2.007-1.045 3.114-3.205 3.114H92V18.276h.023zm33.882 14.994h-7.217L116.923 38H110l7.986-21.062c.34-1.13 1.29-1.938 4.39-1.938 3.144 0 3.936.807 4.298 1.938L135 38h-7.217l-1.878-4.73zm-6.063-5.074h4.796l-2.398-6.644-2.398 6.644zM136 18.394c0-2.27 1.058-3.394 2.814-3.394h.652c1.62 0 2.139.502 3.084 1.721l7.99 11.044V15.167H157v20.439c0 2.27-1.058 3.394-2.791 3.394h-.54c-1.643 0-2.138-.43-3.061-1.602l-8.126-11.21v12.645h-6.46V18.394H136zM71.005 45.921a.87.87 0 01.213-.668.74.74 0 01.615-.249h.291a.762.762 0 01.636.239.894.894 0 01.238.678V52h-1.993v-6.079zm3.995.061c0-.67.308-.982.813-.982h.198c.462 0 .615.144.88.503l2.263 3.21v-3.665H81v5.964c0 .671-.308.982-.791.982h-.154c-.354.041-.697-.146-.88-.479l-2.329-3.281v3.689H75v-5.94zm8-.058v-.025c0-.607.315-.899.921-.899h4.158c.629 0 .921.316.921.9v.024c0 .607-.315.948-.921.948h-1.057V52H85v-5.128h-1.079c-.584 0-.921-.34-.921-.948" fill="#FFF"/><path d="M89 50.906v-4.715c0-.778.402-1.191 1.13-1.191h4.845v1.872h-3.74v.704h2.786v1.75h-2.787v.802H95V52h-4.845C89.477 52 89 51.635 89 50.906m10.404.135l-.956-1.294h-.373v2.157H96v-5.73c0-.766.373-1.174 1.05-1.174h2.074c1.865 0 2.798.791 2.798 2.277.05.946-.554 1.798-1.446 2.038l1.516 1.942c.07.096-.303.743-1.19.743-.629-.048-.955-.336-1.398-.959m-1.352-2.805h.862c.63 0 .933-.287.933-.79 0-.504-.303-.816-.956-.816h-.863v1.606h.024zm4.97-2.254c0-.67.306-.982.788-.982h.175c.46 0 .614.144.876.503l2.3 3.21v-3.665H109v5.964c0 .671-.307.982-.788.982h-.176c-.352.041-.694-.146-.875-.479l-2.322-3.281v3.689H103v-5.94h.022zm11.435 4.575h-2.022l-.5 1.443H110l2.24-6.399c.086-.336.369-.601 1.238-.601.87 0 1.109.24 1.196.601L117 52h-2.022l-.521-1.443zm-1.696-1.54h1.348l-.674-2.02-.674 2.02zM118 45.924v-.025c0-.607.315-.899.921-.899h4.158c.629 0 .921.316.921.9v.024c0 .607-.315.948-.921.948h-1.057V52h-2v-5.128h-1.1c-.607 0-.922-.34-.922-.948m8.005-.003a.87.87 0 01.213-.668.74.74 0 01.615-.249h.291a.762.762 0 01.636.239.894.894 0 01.238.678V52h-1.993v-6.079zM129 48.488c0-2.023 1.474-3.488 3.5-3.488s3.5 1.442 3.5 3.488c0 2.047-1.45 3.512-3.5 3.512s-3.5-1.465-3.5-3.512m4.974 0c0-.976-.576-1.65-1.474-1.65s-1.474.65-1.474 1.65c0 1 .576 1.652 1.474 1.652s1.474-.675 1.474-1.652m3.048-2.506c0-.67.306-.982.788-.982h.175c.46 0 .614.144.876.503l2.3 3.21v-3.665H143v5.964c0 .671-.307.982-.788.982h-.176c-.352.041-.694-.146-.875-.479l-2.322-3.281v3.689H137v-5.94h.022zm12.435 4.575h-2.022l-.5 1.443H145l2.24-6.399c.086-.336.347-.601 1.238-.601.892 0 1.109.24 1.196.601L152 52h-2.022l-.521-1.443zm-1.696-1.54h1.348l-.674-2.02-.674 2.02zM153 45.993c0-.678.298-.993.849-.993h.298c.573 0 .894.315.894.993v4.142h2.019c.642 0 .94.315.94.896v.024c0 .606-.298.945-.94.945H153v-6.007zM12.105 20.646c-.115.164-.529.913-.575.937-.069.07-.368.491-.437.562-.069.07-.276.772-.345.866-.092.164-.483.515-.506.585a.902.902 0 01-.345.936c-.345.305-.62 1.475-.644 1.569-.069.21-.529.749-.46 1.264a.89.89 0 01-.207.609c-.092.163-.046.772-.39.89-.3.116-.185.631-.116.772.133.286.15.614.046.913a.935.935 0 00.07.678c.252.352-.024.96-.024 1.148-.069 1.076.667 1.38.46 2.036-.138.398.138.726.07 1.124-.047.328.206.468.252.585.101.225.178.46.23.702-.092.586.76 1.428.713 2.295-.046.725.805 1.053.874 1.123.414.515.414 1.124.874 1.428.046.024.529.398.575.445.276.164.023.351.069.445a3.4 3.4 0 001.127 1.334c1.84 2.13 6.21 4.963 6.646 5.01.41.032.806.169 1.15.398.345.304 1.909.866 1.909.866.23.094.46.07.69.14.23.07 1.586.586 1.77.656a8.572 8.572 0 001.61.538c.437.094.897.375 1.334.445.506.094.943-.351 1.38-.07.44.265.922.448 1.426.538 2.185.492 5.29.585 7.497.515.478.096.97.096 1.449 0 .782-.047 1.656-.304 2.414-.35 1.104-.329 2.415-.586 3.473-1.125.368-.093.782-.491 1.012-.515.506-.187 1.242-.866 1.31-.913.07-.046.76-.468.76-.468s.23-.14.46-.304c.16-.117 1.954-1.592 1.954-1.592.138-.304.483-.421.76-.632a.233.233 0 01.091-.117c.106-.091.222-.17.345-.234a.412.412 0 00.161-.117l.07-.07c.022-.047.022-.07.045-.117s.023-.024.046-.024.046.024.092.024.046-.047.046-.07c0-.024.046-.048.07-.094a.09.09 0 000-.14c-.024-.024-.093-.071-.093-.118s.07-.14.115-.187a.17.17 0 01.184.023c.046.024.07.094.115.117.046.024.115-.047.115-.117s0-.07.023-.093c.046-.07-.069-.07-.115-.094-.046-.023.023-.047.023-.07.023-.07-.069-.117-.115-.117a.23.23 0 00-.16.093l-.07.07a.084.084 0 00-.069.024v.047c0 .047-.046.023-.069.023h-.092c-.046 0-.092.024-.138.024-.046 0-.046.046-.069.046a.323.323 0 01-.138.047 1.59 1.59 0 00-.345.14c-.08.05-.164.089-.253.118h-.115c-.023 0-.046-.024-.069 0l-.069.07c-.023.023-.069.023-.092.047a.312.312 0 01-.069.117.23.23 0 01-.115.094.474.474 0 01-.39-.094c-.139-.094-.162-.304-.208-.468 0-.047 0-.14-.115-.117-.046 0-.092.07-.115.093a.975.975 0 01-.528.328c-.115.023-.207.023-.322.047-.115.023-.184-.047-.253-.024-.07.024-.07.047-.092.094-.023.047-.023.07-.046.117-.046.094-.115.094-.207.07-.046-.023-.161-.093-.092-.164.069-.07.184-.093.138-.163-.046-.07-.092 0-.115 0-.07.023-.115.07-.184.07-.07 0-.23-.047-.253-.164v-.07c.023-.024.046-.024.046-.047a.124.124 0 00.092-.07c.023-.047-.023-.07-.023-.117s.115-.094.138-.14a.391.391 0 01.16-.188c.093-.047.23 0 .254-.07.023-.07.023-.188.092-.281.069-.094.16-.094.069-.21-.092-.118-.276-.024-.368.07a.281.281 0 01-.184.093c-.092 0-.046-.07-.023-.117.059-.049.113-.104.16-.164.07-.094.093-.187.208-.164.069 0 .138.024.16-.023.093-.117-.022-.211-.114-.211a.56.56 0 00-.345.117 2.454 2.454 0 00-.253.21c-.07.071-.138.141-.253.094a.084.084 0 00-.07-.023c-.068 0-.114.07-.16.094-.115.093-.23.14-.276-.047-.023-.047.115-.094.138-.117.023-.024.276-.047.322-.047a.598.598 0 00.299-.14c.023-.024.023-.047.046-.07a.161.161 0 00-.005-.209.154.154 0 00-.202-.026 3.289 3.289 0 00-.3.281.367.367 0 01-.252.117c-.092 0-.253-.07-.184-.187.023-.047.138-.047.184-.094.046-.047.092-.117.16-.164a.6.6 0 01.346-.164c.069 0 .207-.023.207-.14 0-.047-.046-.07-.092-.07a.498.498 0 01-.184.023c-.092-.023-.207-.023-.276-.093-.07-.07-.023-.188-.115-.188-.161-.023-.046.094-.092.164s-.3.14-.345.047c-.046-.094.092-.234.184-.258.088-.041.18-.073.276-.093.046 0 .069.023.115-.024.046-.046.046-.14.115-.14s.092-.094.023-.117c-.07-.023-.092.023-.138.023h-.138c-.092.024-.115.117-.161.188a.39.39 0 01-.23.14c-.115.023-.138-.094-.23-.14-.138-.07-.092.093-.138.163-.046.07-.138.094-.207.14a.798.798 0 00-.207.188c-.161.164-.391.14-.598.187-.207.047-.115.07-.207.118-.161.117-.345-.07-.506 0-.023 0-.092.07-.138.093-.046.024-.046-.047-.092-.047a1.784 1.784 0 01-.39-.046.36.36 0 00-.185.14.56.56 0 01-.368.187c-.069 0-.115-.07-.16-.117-.047-.047-.116-.047-.185 0-.069.047-.069.164-.115.21-.046.048-.138.024-.138-.046a.323.323 0 01.07-.094c.022-.046 0-.07-.047-.07-.046 0-.092.07-.115.07a.55.55 0 01-.276 0c-.046-.023-.069-.023-.115-.046a.174.174 0 00-.092-.047c-.069 0-.069.07-.138.093a.24.24 0 01-.184-.023.2.2 0 00-.16-.023l-.139.117a1.09 1.09 0 01-.276 0c-.069 0-.551.023-.735.047-.322.07-.644.187-.966.234-.322.046-1.817.117-2.047.093-.23-.023-1.15-.047-1.265.07a1.085 1.085 0 01-.276 0c-.092 0-.092-.117-.16-.14-.208-.094-.047.117-.277-.047-.16-.117-.39-.07-.644-.07-.437 0-1.173-.117-1.31-.117a1.203 1.203 0 01-.69-.328c-.139-.164-.346-.21-.392-.421-.069-.539.138-1.358.184-1.569.046-.21.115-1.076.184-1.123.07-.047 0-.07.046-.117.3-.305.184-.305.253-.609.092-.515.276-1.24.851-1.405a6.8 6.8 0 00.782-.304c.23-.07.667-.023 1.012-.164a.81.81 0 01.207-.093c.345-.024.667.07 1.012.023.25-.045.505-.06.759-.047.138.024.023-.117.069-.14.16-.047.138.14.345.187.273.047.55.07.828.07.046 0 0-.07.023-.093.092-.117.184.093.253.14.138.117 2.575.398 2.76.421.34.076.696.034 1.011-.117.27-.107.525-.248.76-.421.045-.047-.024-.117 0-.164a.711.711 0 00.16-.562c-.023-.07.023-.14.046-.21.046-.117-.023-.188-.023-.305a.474.474 0 01.092-.304.4.4 0 00.092-.398.86.86 0 00-.322-.304c-.092-.07 0 0 0-.117 0-.07-.184-.024-.184-.024a2.859 2.859 0 01-.483-.07 2.872 2.872 0 00-1.012-.164c-.552 0-1.08-.234-1.632-.187-.092 0-.276.07-.322.047-.092 0 0-.164-.345-.164a4.265 4.265 0 01-.92-.14c-.276-.07-1.035-.024-1.127-.07-.046-.024-.115-.024-.161-.048-.115-.047-.161-.21-.391-.21-.046 0-.092-.094-.138-.094-.092 0-.253.047-.299 0-.092-.094-.322-.14-.368-.281-.069-.304.506-.655.69-.796.184-.14.368-.328.598-.328.138 0 .207-.093.299-.187.207-.234.943-1.264 1.196-1.451.253-.188.069-.468.39-.703.11-.153.202-.318.277-.491.16-.305.115-.796.414-1.007.048-.072.086-.151.115-.234.046-.094-.07-.21-.092-.234a.686.686 0 01-.023-.304c0-.07-.023-.75-.023-.866 0-.211.092-.305.276-.281.137.023 0-.305-.023-.398a.897.897 0 00-.713-.68c-.483-.046-.851.305-1.15.656-.207.234-.76 1.03-.851 1.1-.161.094 0 .164-.207.422-.07.07-.184.047-.23.14-.1.131-.172.283-.207.445 0 .094.023.187-.046.234-.207.164-.253-.07-.345 0a.49.49 0 00-.138.187c-.23.211-.276.281-.506.328-.138.024-.414.047-.506.21-.069.095-.345.118-.368-.093.033-.246.087-.489.161-.725.07-.258-.345-.422-.138-.68a.356.356 0 000-.444c-.023-.07-.115-.351-.138-.398-.115-.164.046-.21-.092-.421-.092-.117-.207.093-.23-.235-.023-.187-.207-.257-.299-.35-.138-.118-.276-.258-.414-.352a3.707 3.707 0 00-1.31-.585 3.262 3.262 0 00-1.426-.047c-.115.024-.322 0-.322-.117 0-.023-.046-.047-.07-.07-.091-.07-.275.023-.39.07-.3.117 0 .258-.161.304-.23.07-.782.258-.943.305a1.09 1.09 0 01-.345.047c-.161 0-.161.14-.368.234-.391.163-.3 1.076-.276 1.287 0 .047.023.14.115.117.092-.023.184.07.16.281a2.455 2.455 0 01-.091.515c-.07.234.092.094.069.328 0 .164.207.749.184.913a.501.501 0 00.069.164c.023.047.046.047.092.047.115.023.092.234.184.444.03.17.11.325.23.445a.47.47 0 01.115.21c.046.071.092.141.046.188-.046.047-.23.21-.3.187a5.046 5.046 0 00-.528-.093c-.207-.07-.483.047-.552 0-.069-.047-.184-.07-.276-.117-.092-.047-.115.093-.161.07-.092-.024-.115-.117-.184-.164-.161-.164-.345-.164-.552-.257a4.045 4.045 0 01-.782-.375c-.253-.187-1.104-.515-1.15-.609-.046-.14-.322-.07-.322-.117-.023-.093-.276-.117-.276-.187 0-.07-.184-.07-.253-.117a.398.398 0 00-.276-.094c-.069.047-.184.094-.253.024a.369.369 0 00-.16-.094.454.454 0 00-.414.117c-.157.12-.303.253-.437.398a1.945 1.945 0 00-.161.304c-.046.094-.138.164-.184.258a.176.176 0 00-.032.167c.019.057.066.1.124.114.138.047 0 .164.115.21.16.094.23.398.437.61.253.233.322.608.39.748.116.211.506.047.575.305.023.117.253.304.667.678.304.229.647.396 1.012.492.644.07.92.375 1.196.562a.95.95 0 01.644.562c.115.21.161.913.23 1.264.115.772.414.632.276.913-.184.351.138.749.138 1.615a2.92 2.92 0 01-.207.796c-.207.492.138 1.124.046 1.334-.115.281-.184 1.358-.414 1.592a.378.378 0 01-.414 0c-.23-.093-.943.094-1.104-.07-.322-.28-.69-.234-.92-.28a2.019 2.019 0 01-.598-.258c-.322-.164-1.586-.632-2.046-.867-1.173-.632-2.783-1.334-2.898-1.966-.046-.257-1.794-1.428-2.07-1.803a6.649 6.649 0 01-.506-.655 6.331 6.331 0 00-.207-.609c-.23-.327-.506-.35-.62-.96-.047-.234-.208-.116-.438-.749-.644-1.638-.552-3.511-.529-4.237.023-.608.552-1.943.69-2.41.092-.282.437-.47.506-.96.023-.165.782-.68 1.035-1.124.291-.433.667-.8 1.104-1.077.207-.14 2.967-2.2 3.197-2.482.2-.32.547-.513.92-.515a.69.69 0 00.46-.327c.046-.305 2.874-1.007 3.334-1.499.138-.163.989-.398 1.426-.491.115-.024.092.117.368-.14.207-.188.667.116.92-.141.322-.328.437-.421 1.08-.398.645.023.576-.351 1.082-.375.276-.023.735-.187.896-.468.115-.21 1.334-.328 1.587-.515.598-.445 1.035.047 1.748-.117.092-.023.391.094.575.07.184-.023.437-.257.552-.046.069.14 1.173.07 1.449.046.092 0 .253-.117.253-.046-.046.14.69.07.85.187a.888.888 0 00.875.21c.23-.07 1.057.07 1.356.164.207.07-.16.188.621.234.506.024 2.254 1.077 2.622 1.148.437.023.552.491 1.012.655.805.304 1.794 1.007 3.794 2.598.092.07.184.422.3.422.505-.024 1.011.96 1.218 1.24.07.07.391-.116.345.469 0 .093.253-.047.276.374 0 .469.828.75 1.035 1.756.023.094.138.187.184.281.138.375.69 2.083.69 2.715.051.719.028 1.44-.069 2.154a14.149 14.149 0 01-.713 2.177c-.16.445-.575 1.03-.598 1.17-.023.141-.138.305-.092.469.023.094.023.257-.092.304-.115.047-.322.14-.322.328 0 .117-.253.117-.253.234.023.164-.276.14-.299.304 0 .094-.253.188-.207.328.023.094-.092.094-.207.117-.162.129-.29.298-.368.492 0 .07-.138.023-.16.257 0 .14-.162.164-.23.281a.874.874 0 01-.185.164.5.5 0 00-.046.328c0 .093-.184.421.046.398.092 0 .115-.117.184-.164a1.54 1.54 0 01.322-.21c.138-.071.322-.094.391-.258.046-.07.115-.234.23-.258a.136.136 0 00.092-.023.318.318 0 00.092-.07c.07-.07.115-.164.184-.235.07-.07.138 0 .161-.07.023-.07-.023-.07.023-.093.046-.024.092-.024.138-.047l.092-.094c.07-.047.161-.093.23-.047.115.07-.276.422-.299.445-.092.117-.138.258-.23.375a2.56 2.56 0 01-.23.257c-.023.024-.069.047-.092.07a.522.522 0 00-.069.117c-.023.047-.115.094-.16.164a1.31 1.31 0 00-.116.188c-.069.093-.115.14-.069.28.006.03.025.057.052.07a.095.095 0 00.086 0c.07-.023.092-.093.115-.163a.419.419 0 01.115-.164c.07-.047.115-.07.184-.117.07-.047.07-.07.115-.117a3.61 3.61 0 01.276-.351.464.464 0 01.184-.187c.046-.024.092-.024.115-.07.023-.048 0-.141.07-.141.068 0 .068.07.068.117a.064.064 0 00.018.052.06.06 0 00.051.018.127.127 0 00.138-.094.3.3 0 01.115-.163c.07-.047.115-.047.184-.094.082-.072.16-.15.23-.234l.161-.164c.046-.047.092-.117.138-.164.046-.047.069 0 .115 0s.046 0 .046-.047.046-.07.069-.07c.069 0 .069.117.069.164v.094c.027.018.06.026.092.023.069 0 .092 0 .069.07-.023.07-.046.07-.069.117l-.23.234c-.023.047-.069.07-.092.117-.092.117-.207.235-.299.375-.092.094-.16.21-.253.304-.046.047-.092.117-.138.164a.666.666 0 00-.138.21 1 1 0 01-.207.235c-.046.047-.023.117-.046.164a.3.3 0 01-.092.14.863.863 0 00-.207.375c-.023.07 0 .187.07.117.068-.07.068-.117.114-.14a.42.42 0 01.161-.047.36.36 0 00.184-.14c.023-.071.023-.165.07-.212.045-.046.114-.023.16-.046a.662.662 0 01.207-.047.533.533 0 00.184-.047l.023-.023a.082.082 0 00.023-.047c0-.024.023-.047.023-.094s-.023-.047 0-.07a.122.122 0 00.046-.094.13.13 0 00-.069-.117c-.046-.023-.138-.07-.138-.14s.023-.07.046-.117a.142.142 0 00.023-.094v-.07c0-.024.023-.047.023-.07 0-.024.046-.07.069-.07.069-.024.092.07.161.093a.385.385 0 00.161.023h.184a.173.173 0 00.115-.046.088.088 0 00.023-.07c0-.047-.069-.094-.069-.141a.336.336 0 01.046-.14.103.103 0 01.138-.047c.115.023.23.164.345.117a.086.086 0 00.048-.049.088.088 0 00-.002-.068c0-.024-.046-.047-.046-.047s-.023-.047-.046-.047a.237.237 0 01.069-.234c.046-.047.115-.14.184-.164.023-.023.069-.023.115-.047h.023c.046 0 .069.07.069.094a.173.173 0 01-.046.14c-.046.07-.115.14-.046.211.07.04.15.056.23.047h.184a.17.17 0 01.069.14.824.824 0 01-.115.188.717.717 0 01-.207.163.323.323 0 01-.138.047c-.07.024-.138.047-.161.117-.023.07.023.094.069.117.046.024.16.07.16.14 0 .165-.137.235-.252.305a.575.575 0 00-.161.094l-.07.07-.045.094c-.07.023-.092-.07-.138-.094a.043.043 0 00-.069 0c-.023 0-.023.023-.023.047 0 .023-.046.023-.046.047v.234c0 .023-.046.07-.023.117s.115.023.138 0c.023-.024.046-.07.092-.094.046-.023.115.07.115.117s-.046.07-.07.094c-.022.023.024.07.047.093.069.024.23-.07.23-.14-.023-.047-.092-.14 0-.164.046-.023.092.024.115.047.029.036.07.061.115.07.046 0 .092-.093.115-.117.057-.052.118-.1.184-.14.092-.07.23-.094.299-.164.075-.11.136-.227.184-.351.019-.057.042-.112.069-.164.092-.094.253-.047.345-.14a.203.203 0 00.069-.141c.023-.047.023-.094.069-.117.046-.024.023-.094.023-.14a.167.167 0 01.069-.141.087.087 0 01.138 0c.069.07.184-.023.253.023.069.047-.023.188-.07.234-.183.14-.137.375-.321.515-.07.047-.161.047-.207.117-.046.07-.046.235-.115.305-.07.07-.092-.047-.138-.024a.18.18 0 00-.046.094v.07c-.023.047-.115.094-.046.14.027.02.06.028.092.024.046 0 .069 0 .092-.047a.051.051 0 01.046-.047c.023 0 .046.047.069.047.023 0 .046.047.069.024a.088.088 0 00.023-.07c.023-.024.046-.047.069-.047.012 0 .023.01.023.023.023.047.115.023.138 0l.069-.07c.04-.067.086-.13.138-.187a.428.428 0 01.184-.164.287.287 0 01.138-.024c.046-.023.092-.07.138-.093.08-.06.165-.115.253-.164.046-.047.138-.094.138 0v.047c0 .023.023.023.023.046 0 .094-.161.14-.207.211v.117c-.023.117-.115.094-.184.14a.638.638 0 00-.207.282c-.023.046-.023.046 0 .117.023.023.069.07.046.093-.023.024-.092 0-.115 0-.092.024-.046.117-.07.164-.022.047-.091-.047-.114.07-.023.07 0 .14-.023.188a.39.39 0 01-.184.14c-.023 0-.046 0-.046.023a.051.051 0 00-.046.047c-.023.024 0 .07-.023.094a.051.051 0 01-.046.047.509.509 0 00-.092.117c0 .023 0 .047.023.047s.046 0 .046-.024h.023c.023 0 .023 0 .023-.023 0-.024.023-.024.046-.024s.046-.023.092-.046c.046-.024.069-.024.092-.047.12-.103.235-.213.345-.328.115-.117.207-.28.322-.398a.555.555 0 01.184-.14c.138-.024.092.093.046.163-.023.024-.023.07-.046.094-.023.024-.046.024-.07.047a.509.509 0 00-.091.117c-.046.07-.092.164-.138.234-.046.07-.115.047-.161.117a.471.471 0 00-.092.187c-.023.047-.046.117.046.117s.115-.07.16-.117c.047-.046.162-.07.23-.117.07-.046.07-.093.093-.164 0-.023.069-.14.092-.14.023-.07.069-.07.115-.117s0-.047.046-.047.184-.047.16.07c0 .07-.068.117-.114.164-.12.133-.221.283-.3.445-.091.164-.068.328-.16.468a.726.726 0 01-.161.21l-.207.141c-.046.07-.115.14-.138.188a.68.68 0 01-.276.234.233.233 0 00-.092.117l-.161.164a.59.59 0 00-.092.164c-.07.07-.115.093-.138.187a.136.136 0 00-.092.023c-.023.024-.046.024-.07.047-.022.023-.045.07-.068.094-.023.023-.07.07-.07.093.024.094.346-.164.369-.187a3.7 3.7 0 01.299-.304l.759-.773c.207-.234.414-.468.62-.726.092-.11.177-.228.254-.35.046-.094.069-.235.16-.282.092-.046.161 0 .23-.046.3-.117.46-.539.667-.773.552-.655 1.242-2.224 1.288-2.388.046-.164.092-.444.368-.515.184-.047.138-.444.184-.632.017-.243.096-.477.23-.679.253-.304.276-.866.3-1.03.091-.374.758-2.809.597-4.752-.023-.374-.023-2.645-.644-3.347-.39-.445.046-.984-.207-1.71-.046-.163.207-.257.253-.42.161-.563-.184-1.03-.46-1.078-.276-.046-.598-.046-.69-.35-.046-.118.184-.656-.115-1.218-.138-.257-.368-.866-2.115-2.27-.575-.469-1.012-1.101-1.541-1.64-.161-.304-1.081-1.123-1.311-1.31-.161-.117-.414-.68-1.173-.96-.253-.094-1.955-1.498-2.139-1.545-.736-.234-1.978-1.147-2.208-1.217-1.264-.305-1.724-1.03-2.207-1.077-.368-.024-1.38-.094-1.909-.703a.836.836 0 00-1.104-.163c-.253.14-1.058-.586-2.208-.445-.23.023-.46-.398-1.333-.281-.874.117-1.403-.445-1.702-.562-.3-.117-2.093-.585-2.898-.538h-.506a17.331 17.331 0 00-4.921 0c-.391.093-5.405 1.428-5.888 1.685-.39.234-1.448.585-1.701.702-.552.258-2.691.96-2.737 1.218-.046.117-.391.14-.46.234a3.319 3.319 0 01-1.288.89c-.437.163-2.53 1.732-2.92 2.06-.391.608-1.633 1.521-1.84 1.661-.483.305-2.622 2.646-2.898 3.02zm51.89 3.748a.63.63 0 01-.286.605h-.095a.121.121 0 01-.095-.03.494.494 0 01-.255-.182c-.031-.03-.063-.09-.095-.12-.032-.031-.095-.092-.127-.152a.192.192 0 01-.032-.182c0-.06.032-.09.032-.151a.42.42 0 01.095-.121.25.25 0 01.16-.061c.317 0 .635.09.698.394" fill="#FFF"/><path d="M51.05 39.961v.006c0 .022-.037.034-.05.045-.013.011-.025.05-.05.034a.165.165 0 01.069-.09c.012-.006.025-.012.031.005" fill="#FFF"/><path d="M50.98 40.102c-.018.018-.038.055-.057.074-.038.055-.096.11-.134.165-.02.018-.039.037-.039.055a3.036 3.036 0 01-.346.35c-.06.06-.124.115-.192.165-.039.019-.135.129-.192.074a.11.11 0 01.019-.147c.02-.037.058-.056.077-.092.019-.037.038-.092.057-.13a.25.25 0 01.097-.146.453.453 0 01.211-.055.213.213 0 00.154-.13c.019-.018.019-.036.038-.054.02-.019.02-.055.039-.074l.077-.073c.038-.037.115-.11.173-.074.057.037.038.055.019.092m5.989.031a.374.374 0 01.028.19c0 .077-.084.115-.14.153-.056.038-.14.076-.196.114a.419.419 0 01-.224.076c-.028 0-.224.077-.14.153.084.076.028.114-.056.152a.233.233 0 01-.224 0c-.056-.076.028-.305.084-.38a.902.902 0 01.196-.191c.084-.039.14-.115.224-.153a.996.996 0 01.224-.19c.112-.115.196-.039.224.076m-3.945-.113c-.02.01-.05.02-.06 0-.01-.02.03-.05.05-.05.02 0 .03.04.01.05m-.033.948c.038.006-.075.011-.113.011a5.226 5.226 0 00-.417.043 3.28 3.28 0 01-.227.026h-.038c-.114.005-.227 0-.19-.021a.733.733 0 01.19-.027c.076-.005.151-.005.227-.016.079-.006.111-.02.076-.032.038-.005.076 0 .114 0 .037 0 .075.006.151.006.053 0 .106-.002.152-.006a.219.219 0 00.075.016m-3.214 1.662c-.168.247-.48.493-.67.302-.192-.192-.097-.356.047-.547.216-.247.694-.465.79-.356.168.191-.096.41-.167.602" fill="#FFF"/><path d="M55.982 41.05c-.02 0-.02-.035-.02-.042v-.021c0-.007-.01-.014 0-.028s.04-.007.06-.007c.02 0 .02.007.02.02a.06.06 0 01-.03.036c-.01.014-.01.035-.03.042m-3.976 0c-.02 0-.04-.06-.03-.087.01-.026.03-.008.04.009.01.017.01.035.01.052 0 .017.01.017-.02.026" fill="#FFF"/><path d="M51.863 40.997c.027-.004.055-.013.082-.018.028-.004.055-.009.055-.014 0-.013-.055-.018-.137-.013a1.7 1.7 0 00-.165.018 7.949 7.949 0 01-.33.018 3.191 3.191 0 00-.356.014c-.027.005 0 .018 0 .027.028.023.247.023.357.019.106 0 .211-.005.302-.014.055-.014.137-.023.192-.037m5.182-.034a.019.019 0 01-.01.03c-.01.01-.02.01-.03.03-.01.02-.02.02-.03.02a.027.027 0 01-.02-.04.071.071 0 01.06-.03c0-.02.02-.02.03-.01m-6.043 2.077h-.01a.04.04 0 01-.03-.06c.02-.02.07-.03.08 0 .01.03-.02.06-.04.06m-1.99-.006c0 .013.008.02-.008.013a.252.252 0 01-.049-.033c-.008-.007-.008-.02.008-.027a.249.249 0 01.057-.033c.017-.007.04-.007.025.013a.155.155 0 01-.033.034v.033m8.004.921c.03 0 .01.1-.03.09-.04-.01 0-.1.03-.09m-.968.004a.07.07 0 01-.03.077c-.012.009-.025.017-.037.013a.045.045 0 01-.03-.026.056.056 0 01.026-.06.047.047 0 01.033-.013c.008 0 .033 0 .038.009m.002 1.024c0 .01-.009.02-.018.03a.03.03 0 01-.026.01.05.05 0 01-.052 0c-.01-.01 0-.02.008-.02.01 0 .018-.02.027-.02a.048.048 0 01.035-.01c.017-.01.026 0 .026.01M40 19.486c-.005.104-.076.203-.2.281-.057.032-.086.094-.143.125-.058.032-.143.047-.2.079a.604.604 0 01-.373 0c-.171-.079-.028-.157-.028-.266-.047-.129-.006-.262.114-.375a.802.802 0 01.372-.266c.086-.031.172-.094.286-.047.2.125.115.328.172.469m-2.295.814a.875.875 0 00.201.3c.1.083.126.317.05.317-.175.016-.125.083-.2.083-.126 0-.578 0-.703-.2a.278.278 0 01-.05-.2c0-.084.025-.334.025-.484 0-.15.25-.134.376-.067.11.078.21.162.301.25M43 20.142c-.03.165-.242.26-.151.448.015.118-.076.189-.122.189-.15.07-.317.306-.469.189-.06-.19-.272-.213-.257-.472.075-.213.227-.165.333-.354.045-.071.605-.236.666-.071v.07zm-6.002 1.286a.845.845 0 01-.051.366c-.085.183-.254.152-.305.183a.624.624 0 01-.338 0 .76.76 0 01-.253-.244c-.033-.145-.05-.3-.051-.457.043-.133.118-.223.203-.244a.305.305 0 01.321.03c.186.184.355.062.423.153a.976.976 0 01.05.213" fill="#FFF"/><path d="M41.79 23.163a3.182 3.182 0 01-2.15 1.691c-.471.106-1.022.291-1.441-.052a1.334 1.334 0 00-.42-.291c-.21-.08-.262.026-.42-.106a.718.718 0 01-.104-.396c.026-.106-.052-.185-.079-.265a.856.856 0 01-.157-.475.956.956 0 01.105-.661c.052-.08.236-.45.052-.476-.078 0-.078-.211.053-.317.183-.159.288-.82.944-1.031.498-.159.786-.74 1.31-.767.248-.039.5-.012.734.08.21.106.498.132.63.317.078.132.471.317.629.581.105.185.34.344.393.556.056.2.1.402.131.607-.05.34-.12.675-.21 1.005m-1.232-1.322a1.632 1.632 0 00-.367-.37 3.347 3.347 0 00-.498-.105c-.34-.106-.524.211-.813.237-.104.027-.183.159-.262.212-.262.185-.472.872-.524 1.03a.514.514 0 00.42.635c.22 0 .44-.027.655-.08.33-.12.62-.331.839-.607.157-.185.262-.423.42-.608.209-.238.13-.317.13-.344m2.336 1.356c.06.03.119.092.104.243-.015.152-.06.091-.104.122-.074.06-.045.334-.149.334-.053-.003-.105.03-.148.091-.132.037-.266-.005-.386-.121a.23.23 0 01-.06-.122c-.062-.028-.105-.143-.103-.273 0-.061-.015-.061-.03-.122-.044-.121 0-.243.06-.273a.122.122 0 00.103-.03.315.315 0 01.327 0c.06.03.119.03.163.06.074.03.208.091.223.091m-5.946 1.073c0 .027.035.08.035.08.054.107-.035.24-.089.294a1.342 1.342 0 00-.215.186 3.053 3.053 0 01-.25.16.786.786 0 01-.25 0c-.09-.027-.16-.132-.179-.266.054-.48.43-.56.68-.72.16-.027.286.08.268.267m3.639.789a.611.611 0 01.279.258c.065.1.108.208.127.319.05.139-.178.179-.228.278a.182.182 0 01-.102.08c-.076.02-.177-.02-.253-.04-.076-.02-.178-.02-.228-.08a.278.278 0 01-.077-.179.41.41 0 00-.05-.238.142.142 0 01-.05-.08v-.1c-.026-.099.075-.099.05-.179-.001-.041.028-.08.076-.099.086.004.172.017.253.04a.25.25 0 01.203.02" fill="#FFF"/><path d="M38.914 25.129a.328.328 0 010 .442 1.98 1.98 0 01-.313.313c-.057.037-.086.093-.143.111a.569.569 0 01-.371-.074.198.198 0 01-.086-.11c-.028-.332.371-.811.571-.811.143 0 .228.11.342.129m12.831 20.09c-.181.101 0 .474-.109.61a.42.42 0 01-.509.136c-.182-.068-.145-.17-.036-.306v-.101a.116.116 0 01.036-.068c.037-.034.073-.102.037-.136-.037-.034-.073-.034-.073-.068s-.036-.067 0-.135a.193.193 0 01.036-.136c.037-.034.073 0 .11 0l.218.102a.23.23 0 00.145.034.14.14 0 00.11-.034c.035-.034.072-.034.108-.068.037-.034.182-.034.182.068 0 .034 0 .17-.073.135-.072-.033-.036-.033-.072-.067-.037-.034-.073.034-.11.034m-2.757-2.178c-.015 0-.02.012-.03.008-.01-.004-.01-.012-.005-.02s0-.016.005-.02c.015-.017.045 0 .055-.025.005-.008.02-.049.034-.028.01.012-.01.032-.005.044a.024.024 0 01-.005.02.107.107 0 01-.024.017.053.053 0 01-.025.004m3.002-4.057a.045.045 0 00-.03.03c-.01.03.02.02.04.01s.05-.03.04-.05a.032.032 0 00-.05.01m3.053.996c-.01-.02-.09 0-.09.03s.12.02.09-.03m-.031-1.004c-.016 0-.032-.059-.047 0-.008.02-.024.04-.008.06a.05.05 0 00.07 0c.016-.01.032-.04.016-.06a.02.02 0 00-.031 0m-2.134.054c-.09-.03-.209.12-.239.15a1.652 1.652 0 00-.388.511 1.384 1.384 0 01-.209.21c-.03.03-.06.06-.03.09s.18-.03.21-.06a.412.412 0 00.119-.09c.03-.03.09-.06.12-.09l.089-.09.119-.12.09-.09c.06-.06.119-.15.179-.21s.09-.18.03-.24a.13.13 0 00-.09.03m3.162-.075h-.035c-.042-.006-.042-.017-.049.024 0 .005-.014.07 0 .07s.05-.035.063-.047c.007 0 .05-.047.021-.047" fill="#FFF"/><path d="M56.045 38.958c.015.008-.01.049-.02.065-.009.016-.029.008-.043.016-.009.01-.02.014-.03.008-.005-.008 0-.024 0-.032s.01-.016.02-.024l.024-.025c.014-.018.034-.021.05-.008m-4.023.992c.048-.007.02.04.01.049-.01.008-.047.047-.057.047-.066.024.01-.08.047-.095" fill="#FFF"/><path d="M52.048 39.953c-.016-.015-.038.03-.059.045-.021.016-.059.026-.027.046s.048-.015.059-.03c.01-.016.037-.046.027-.061m3.932.005c0 .01-.02.02-.02.03v.04c.01 0 .01.02.02.02h.03c.01-.01.03-.02.03-.04a.138.138 0 01-.03-.04c-.01 0-.03-.03-.03-.01m-.16.992c-.234 0-.615 0-.76.03-.147.032 0 .058.204.067.129.006.27.003.38-.009.088-.009.088-.03.147-.044.058-.013.204-.009.204-.026.03-.01-.087-.018-.175-.018m2.22.002c-.03.013-.097.046-.09.098.03.006.133-.117.09-.098" fill="#FFF"/><path d="M55.033 40.989c-.024 0-.074-.06-.082.01-.009.07.066.02.099.01v-.01c0-.01-.008-.01-.017-.01m-8.988 2.971c-.01-.028-.034.01-.043.02-.006.01-.012.016-.02.018-.01 0-.02-.01-.029.01-.01.018.005.028.015.028.01-.002.02.001.029.01.024.008.038.008.053-.039-.005-.018 0-.037-.005-.047" fill="#FFF"/><path d="M46.043 43.962c-.007-.02-.014 0-.014.01a.058.058 0 01-.043.01c-.011 0-.022.008-.029.02-.007 0-.007.03-.007.04 0 .01.029 0 .036-.01a.043.043 0 01.028-.01c.036 0 .043-.03.03-.06m3.939.03l-.027.032c-.004.005-.009.01-.004.021.004.011.018 0 .022-.005.005-.005.018-.005.022-.01l.018-.022c.009-.01.031-.021.036-.043.004-.032-.031-.005-.04 0a.126.126 0 00-.027.027" fill="#FFF"/><path d="M49.956 43.995c.009.025.025.043.045.049.014.007.049.014.049-.014a.064.064 0 00-.01-.028c-.005-.014-.005-.014-.02-.014-.014 0-.02.007-.03 0-.009-.007-.034-.05-.039-.035-.005.014.005.035.005.042" fill="#FFF"/><path d="M49.95 44.011c0 .012.007.018.02.03.053.028.033-.012.053-.041.006-.012.033-.023.026-.04-.013-.029-.105.011-.099.051m1.048.018a.063.063 0 00.018-.016c.008-.01.026-.02.03-.031 0 0 .009-.032 0-.032s-.022.026-.035.037c-.013.01-.065.037-.06.052 0 .006.012.011.017.011.004 0 .004-.005.013-.016.008.005.013 0 .017-.005m.046.921a.068.068 0 00-.034.015c-.009.008-.026.008-.043.016-.017.007-.017.007-.017.023 0 .012.007.023.017.03a.05.05 0 00.043.016c.017 0 .025-.016.017-.031-.009-.015-.009-.008-.009-.015 0-.008.009-.008.017-.016.009-.007.017-.015.009-.023.008-.015.008-.015 0-.015m-1.013.015a.033.033 0 00-.028.01c-.01 0-.019.01-.028.01-.01 0-.037.03-.019.04a.053.053 0 00.038.01h.028c.01 0 .01-.01.018-.02a.039.039 0 00.01-.03l-.019-.02m1.945 1.015c-.009.008-.017.008-.022.035-.004.026-.008.035.005.035.013 0 .039-.035.056-.044 0 0 .039-.053.035-.053-.026-.008-.052 0-.074.027m-1.819.005c-.023.008-.157.028-.157.04 0 .02.134.016.224.02.224.008.537.012.694-.024.076-.017.101-.039.067-.06-.067-.023-.157-.003-.269 0-.246.004-.403-.02-.56.024m2.882-1.017c-.038.006-.038.006-.038.011 0 .006.076.012.151.018.143.004.275.014.379.029.076.006.114.023.19.023.045.002.095 0 .132-.004.037-.005.058-.012.057-.019 0-.012 0-.018.037-.023.038-.006.076-.012.038-.024a1.605 1.605 0 00-.34-.029c-.09 0-.18.001-.265.006a1.308 1.308 0 01-.152.006c-.038.006-.113 0-.19.006" fill="#FFF"/></g></svg>