<?xml version="1.0" encoding="UTF-8"?><svg id="Layer_2" xmlns="http://www.w3.org/2000/svg" viewBox="0 0 324.97 53.78"><defs><style>.cls-1{fill:#fff;fill-rule:evenodd;}</style></defs><g id="svg"><g id="svgg"><path id="path1" class="cls-1" d="m299.74.53c-.06.29-.1,10.4-.1,22.46,0,20.77,0,21.93-.29,22.14-.39.28-1.18.11-1.72-.38-.23-.21-.6-.44-.83-.5-.23-.07-.63-.3-.89-.52-.26-.22-.58-.39-.72-.39s-.42-.18-.64-.39c-.22-.22-.61-.45-.87-.51-.26-.07-.66-.29-.89-.5-.23-.21-.7-.48-1.05-.59s-.68-.31-.72-.43c-.05-.12-.36-.31-.7-.42-.33-.11-.76-.33-.94-.49-.18-.16-.5-.35-.71-.41-.21-.06-.58-.28-.83-.49-.25-.21-.71-.47-1.02-.57-.31-.11-.67-.33-.79-.51-.12-.17-.47-.36-.78-.42-.31-.06-.74-.29-.95-.52-.55-.59-1.3-.55-1.97.09-.29.28-.63.5-.76.5s-.46.19-.73.42c-.27.23-.57.42-.66.42s-.44.22-.79.5c-.35.28-.77.5-.95.5s-.49.19-.71.42c-.21.23-.62.5-.91.6l-.52.18.69.53c.78.59.84.63,1.64,1.02.93.45,1.57.83,2.06,1.21.25.2.68.41.95.47.27.06.61.28.75.49.16.25.48.42.91.49.4.06.72.23.83.43.1.18.46.4.81.5.35.09.77.32.93.5.16.18.51.37.78.43.27.06.58.24.69.4.11.16.48.38.81.49.33.11.76.38.96.61.2.23.54.41.77.41s.67.22.98.5c.31.28.73.5.92.5s.51.16.7.35c.19.19.61.46.92.59.32.13.61.34.66.47.05.12.42.32.83.43.41.12.82.34.9.51.09.16.4.35.7.42.3.06.77.32,1.05.56.62.54,2.32,1,2.61.71.11-.11.32-.19.47-.19s.56-.22.91-.5c.35-.28.76-.5.93-.5s.51-.18.77-.4c.26-.22.77-.48,1.14-.58.36-.1.75-.32.86-.5.12-.18.48-.37.86-.43.92-.15.86,1.4.84-23.73-.02-24.5.02-23.35-.82-23.57-.32-.08-.75-.33-.96-.55-.21-.22-.56-.4-.77-.4s-.67-.22-1.02-.5c-.35-.27-.76-.5-.92-.5s-.57-.23-.92-.5c-.35-.27-.76-.5-.93-.5s-.35-.08-.4-.17c-.19-.31-.37-.17-.48.37m-3.09.27c-.1.18-.46.42-.8.53-.34.11-.83.37-1.08.58s-.67.43-.94.49c-.27.06-.62.25-.78.43-.16.18-.38.32-.49.32s-.53.22-.93.5c-.4.27-.86.5-1.02.5-.16,0-.49.19-.73.42-.25.23-.74.5-1.1.59s-.69.28-.74.42c-.05.13-.4.33-.78.44-.38.11-.88.36-1.11.57-.23.21-.64.43-.92.49-.27.06-.69.28-.92.49-.23.2-.65.45-.95.55-.29.1-.68.33-.88.52-.19.19-.48.35-.65.35s-.51.18-.77.4c-.25.22-.74.48-1.09.58-.35.1-.67.3-.72.43-.05.13-.42.32-.81.43-.39.1-.81.31-.92.45-.11.15-.4.4-.65.56l-.44.29.56.29c.31.16.66.43.78.6.12.17.4.31.62.31s.66.22.97.5c.31.28.68.5.83.5s.47.18.74.41c.26.22.68.46.93.52.25.06.55.25.67.43.38.54,1.22.59,1.74.11.25-.23.73-.47,1.07-.53.34-.06.68-.21.75-.33.18-.3.78-.6,1.2-.6.18,0,.51-.18.72-.41.21-.22.71-.48,1.11-.57.4-.09.83-.31.96-.49.13-.19.52-.38.88-.44.38-.06.79-.28,1-.52.23-.26.53-.41.86-.41s.65-.15.9-.42c.22-.23.66-.47.98-.52.32-.05.76-.28.96-.49.21-.22.66-.44,1.02-.5.94-.15.99-.4.99-4.97V.58l-.42-.05c-.29-.03-.48.06-.6.28m12.66,4.43c-.12.15-.16,6.82-.13,21.78l.04,21.57.57-.03c.35-.02.68-.16.83-.36.14-.18.42-.38.62-.44.2-.06.56-.29.8-.52.24-.23.59-.41.76-.41s.57-.21.87-.48c.3-.26.73-.53.96-.6.23-.07.64-.37.92-.66l.5-.54-.08-17.82c-.09-19.36-.06-18.72-.96-18.73-.16,0-.62-.23-1.02-.5-.4-.27-.8-.5-.89-.5s-.38-.19-.65-.42c-.27-.23-.64-.42-.82-.42s-.52-.2-.76-.44c-.55-.55-1.3-.78-1.54-.49m8.6,4.85c-.15.4-.12,33.46.03,33.7.2.32,1.14.07,1.44-.4.14-.22.36-.4.48-.4s.51-.22.85-.5.77-.5.94-.5.47-.19.67-.41c.2-.23.61-.46.92-.52.31-.06.65-.24.76-.39.11-.16.37-.38.58-.49l.38-.2v-13.13q0-13.13-.35-13.45c-.35-.32-1.02-.7-2.57-1.46-.46-.23-.94-.53-1.05-.67-.12-.14-.44-.31-.73-.37-.28-.06-.67-.28-.86-.49-.47-.51-1.35-.7-1.5-.33m-42,4.45c-.15.75-.09,23.48.07,23.96.07.23.14.32.15.2,0-.12.3-.33.64-.48s.72-.4.84-.57c.12-.17.48-.36.8-.42.34-.06.69-.27.84-.49.14-.21.45-.43.69-.49.24-.06.65-.29.92-.51.26-.22.58-.41.71-.41s.49-.25.82-.56l.6-.56v-15.68l-.59-.52c-.32-.28-.69-.52-.81-.52s-.33-.12-.45-.27c-.12-.15-.56-.42-.97-.59-.41-.18-.85-.47-.97-.64-.12-.18-.41-.33-.63-.33s-.66-.22-.97-.5c-.31-.28-.65-.5-.76-.5s-.33-.14-.5-.32c-.31-.31-.32-.31-.42.19m-211.97.05c-1.52.13-2.2.25-2.42.45-.16.15-.64.43-1.05.63-1.8.86-3.33,1.99-3.33,2.47,0,.11-.19.32-.42.47-.23.15-.42.41-.42.58s-.22.56-.48.86c-.28.32-.53.84-.6,1.25-.07.39-.28.91-.48,1.16-.55.69-.56,5.94-.01,6.48.2.2.43.76.54,1.33.13.66.3,1.06.53,1.19.18.11.33.31.33.43,0,.3,3.08,3.44,3.38,3.44.12,0,.47.18.78.41.3.22.93.49,1.4.59s.99.31,1.17.47c.39.36,5.53.44,5.75.09.16-.26.77-.48,1.74-.62.52-.08.85-.22.96-.43.09-.17.44-.4.79-.51.34-.11.76-.38.93-.6.17-.21.42-.39.55-.39s.33-.19.43-.41c.1-.23.32-.46.49-.51.17-.05.35-.26.41-.46.06-.2.25-.52.41-.7.17-.18.45-.68.63-1.11.18-.43.41-.8.5-.83.47-.17.9-4.36.63-6.1-.15-.92-.27-1.91-.27-2.19,0-.31-.14-.67-.35-.87-.19-.19-.43-.62-.52-.95-.09-.33-.35-.79-.58-1.02-.23-.23-.85-.87-1.39-1.42-1.39-1.43-2.19-2.08-2.54-2.08-.38,0-.98-.31-1.21-.62-.3-.4-3.83-.66-6.28-.46m31.87-.04c-2.22.17-2.36.2-2.83.62-.22.19-.59.39-.82.44-.52.12-2.5,2.03-2.51,2.41,0,.15-.19.54-.42.88-.57.85-.63,3.69-.08,4.18.18.17.41.59.51.94.09.35.25.64.34.64s.37.2.61.44.78.54,1.19.67c.41.12.88.35,1.05.5.2.18.91.34,2.11.48,1.1.13,1.98.32,2.24.49.28.18,1,.32,2.06.41,1.37.11,1.75.2,2.28.57.35.24.76.48.92.53.15.05.48.48.72.97.65,1.29.69,1.52.31,1.88-.18.17-.33.41-.33.54,0,.58-.56,1.26-1.3,1.59-.43.19-.86.46-.96.6-.53.73-6.6.67-7.41-.06-.17-.15-.67-.35-1.11-.43-.44-.08-.91-.29-1.06-.46-.39-.47-2.11-.79-2.45-.45-.68.68.3,2.43,1.36,2.43.22,0,.61.18.87.39.29.25.87.46,1.54.58.59.1,1.21.32,1.39.48.55.49,5.23.53,6.16.05.37-.19,1.05-.42,1.51-.51.52-.1,1.04-.34,1.4-.66.31-.28.71-.5.89-.5s.36-.15.42-.34c.06-.19.29-.51.51-.71.65-.61.96-3.35.59-5.2-.14-.68-1-1.77-1.56-1.97-.16-.06-.29-.22-.29-.36s-.17-.29-.38-.33c-.21-.04-.59-.12-.85-.18-.26-.06-.68-.25-.93-.44-.34-.25-.87-.38-2.02-.48-.97-.09-1.85-.27-2.32-.48-.41-.19-1.09-.35-1.5-.36-1.19-.02-2.08-.25-2.47-.64-.2-.2-.46-.36-.59-.36-1.17,0-1.89-2.97-.97-4.04.26-.3.52-.68.58-.84.06-.16.2-.29.32-.29s.41-.21.63-.48c.3-.34.64-.51,1.2-.59.43-.06.79-.18.79-.26,0-.58,3.23-.7,4.26-.16.36.19,1.1.41,1.64.49.56.08,1.13.28,1.33.47.19.18.64.41.98.52.34.11.69.31.76.45.18.31.98.14,1.18-.25.46-.9.39-1.52-.21-1.78-.32-.13-.64-.34-.72-.47-.07-.12-.5-.31-.94-.42-.44-.11-1.02-.36-1.28-.55-.38-.28-.86-.38-2.28-.5-.99-.08-1.91-.16-2.05-.18-.14-.02-1.04.02-2,.09M.05,14.86c-.05.12-.06,5.13-.04,11.13l.04,10.92h2.17l.08-3.47c.1-4.38-.4-3.94,4.63-3.94h3.9l.49-.42c.27-.23.67-.42.89-.42.26,0,.78-.4,1.6-1.21,1.79-1.8,1.79-1.79,1.98-2.96.1-.6.28-1.48.41-1.97.2-.74.2-.95.01-1.32-.12-.24-.31-.95-.42-1.59-.12-.7-.29-1.19-.43-1.25-.13-.05-.37-.34-.52-.65-.31-.61-1.93-2.07-2.29-2.07-.12,0-.47-.21-.77-.46l-.54-.46-5.55-.05c-4.44-.04-5.57,0-5.64.17m27.11-.03c-.34.14-.38.24-.29.68.06.29.1,5.05.1,10.59v10.07l.44.41c.59.55,1.48.56,1.62.03.06-.21.1-1.73.1-3.39,0-3.78-.12-3.6,2.55-3.69,3.02-.1,3.35.06,4.37,2.24.14.29.42.71.63.93.36.38.68.86,1.33,2.03.16.28.39.59.51.68s.32.34.43.55c.36.67,1.16,1.03,2.31,1.03,1.05,0,1.31-.18.72-.49-.18-.1-.37-.4-.43-.68-.06-.28-.29-.7-.51-.94-.22-.24-.4-.5-.4-.57s-.21-.38-.48-.68c-.26-.3-.54-.74-.61-.96s-.31-.58-.52-.78c-.22-.2-.39-.47-.39-.61s-.19-.36-.42-.51c-.82-.54-.25-1.75.97-2.09.42-.12.89-.36,1.06-.55.17-.18.47-.4.68-.48.21-.08.43-.28.48-.44.06-.16.27-.48.48-.71.21-.23.47-.72.58-1.08.12-.37.35-.86.52-1.09.47-.64.47-3.86,0-4.5-.18-.25-.42-.78-.53-1.18-.11-.4-.34-.88-.52-1.07-1.53-1.6-1.9-1.92-2.24-1.92-.21,0-.62-.21-.92-.46l-.54-.46-5.34-.04c-3.21-.02-5.5.03-5.74.13m90.26-.06c-.14.14-.15,21.33,0,21.85l.1.38h15.44l.11-.75c.06-.41.07-.94,0-1.17l-.1-.42h-6.41c-6.16,0-6.41-.01-6.58-.32-.27-.51-.23-6.26.05-6.49.15-.12,1.98-.2,5.62-.23l5.4-.04v-2.33l-5.4-.04c-3.65-.03-5.48-.1-5.62-.23-.41-.34-.32-7.58.1-7.81.2-.11,2.58-.17,6.57-.17h6.25l.11-.72c.06-.4.08-.9.05-1.12l-.06-.4-7.76-.04c-4.27-.02-7.81,0-7.88.07m26.84,0c-.07.07-.12,5.1-.12,11.18v11.06l1.12-.05,1.12-.05.08-3.45c.1-4.18-.11-3.87,2.63-3.93,2.56-.06,3.15.15,3.5,1.2.12.36.35.75.52.87.17.12.4.44.51.72.12.28.28.51.37.51s.31.34.49.76c.18.42.44.8.57.85.13.05.28.23.33.4.06.17.36.62.67,1,.32.38.57.79.57.92,0,.18.31.23,1.46.22.8-.01,1.33-.05,1.17-.1-.19-.05-.29-.24-.29-.54s-.19-.66-.5-.99c-.27-.29-.5-.66-.5-.83s-.21-.54-.46-.82c-.81-.9-1.35-1.72-1.46-2.21-.06-.26-.25-.52-.42-.58-1.01-.32-.34-2.25.77-2.25.35,0,1.21-.63,2.05-1.53.98-1.03,1.35-1.64,1.5-2.45.09-.47.28-1.07.42-1.34.14-.27.26-.84.26-1.26s-.12-.99-.26-1.26c-.14-.27-.33-.87-.41-1.34-.1-.52-.35-1.08-.66-1.45-.28-.34-.5-.7-.5-.82s-.17-.29-.38-.4c-.21-.11-.52-.36-.71-.57-.18-.2-.6-.47-.92-.59-.32-.12-.76-.37-.97-.56-.4-.36-11.24-.66-11.58-.33m26.71.19c0,.16.15.42.32.57.18.15.37.56.43.91.06.35.28.9.49,1.22s.43.91.49,1.32c.06.41.29.95.52,1.22.25.3.41.7.41,1.03,0,.31.17.77.41,1.09.23.31.49.95.59,1.43.1.48.32,1,.49,1.15.17.15.36.61.42,1.01.06.4.27.93.46,1.17.19.24.41.79.49,1.21s.33,1.04.56,1.37c.23.33.41.83.41,1.12,0,.3.16.72.4.99.22.26.48.87.58,1.35.1.49.33,1.09.51,1.33.18.25.37.73.42,1.06.14.81.37.97,1.69,1.15.61.09,1.18.2,1.25.24.08.05.26-.16.42-.46.15-.3.42-.7.59-.89.17-.19.38-.7.46-1.13.08-.43.27-.92.41-1.08.15-.16.35-.7.46-1.2s.35-1.07.52-1.27c.18-.2.39-.71.47-1.14.08-.42.29-.96.47-1.19.18-.23.41-.81.51-1.3.1-.49.33-1.02.5-1.18.17-.16.37-.62.43-1.02.06-.4.24-.9.41-1.12.17-.21.41-.81.55-1.32.13-.52.4-1.14.6-1.39.19-.25.35-.69.35-.99,0-.34.15-.73.4-1.03.23-.27.45-.82.52-1.28.07-.46.29-1,.53-1.28.27-.32.42-.72.44-1.2l.03-.72h-2.32l-.17.69c-.1.38-.31.84-.47,1.01-.16.17-.36.68-.44,1.11-.08.44-.31,1.01-.51,1.28-.2.26-.42.82-.5,1.24-.08.42-.29.92-.48,1.12-.19.21-.38.73-.45,1.22-.06.48-.25,1.01-.43,1.2-.18.19-.4.73-.5,1.19s-.32.98-.48,1.13c-.16.16-.38.69-.49,1.18-.1.49-.34,1.08-.52,1.32-.18.23-.38.72-.44,1.08-.06.36-.28.87-.5,1.12-.22.26-.39.68-.39.97,0,.7-.5,1.28-.97,1.13-.2-.06-.37-.18-.37-.26s-.23-.38-.5-.66c-.34-.35-.5-.68-.5-1.04,0-.29-.19-.8-.42-1.14-.23-.34-.48-1-.56-1.47-.08-.48-.29-1.02-.48-1.23-.19-.2-.4-.67-.46-1.04-.06-.37-.29-.93-.5-1.25-.21-.32-.44-.92-.5-1.33-.06-.41-.27-.92-.45-1.12-.18-.2-.4-.72-.48-1.16-.08-.44-.3-.95-.48-1.14-.18-.19-.41-.76-.5-1.25-.09-.49-.31-1.03-.49-1.2-.18-.17-.37-.65-.44-1.09-.19-1.25-.76-1.72-2.14-1.72-.94,0-1.1.04-1.1.3m31.45-.19c-.14.14-.15,21.33,0,21.85l.1.38h15.44l.11-.75c.06-.41.07-.94,0-1.17l-.1-.42h-6.31c-5.9,0-6.32-.02-6.58-.31-.35-.39-.42-6.15-.08-6.49.15-.15,1.61-.2,5.56-.2,6.08,0,5.73.09,5.58-1.42l-.1-1-5.4-.04c-3.65-.03-5.48-.1-5.62-.23-.36-.3-.32-7.36.04-7.72.23-.23,1.06-.26,6.58-.26h6.31l.1-.55c.06-.3.08-.81.05-1.12l-.06-.57-7.76-.04c-4.27-.02-7.81,0-7.88.07m26.83,0c-.16.15-.14,21.43.02,21.67.49.77,1.97.72,2.19-.07.26-.94.24-21.24-.02-21.51-.21-.21-2-.28-2.19-.09m13.09.09c-.22.22-.26.81-.1,1.61l.1.52h3.6c3.3,0,3.65.03,4.15.33l.54.33v9.21c0,10.25-.02,10.01,1.05,10.1.96.08.95.16.96-10.02,0-5.06.06-9.29.13-9.4.29-.45,1.16-.55,4.72-.55h3.66l-.05-1.12-.05-1.12-9.26-.04c-7.06-.03-9.3,0-9.46.16m-174.76,1.79c.29.18.82.37,1.17.43.84.14,1.55.42,1.55.6,0,.08.26.27.58.43.32.15.62.41.68.58s.21.3.34.3.37.23.53.5c.16.28.41.54.57.59.16.05.33.26.39.46.06.2.28.55.49.78s.43.74.49,1.14c.06.4.26,1.01.44,1.37.46.9.46,2.84,0,3.7-.18.34-.38.94-.44,1.33-.06.39-.28.9-.48,1.13-.21.23-.43.6-.5.83-.24.8-2.76,3-3.45,3-.16,0-.42.15-.6.33-.71.76-5.71.93-6.67.22-.25-.18-.73-.42-1.08-.54s-.75-.39-.89-.61c-.14-.22-.35-.4-.45-.4-.1,0-.49-.34-.86-.76-.37-.42-.87-.96-1.11-1.21-.24-.25-.53-.77-.63-1.16-.1-.39-.25-.71-.33-.71-.66,0-.73-5.97-.08-6.69.19-.21.43-.63.53-.93.35-1.03,2.14-2.97,3.05-3.29.26-.09.57-.3.69-.46.13-.18.57-.35,1.09-.43.48-.08,1.01-.25,1.17-.4.62-.55,3-.64,3.82-.13m-56.17.97c1.1.91,1.58,1.43,1.84,2.03.14.32.36.71.49.86.87.98.13,3.64-1.43,5.11-.42.4-.93.88-1.14,1.08-.53.51-8.02.67-8.55.18-.45-.41-.49-8.91-.04-9.55l.27-.39,3.96.08,3.96.08.64.52m26.85-.24c.3.16.54.34.54.41s.22.25.48.41c.26.16.58.53.69.83.12.3.37.72.56.93.51.57.52,3.63.01,4.22-.18.21-.47.65-.63.98-.26.52-.7.88-2.19,1.79-.63.39-8.06.21-8.36-.2-.39-.54-.34-8.95.06-9.29.51-.44.71-.46,4.54-.41,3.16.04,3.83.09,4.29.33m115.91-.25c1.35.15,2.88,1.3,3.26,2.44.12.35.34.73.5.85.48.35.41,2.91-.09,3.44-.21.22-.38.53-.38.68,0,.28-1.03,1.36-2.02,2.12-.73.56-8.09.76-8.67.23-.44-.4-.49-8.91-.05-9.53.28-.4,4.68-.54,7.44-.23"/></g></g></svg>