<?xml version="1.0" encoding="utf-8"?>
<!-- Generator: Adobe Illustrator 23.0.0, SVG Export Plug-In . SVG Version: 6.00 Build 0)  -->
<svg version="1.1" id="Layer_1" xmlns="http://www.w3.org/2000/svg" xmlns:xlink="http://www.w3.org/1999/xlink" x="0px" y="0px"
	 viewBox="0 0 292.93 171.65" style="enable-background:new 0 0 292.93 171.65;" xml:space="preserve">
<style type="text/css">
	.st0{fill:#8B0E04;}
	.st1{fill:#EF3E42;}
</style>
<g>
	<path d="M146.38,106.09v-0.07c0-6.7,5.13-12.38,12.35-12.38c4.17,0,6.74,1.16,9.2,3.25l-2.67,3.18c-1.85-1.57-3.66-2.56-6.71-2.56
		c-4.41,0-7.76,3.87-7.76,8.45v0.07c0,4.93,3.25,8.55,8.14,8.55c2.26,0,4.31-0.72,5.78-1.81v-4.48h-6.12v-3.66h10.19v10.06
		c-2.36,2.02-5.75,3.73-9.99,3.73C151.31,118.41,146.38,113.07,146.38,106.09L146.38,106.09z"/>
	<path d="M172.95,99.94h4.14v4.07c1.13-2.7,3.21-4.55,6.4-4.41v4.38h-0.24c-3.63,0-6.16,2.36-6.16,7.15V118h-4.14V99.94
		L172.95,99.94z"/>
	<path d="M198.02,107.7c-0.27-2.67-1.85-4.75-4.58-4.75c-2.53,0-4.31,1.95-4.69,4.75H198.02L198.02,107.7z M184.64,109.04v-0.07
		c0-5.17,3.66-9.41,8.82-9.41c5.75,0,8.65,4.52,8.65,9.71c0,0.38-0.03,0.75-0.07,1.16h-13.27c0.45,2.94,2.53,4.58,5.2,4.58
		c2.02,0,3.45-0.75,4.89-2.15l2.43,2.15c-1.71,2.05-4.07,3.39-7.39,3.39C188.68,118.41,184.64,114.61,184.64,109.04L184.64,109.04z"
		/>
	<path d="M216.62,110.44c-1.06-0.41-2.53-0.72-4.14-0.72c-2.6,0-4.14,1.06-4.14,2.81v0.07c0,1.71,1.54,2.67,3.49,2.67
		c2.73,0,4.79-1.54,4.79-3.8V110.44L216.62,110.44z M216.51,118v-2.22c-1.23,1.47-3.11,2.6-5.85,2.6c-3.42,0-6.43-1.95-6.43-5.57
		v-0.07c0-4,3.11-5.92,7.32-5.92c2.19,0,3.59,0.31,4.99,0.75v-0.34c0-2.5-1.57-3.87-4.44-3.87c-2.02,0-3.52,0.45-5.17,1.13
		l-1.13-3.32c1.98-0.89,3.93-1.5,6.87-1.5c5.34,0,7.94,2.81,7.94,7.63V118H216.51L216.51,118z"/>
	<path d="M225.4,113v-9.51h-2.29v-3.56h2.29v-4.96h4.14v4.96h4.86v3.56h-4.86v8.86c0,1.61,0.82,2.26,2.22,2.26
		c0.92,0,1.74-0.21,2.57-0.62v3.39c-1.03,0.58-2.19,0.92-3.73,0.92C227.55,118.3,225.4,116.97,225.4,113L225.4,113z"/>
	<path d="M249.61,107.7c-0.27-2.67-1.85-4.75-4.58-4.75c-2.53,0-4.31,1.95-4.69,4.75H249.61L249.61,107.7z M236.24,109.04v-0.07
		c0-5.17,3.66-9.41,8.82-9.41c5.75,0,8.66,4.52,8.66,9.71c0,0.38-0.04,0.75-0.07,1.16h-13.27c0.45,2.94,2.53,4.58,5.2,4.58
		c2.02,0,3.45-0.75,4.89-2.15l2.43,2.15c-1.71,2.05-4.07,3.39-7.39,3.39C240.27,118.41,236.24,114.61,236.24,109.04L236.24,109.04z"
		/>
	<path d="M257.06,99.94h4.14v4.07c1.13-2.7,3.21-4.55,6.4-4.41v4.38h-0.24c-3.63,0-6.16,2.36-6.16,7.15V118h-4.14V99.94
		L257.06,99.94z"/>
	<polygon points="153.33,130 145.73,130 145.73,126.11 165.16,126.11 165.16,130 157.57,130 157.57,150.05 153.33,150.05 
		153.33,130 	"/>
	<path d="M178.12,141.12v-0.07c0-3.18-2.29-5.81-5.54-5.81c-3.32,0-5.44,2.6-5.44,5.74v0.07c0,3.15,2.29,5.82,5.51,5.82
		C176,146.87,178.12,144.24,178.12,141.12L178.12,141.12z M163,141.12v-0.07c0-5.16,4.1-9.44,9.65-9.44c5.54,0,9.61,4.21,9.61,9.37
		v0.07c0,5.13-4.1,9.41-9.68,9.41C167.07,150.46,163,146.25,163,141.12L163,141.12z"/>
	<path d="M185.22,131.99h4.14v4.07c1.13-2.7,3.22-4.55,6.4-4.41v4.38h-0.24c-3.63,0-6.16,2.36-6.16,7.15v6.87h-4.14V131.99
		L185.22,131.99z"/>
	<path d="M211.62,141.12v-0.07c0-3.18-2.29-5.81-5.54-5.81c-3.32,0-5.44,2.6-5.44,5.74v0.07c0,3.15,2.29,5.82,5.51,5.82
		C209.51,146.87,211.62,144.24,211.62,141.12L211.62,141.12z M196.51,141.12v-0.07c0-5.16,4.1-9.44,9.65-9.44
		c5.54,0,9.61,4.21,9.61,9.37v0.07c0,5.13-4.1,9.41-9.68,9.41C200.58,150.46,196.51,146.25,196.51,141.12L196.51,141.12z"/>
	<path d="M218.73,131.99h4.14v2.81c1.16-1.71,2.84-3.18,5.64-3.18c4.07,0,6.43,2.74,6.43,6.94v11.49h-4.14v-10.26
		c0-2.81-1.4-4.41-3.87-4.41c-2.39,0-4.07,1.68-4.07,4.48v10.19h-4.14V131.99L218.73,131.99z"/>
	<path d="M239.55,145.05v-9.51h-2.29v-3.56h2.29v-4.96h4.14v4.96h4.86v3.56h-4.86v8.86c0,1.61,0.82,2.26,2.22,2.26
		c0.92,0,1.74-0.2,2.57-0.62v3.39c-1.03,0.58-2.19,0.92-3.73,0.92C241.71,150.36,239.55,149.02,239.55,145.05L239.55,145.05z"/>
	<path d="M265.1,141.12v-0.07c0-3.18-2.29-5.81-5.54-5.81c-3.32,0-5.44,2.6-5.44,5.74v0.07c0,3.15,2.29,5.82,5.51,5.82
		C262.98,146.87,265.1,144.24,265.1,141.12L265.1,141.12z M249.98,141.12v-0.07c0-5.16,4.11-9.44,9.65-9.44
		c5.54,0,9.61,4.21,9.61,9.37v0.07c0,5.13-4.1,9.41-9.68,9.41C254.05,150.46,249.98,146.25,249.98,141.12L249.98,141.12z"/>
	<path class="st0" d="M109.8,147.17h1c0.65,0,1.07-0.12,1.07-0.74c0-0.54-0.43-0.69-1.07-0.69h-1V147.17L109.8,147.17L109.8,147.17z
		 M108.96,145.14h1.99c1.17,0,1.76,0.43,1.76,1.32c0,0.76-0.53,1.3-1.33,1.3l1.48,2.1h-0.9l-1.42-2.1h-0.73v2.1h-0.84V145.14
		L108.96,145.14L108.96,145.14z M110.65,150.83c2.01,0,3.57-1.42,3.57-3.32c0-1.9-1.56-3.31-3.57-3.31c-2.03,0-3.59,1.41-3.59,3.31
		C107.07,149.4,108.63,150.83,110.65,150.83 M110.65,143.47c2.44,0,4.41,1.81,4.41,4.04c0,2.23-1.97,4.04-4.41,4.04
		c-2.45,0-4.42-1.81-4.42-4.04C106.23,145.28,108.2,143.47,110.65,143.47"/>
	<path class="st0" d="M99.34,88.23L58.32,17.51c-1.42-2.62-3.93-3.71-6.12-3.71c0,0-32.87,0-32.88,0c-1.04,0-1.89,0.85-1.89,1.9
		c0,0.37,0.13,0.69,0.31,0.98l42.09,71.9c1.13,1.81,1.78,3.95,1.78,6.24c0,0,0.02,53.38,0.02,53.41c0,1.7,1.38,3.05,3.08,3.05
		c0.03,0,33.55,0,33.55,0c1.7,0,3.07-1.41,3.07-3.11l0.02-53.64C101.36,92.17,100.5,90.07,99.34,88.23L99.34,88.23L99.34,88.23z"/>
	<path class="st1" d="M145.65,16.2c0-1.38-1.12-2.5-2.5-2.5c-0.01,0-73.24,0-73.26,0c-1.38,0-2.5,1.12-2.5,2.5
		c0,0.45,0.13,0.86,0.33,1.22l36.62,63.4c0.42,0.78,1.24,1.32,2.19,1.32c0.92,0,1.72-0.51,2.16-1.25l36.61-63.4
		C145.51,17.1,145.65,16.67,145.65,16.2L145.65,16.2L145.65,16.2z M120.16,30.25L120.16,30.25l-12.97,22.47h0
		c-0.13,0.23-0.38,0.38-0.66,0.38c-0.29,0-0.53-0.16-0.67-0.39h0L92.88,30.23l0,0c-0.06-0.11-0.1-0.24-0.1-0.37
		c0-0.43,0.35-0.77,0.77-0.77c0,0,0,0,0.01,0h25.93l0,0c0,0,0.01,0,0.01,0c0.43,0,0.77,0.35,0.77,0.77
		C120.27,30,120.23,30.13,120.16,30.25L120.16,30.25L120.16,30.25z"/>
</g>
</svg>
